<svg xmlns="http://www.w3.org/2000/svg" width="20" height="20"><path d="M18.4 0H1.71C.797 0 0 .656 0 1.558v16.728C0 19.192.797 20 1.71 20h16.687c.917 0 1.605-.813 1.605-1.714V1.558C20.005.656 19.312 0 18.4 0zM6.2 16.67H3.334v-8.91H6.2v8.91zM4.866 6.408h-.02c-.917 0-1.51-.682-1.51-1.537 0-.87.6-1.537 1.547-1.537s1.51.662 1.532 1.537c0 .854-.594 1.537-1.547 1.537zM16.67 16.67h-2.865V11.8c0-1.167-.417-1.964-1.454-1.964-.792 0-1.26.537-1.47 1.058-.078.188-.1.443-.1.703v5.074H7.92v-8.91h2.865v1.24c.417-.594 1.068-1.448 2.584-1.448 1.88 0 3.303 1.24 3.303 3.912v5.204z" fill="#272244" fill-rule="nonzero"/></svg>