<svg xmlns="http://www.w3.org/2000/svg" xmlns:xlink="http://www.w3.org/1999/xlink" width="192" height="97" xmlns:v="https://vecta.io/nano"><defs><linearGradient x1="0.0173225971%" y1="49.9788584%" x2="100.037998%" y2="49.9788584%" id="A"><stop stop-color="#ff4e00" offset="0%"/><stop stop-color="#ff5200" offset="2%"/><stop stop-color="#ff8104" offset="25%"/><stop stop-color="#ffa608" offset="47%"/><stop stop-color="#ffc00a" offset="68%"/><stop stop-color="#ffd00c" offset="86%"/><stop stop-color="#ffd60c" offset="100%"/></linearGradient><path d="M2 69.45L13.3 56a11.34 11.34 0 0 0 0-14.62L.48 26.18 19.8.4l.12.1L54 37.17a17.9 17.9 0 0 1 0 23.06L41.6 75 22.7 95a1.53 1.53 0 0 0 .06-.67 1.52 1.52 0 0 0-.25-.49L2 69.45z" id="B"/><linearGradient x1="-0.00269803472%" y1="50%" x2="100.017747%" y2="50%" id="C"><stop stop-color="#ff4e00" offset="0%"/><stop stop-color="#ff5200" offset="2%"/><stop stop-color="#ff8104" offset="25%"/><stop stop-color="#ffa608" offset="47%"/><stop stop-color="#ffc00a" offset="68%"/><stop stop-color="#ffd00c" offset="86%"/><stop stop-color="#ffd60c" offset="100%"/></linearGradient><path d="M15.77 75l-10-11.9c-6.998-8.306-6.998-20.444 0-28.75l29-33.88 22.1 25.7-15.6 18a6.34 6.34 0 0 0 0 8.1l14.1 17.23L34.2 95.07 15.77 75z" id="D"/><linearGradient x1="-4.59247714e-14%" y1="49.9999907%" x2="99.9878232%" y2="49.9999907%" id="E"><stop stop-color="#ff4e00" offset="0%"/><stop stop-color="#ff5200" offset="2%"/><stop stop-color="#ff8104" offset="25%"/><stop stop-color="#ffa608" offset="47%"/><stop stop-color="#ffc00a" offset="68%"/><stop stop-color="#ffd00c" offset="86%"/><stop stop-color="#ffd60c" offset="100%"/></linearGradient><linearGradient x1="17.7306534%" y1="30.3941154%" x2="56.5445232%" y2="54.0283311%" id="F"><stop stop-color="#ff5d2f" offset="0%"/><stop stop-color="#ff632d" offset="15%"/><stop stop-color="#ff7528" offset="35%"/><stop stop-color="#ff9220" offset="59%"/><stop stop-color="#ffbb14" offset="85%"/><stop stop-color="#ffd60c" offset="100%"/></linearGradient><path d="M118.58.93a1.86 1.86 0 0 1 1.86 1.86c0 .442-.156.87-.44 1.2L43.74 94.47A6.2 6.2 0 0 1 39 96.68H2.45a1.58 1.58 0 0 1-1.24-2.56l18.54-23.7 18.15-21.5a1.57 1.57 0 0 0 0-2L21.24 27.17 1.7 4a1.87 1.87 0 0 1 .22-2.62 1.89 1.89 0 0 1 1.2-.44H41.4a4.33 4.33 0 0 1 3.32 1.54l15 17.77a1.55 1.55 0 0 0 2.17.2 1.89 1.89 0 0 0 .2-.2l15-17.77A4.34 4.34 0 0 1 80.41.94l38.17-.01z" id="G"/><linearGradient x1="52.7642049%" y1="53.074363%" x2="41.5747592%" y2="45.2697224%" id="H"><stop stop-color="#ff8900" offset="0%"/><stop stop-color="#ff8300" offset="24%"/><stop stop-color="#ff7100" offset="57%"/><stop stop-color="#ff5400" offset="95%"/><stop stop-color="#ff5000" offset="100%"/></linearGradient></defs><g fill="none" fill-rule="evenodd"><path d="M135 70.45L146.3 57a11.34 11.34 0 0 0 0-14.62l-12.82-15.2L152.8 1.4l.12.1L187 38.17a17.9 17.9 0 0 1 0 23.06L174.6 76l-18.9 20a1.53 1.53 0 0 0 .06-.67 1.52 1.52 0 0 0-.25-.49L135 70.45z" fill="url(#A)" fill-rule="nonzero" opacity=".7"/><g transform="translate(133 1)"><mask id="I" fill="#fff"><use xlink:href="#B"/></mask><g opacity=".7" mask="url(#I)" stroke="#fff"><g opacity=".5"><path d="M14.28 48.08h44.25" stroke-width=".55"/></g></g></g><path d="M15.77 76l-10-11.9c-6.998-8.306-6.998-20.444 0-28.75l29-33.88 22.1 25.7-15.6 18a6.34 6.34 0 0 0 0 8.1l14.1 17.23L34.2 96.07 15.77 76z" fill="url(#C)" fill-rule="nonzero" opacity=".7"/><g transform="translate(0 1)"><mask id="J" fill="#fff"><use xlink:href="#D"/></mask><path stroke="#fff" stroke-width=".55" opacity=".3" mask="url(#J)" d="M-2 47.8h44.26"/></g><g fill-rule="nonzero"><path d="M154.63 96.7H115.7a6.22 6.22 0 0 1-4.75-2.21L93.9 74.3v-.1l13.22-15.67L116 47.9l6.1 7.27 33.44 39.65a1.16 1.16 0 0 1-.16 1.62 1.17 1.17 0 0 1-.74.26h-.01z" fill="url(#E)" opacity=".7"/><path fill="#000" opacity=".47" d="M122.1 55.16l-22.04 26.42-6.16-7.3 13.16-15.76L116 47.9l6.12 7.26z"/><path d="M151.58.93a1.86 1.86 0 0 1 1.86 1.86c0 .442-.156.87-.44 1.2L76.74 94.47A6.2 6.2 0 0 1 72 96.68H35.45a1.58 1.58 0 0 1-1.24-2.56l18.54-23.7 18.15-21.5a1.57 1.57 0 0 0 0-2L54.24 27.17 34.7 4a1.87 1.87 0 0 1 .22-2.62 1.89 1.89 0 0 1 1.2-.44H74.4a4.33 4.33 0 0 1 3.32 1.54l15 17.77a1.55 1.55 0 0 0 2.17.2 1.89 1.89 0 0 0 .2-.2l15-17.77a4.34 4.34 0 0 1 3.32-1.54l38.17-.01z" fill="url(#F)"/></g><g transform="translate(33)"><mask id="K" fill="#fff"><use xlink:href="#G"/></mask><path d="M23.75 102.75L132.6-28.37l34.4 9.7S72.33 109.82 69.4 109s-45.66-6.25-45.66-6.25h.01z" stroke="#f6df47" stroke-width="1.1" fill="url(#H)" fill-rule="nonzero" mask="url(#K)"/></g></g></svg>