<svg xmlns="http://www.w3.org/2000/svg" width="95" height="84" xmlns:v="https://vecta.io/nano"><style><![CDATA[.B{fill-opacity:.4}]]></style><g fill="#FF6E00" fill-rule="evenodd"><circle cx="3" cy="23" r="3" class="B"/><circle transform="matrix(-1 0 0 1 40 0)" cx="20" cy="21" r="3" class="B"/><circle cx="22.5" cy="10.5" r="1.5" class="B"/><circle cx="32" cy="27" r="2" class="B"/><circle cx="33" cy="13" r="1" class="B"/><circle cx="26" cy="37" r="1" class="B"/><path d="M94.28.72a2.46 2.46 0 0 0-3.48 0L83.63 7.9a7.4 7.4 0 0 0-1.391-.5L59.965 1.885a7.42 7.42 0 0 0-7.011 1.942L13.16 43.556c-2.878 2.88-2.878 7.563 0 10.44L41.003 81.84a7.39 7.39 0 0 0 10.44 0l39.73-39.795a7.42 7.42 0 0 0 1.942-7.011L87.612 12.76c-.12-.485-.3-.95-.5-1.4L94.28 4.2a2.46 2.46 0 0 0 0-3.48zm-5.94 35.5a2.47 2.47 0 0 1-.647 2.337L47.963 78.36c-.96.96-2.52.96-3.48 0L16.64 50.517c-.96-.96-.96-2.52 0-3.48l39.795-39.73c.465-.465 1.1-.72 1.746-.72a2.44 2.44 0 0 1 .591.073l20.923 5.165-5.927 5.927c-2.744-1.307-6.133-.828-8.402 1.44a7.39 7.39 0 0 0 0 10.44 7.36 7.36 0 0 0 10.441 0c2.27-2.27 2.748-5.658 1.44-8.402l5.927-5.927L88.34 36.23zM72.326 26.154c-.96.96-2.52.96-3.48 0s-.96-2.52 0-3.48c.48-.48 1.1-.72 1.74-.72s1.26.24 1.74.72h0c.96.96.96 2.52 0 3.48zm-20.882 3.48a7.39 7.39 0 0 0-10.44 0c-2.877 2.88-2.878 7.563 0 10.44s7.563 2.88 10.44 0 2.88-7.563 0-10.44zm-3.48 6.96c-.96.96-2.52.96-3.48 0s-.96-2.52 0-3.48 2.52-.96 3.48 0 .96 2.52 0 3.48zm6.96 17.403a7.38 7.38 0 0 0-10.441 0 7.39 7.39 0 0 0 0 10.44 7.38 7.38 0 0 0 10.441 0 7.39 7.39 0 0 0 0-10.44zm-3.48 6.96a2.46 2.46 0 0 1-3.48 0c-.96-.96-.96-2.52 0-3.48a2.46 2.46 0 0 1 3.48 0c.96.96.96 2.52 0 3.48z" fill-rule="nonzero"/><path d="M66.07 45.025a2.46 2.46 0 0 0-2.718-2.174L32.03 46.33a2.46 2.46 0 0 0 .269 4.907 2.51 2.51 0 0 0 .275-.015l31.324-3.48a2.46 2.46 0 0 0 2.174-2.718z"/></g></svg>