<svg xmlns="http://www.w3.org/2000/svg" width="85" height="72"><path d="M70.648.298L49.26 9.964a3.33 3.33 0 0 0-.99.686 3.36 3.36 0 0 0 3.753 5.434l13.69-6.188c-4.6 18.236-12.068 30.32-20.174 38.432a56.61 56.61 0 0 1-27.381 15.248c-8.04 1.88-13.964 1.43-14.442 1.384h-.022l-.002-.002a3.36 3.36 0 0 0-2.712.969 3.34 3.34 0 0 0-.964 2.034 3.36 3.36 0 0 0 3.001 3.678c.248.02 6.7.66 15.807-1.33 9.093-1.988 20.885-6.653 31.464-17.234 9.006-9 17.047-22.233 21.896-41.378l6.408 13.873a3.36 3.36 0 0 0 4.455 1.641 3.36 3.36 0 0 0 1.641-4.455l-9.6-20.81a3.36 3.36 0 0 0-4.43-1.65z" fill="#e43450" fill-rule="evenodd"/></svg>