<?xml version="1.0" encoding="UTF-8"?>
<svg width="15px" height="15px" viewBox="0 0 15 15" version="1.1" xmlns="http://www.w3.org/2000/svg" xmlns:xlink="http://www.w3.org/1999/xlink">
    <!-- Generator: Sketch 48.2 (47327) - http://www.bohemiancoding.com/sketch -->
    <title>Shape</title>
    <desc>Created with Sketch.</desc>
    <defs></defs>
    <g id="Appcademos-Card" stroke="none" stroke-width="1" fill="none" fill-rule="evenodd" transform="translate(-4.000000, -270.000000)">
        <g id="Card" fill="#484848" fill-rule="nonzero">
            <path d="M15.8753906,278.125 L12.1253906,278.125 L12.1253906,281.875 L15.8753906,281.875 L15.8753906,278.125 Z M14.6253906,270 L14.6253906,271.25 L8.37539063,271.25 L8.37539063,270 L6.50039063,270 L6.50039063,271.25 L5.5625,271.25 C4.70304688,271.25 4,271.953047 4,272.8125 L4,283.4375 C4,284.296953 4.70304688,285 5.5625,285 L17.4378906,285 C18.2973438,285 19.0003906,284.296953 19.0003906,283.4375 L19.0003906,272.8125 C19.0003906,271.953047 18.2973438,271.25 17.4378906,271.25 L16.5003906,271.25 L16.5003906,270 L14.6253906,270 Z M17.4378906,283.4375 L5.5625,283.4375 L5.5625,275.15625 L17.4378906,275.15625 L17.4378906,283.4375 Z" id="Shape"></path>
        </g>
    </g>
</svg>