<svg xmlns="http://www.w3.org/2000/svg" xmlns:xlink="http://www.w3.org/1999/xlink" width="56" height="56"><defs><path d="M952 48a24 24 0 1 0 0 48 24 24 0 1 0 0-48zm6.08 32.688l-6.08-6.08-6.08 6.08c-.715.715-1.892.715-2.608 0-.358-.358-.542-.83-.542-1.304s.185-.946.542-1.304l6.08-6.08-6.08-6.08c-.358-.358-.542-.83-.542-1.304s.185-.946.542-1.304c.715-.715 1.892-.715 2.608 0l6.08 6.08 6.08-6.08c.715-.715 1.892-.715 2.608 0s.715 1.892 0 2.608l-6.08 6.08 6.08 6.08c.715.715.715 1.892 0 2.608a1.83 1.83 0 0 1-2.608 0z" id="A"/><filter x="-13.5%" y="-11.5%" width="127.1%" height="127.1%" id="B"><feOffset dy="1" in="SourceAlpha"/><feGaussianBlur stdDeviation="2"/><feColorMatrix values="0 0 0 0 0 0 0 0 0 0 0 0 0 0 0 0 0 0 0.24 0"/></filter></defs><g fill-rule="nonzero" transform="translate(-924 -45)"><use fill="#000" filter="url(#B)" xlink:href="#A"/><use fill="#fff" fill-rule="evenodd" xlink:href="#A"/></g></svg>