<?xml version="1.0" encoding="UTF-8"?>
<svg width="64px" height="48px" viewBox="0 0 64 48" version="1.1" xmlns="http://www.w3.org/2000/svg" xmlns:xlink="http://www.w3.org/1999/xlink">
    <!-- Generator: Sketch 48.2 (47327) - http://www.bohemiancoding.com/sketch -->
    <title>Shape</title>
    <desc>Created with Sketch.</desc>
    <defs></defs>
    <g id="Appcademos-Footer" stroke="none" stroke-width="1" fill="none" fill-rule="evenodd" transform="translate(-554.000000, -138.000000)">
        <g id="Footer" fill="#484848" fill-rule="nonzero">
            <g id="Email" transform="translate(48.000000, 48.000000)">
                <g id="Banner" transform="translate(476.000000, 54.000000)">
                    <path d="M34.5348836,36 C32.0652056,36 30,38.3003559 30,41.1428544 L30,78.8571456 C30,81.6996012 32.0652056,84 34.5348836,84 L89.4651163,84 C91.9347944,84 94,81.6996012 94,78.8571456 L94,41.1428544 C94,38.3003559 91.9347944,36 89.4651163,36 L34.5348836,36 Z M35.3023254,39.4285696 L88.6976744,39.4285696 L63.3023255,65.5714384 C62.669053,66.2232952 61.3309469,66.2232952 60.6976743,65.5714384 L35.3023254,39.4285696 Z M32.976744,41.624997 L51.5581394,60.7500125 L32.976744,78.4821458 L32.976744,41.624997 Z M91.0232558,41.624997 L91.0232558,78.4821458 L72.4418604,60.7500125 L91.0232558,41.624997 Z M53.8139534,63.0803255 L58.7209302,68.1160371 C60.5818864,70.0316646 63.4181134,70.0316646 65.2790697,68.1160371 L70.1860465,63.0803255 L88.5348837,80.5714304 L35.4651161,80.5714304 L53.8139534,63.0803255 Z" id="Shape"></path>
                </g>
            </g>
        </g>
    </g>
</svg>