<svg xmlns="http://www.w3.org/2000/svg" width="26" height="20"><path d="M.6 6.604a2.2 2.2 0 0 1 .514-.393L11.802.272c.653-.363 1.448-.363 2.1 0l10.69 5.938c1.484.824 1.484 2.958 0 3.782l-3.086 1.715v4.59c0 .454-.142.897-.478 1.203-.942.856-3.375 2.5-8.175 2.5s-7.234-1.644-8.175-2.5c-.336-.305-.478-.75-.478-1.203v-4.59l-2.036-1.13v7.812a1.08 1.08 0 1 1-2.163 0V7.572a1.08 1.08 0 0 1 .599-.968zm12.253-4.44l10.69 5.938-10.69 5.938-9.695-5.386h8.742a1.08 1.08 0 1 0 0-2.163H5.064l7.788-4.327zm-6.5 10.746v3.185c.767.603 2.702 1.743 6.5 1.743s5.723-1.14 6.5-1.743V12.91l-5.44 3.022c-.653.363-1.448.363-2.1 0l-5.44-3.022z" fill="#48a9a6" fill-rule="evenodd"/></svg>