<svg xmlns="http://www.w3.org/2000/svg" width="20" height="20"><path d="M11 0a2.01 2.01 0 0 0-1.961 1.594l-.016.086-.04.18-.156.64a13.87 13.87 0 0 1-.75 2.078C7.366 6.142 6.167 7.91 4.273 9H1.125a.75.75 0 0 0-.734.586C.14 10.7 0 12.042 0 13.5s.14 2.8.39 3.914a.75.75 0 0 0 .734.586H4c.903 0 1.8.428 2.977.938S9.602 20 11.5 20h4.75c1.3 0 2.25-1.186 2.25-2.5 0-.133-.06-.247-.078-.375.67-.45 1.078-1.25 1.078-2.125a2.74 2.74 0 0 0-.102-.719A2.88 2.88 0 0 0 20 12.5c0-.653-.21-1.254-.57-1.734.187-.386.32-.803.32-1.266 0-1.46-1.07-2.75-2.5-2.75H13V2c0-1.096-.904-2-2-2zm-.09 2.545c.26 0 .455.195.455.455v5a.68.68 0 0 0 .682.682h4.545c.458 0 .91.455.91 1.136 0 .326-.116.615-.284.817a.68.68 0 0 0 .092.959c.235.193.42.54.42.952 0 .406-.177.752-.405.945a.68.68 0 0 0-.17.831 1.09 1.09 0 0 1 .121.497c0 .485-.292.818-.554.888a.68.68 0 0 0-.447.938 1.11 1.11 0 0 1 .092.447c0 .563-.36.91-.682.91h-4.318c-1.466 0-2.536-.407-3.565-.852s-2.028-.966-3.253-.966h-2.03c-.14-.8-.24-1.71-.24-2.727s.1-1.93.24-2.727H5a.68.68 0 0 0 .327-.085c2.156-1.177 3.43-3.113 4.17-4.737.37-.812.61-1.55.76-2.095l.156-.653.043-.192c.01-.046.022-.138.007-.064.042-.203.218-.355.447-.355z" fill="#48a9a6" fill-rule="nonzero"/></svg>