<svg xmlns="http://www.w3.org/2000/svg" width="77" height="90" xmlns:v="https://vecta.io/nano"><style><![CDATA[.B{fill-opacity:.5}]]></style><g fill="#FF6E00" fill-rule="evenodd"><g fill-rule="nonzero"><path d="M76.995 87.33A2.67 2.67 0 0 1 74.34 90H2.632A2.67 2.67 0 0 1 0 87.331C0 73.75 17.04 68.334 24.356 66.63c.1-.022.152-.104.15-.197v-2.874c-1.695-2.23-2.958-4.762-3.724-7.46-1.925-1.895-2.773-4.872-3.23-6.53-.746-2.637-1.493-6.467.558-9.19-.04-.908-.14-1.698-.204-2.487-.927-6.2-.212-10.81 2.13-13.7a7.76 7.76 0 0 1 5.107-2.906c1.194-4.145 7.024-8.188 12.31-7.106 5.13 1.105 15.84-.11 15.973-.126a.53.53 0 0 1 .377.111c.106.09.172.217.18.355a5.32 5.32 0 0 1-1.508 3.861c8.564 5.74 7.33 17.07 6.34 21.863 2.137 2.85 1.39 6.672.652 9.31-.456 1.627-1.304 4.643-3.22 6.546-.77 2.68-2.033 5.193-3.724 7.406v2.92c0 .092.06.173.15.197 7.307 1.713 24.324 7.138 24.324 20.7zm-26.98-16.06a5.52 5.52 0 0 1-2.514-3.032c-1.198.794-2.485 1.444-3.834 1.934a15.42 15.42 0 0 1-10.339 0 17.79 17.79 0 0 1-3.85-1.927 5.52 5.52 0 0 1-2.506 2.992c2.684 3.69 6.978 5.846 11.526 5.788 4.54.063 8.83-2.08 11.518-5.756h0zm2.357-18.302c.275 0 1.257-.426 2.46-4.737.943-3.348.542-4.564.228-5-.284-.324-.717-.474-1.14-.395a.51.51 0 0 1-.448-.189c-.107-.136-.136-.318-.08-.482v-.103c.236-.8 1.226-4.88-2.216-7.438-3.025.68-7.982.86-14.645-1.998-3.253-1.398-5.987-1.445-8.108-.142-4.258 2.606-4.84 9.814-4.848 9.885-.02.276-.26.484-.534.466h-.228a1.08 1.08 0 0 0-.935.411c-.322.426-.715 1.642.228 5 1.2 4.287 2.192 4.7 2.46 4.737.235.016.427.193.464.426.69 4.477 4.062 10.264 9.852 12.278 2.307.825 4.827.825 7.134 0 5.555-2.013 9.177-7.7 9.876-12.27.028-.254.24-.448.495-.45h-.016zm-7.943.158H32.566c-.346.006-.672.164-.892.434a1.19 1.19 0 0 0-.248.964c.662 3.416 3.64 5.88 7.102 5.88s6.44-2.465 7.102-5.88a1.19 1.19 0 0 0-.268-.988c-.234-.272-.577-.422-.935-.41h0zM31.64 42.42c-1.367 0-2.475 1.114-2.475 2.487s1.108 2.487 2.475 2.487a2.47 2.47 0 0 0 1.75-.728c.464-.466.725-1.1.725-1.76 0-1.374-1.108-2.487-2.475-2.487zm13.93-.032c-1.358.017-2.45 1.132-2.443 2.498s1.106 2.47 2.464 2.477a2.48 2.48 0 0 0 2.485-2.455c.01-.67-.253-1.316-.725-1.8a2.47 2.47 0 0 0-1.782-.728h0z"/><path d="M70.545 42.2c0 1.39-1.122 2.52-2.506 2.52s-2.506-1.128-2.506-2.52 1.122-2.52 2.506-2.52a2.52 2.52 0 0 1 2.506 2.519h0zm6.45 45.132A2.67 2.67 0 0 1 74.34 90H2.632A2.67 2.67 0 0 1 0 87.331C0 73.75 17.04 68.334 24.356 66.63c.1-.022.152-.104.15-.197v-2.874c-1.695-2.23-2.958-4.762-3.724-7.46-1.925-1.895-2.773-4.872-3.23-6.53-.746-2.637-1.493-6.467.558-9.19-.04-.908-.14-1.698-.204-2.487-.927-6.2-.212-10.81 2.13-13.7a7.76 7.76 0 0 1 5.107-2.906c1.194-4.145 7.024-8.188 12.31-7.106 5.13 1.105 15.84-.11 15.973-.126a.53.53 0 0 1 .377.111c.106.09.172.217.18.355a5.32 5.32 0 0 1-1.508 3.861c8.564 5.74 7.33 17.07 6.34 21.863 2.137 2.85 1.39 6.672.652 9.31-.456 1.627-1.304 4.643-3.22 6.546-.77 2.68-2.033 5.193-3.724 7.406v2.92c0 .092.06.173.15.197 7.307 1.713 24.324 7.138 24.324 20.7zm-26.98-16.06a5.52 5.52 0 0 1-2.514-3.032c-1.198.794-2.485 1.444-3.834 1.934a15.42 15.42 0 0 1-10.339 0 17.79 17.79 0 0 1-3.85-1.927 5.52 5.52 0 0 1-2.506 2.992c2.684 3.69 6.978 5.846 11.526 5.788 4.54.063 8.83-2.08 11.518-5.756h0zm2.357-18.302c.275 0 1.257-.426 2.46-4.737.943-3.348.542-4.564.228-5-.284-.324-.717-.474-1.14-.395a.51.51 0 0 1-.448-.189c-.107-.136-.136-.318-.08-.482v-.103c.236-.8 1.226-4.88-2.216-7.438-3.025.68-7.982.86-14.645-1.998-3.253-1.398-5.987-1.445-8.108-.142-4.258 2.606-4.84 9.814-4.848 9.885-.02.276-.26.484-.534.466h-.228a1.08 1.08 0 0 0-.935.411c-.322.426-.715 1.642.228 5 1.2 4.287 2.192 4.7 2.46 4.737.235.016.427.193.464.426.69 4.477 4.062 10.264 9.852 12.278 2.307.825 4.827.825 7.134 0 5.555-2.013 9.177-7.7 9.876-12.27.028-.254.24-.448.495-.45h-.016zm18.55-21.366c3.734-1.268 6.2-4.845 6.073-8.804-.164-4.87-4.123-8.745-8.972-8.78h-.055c-3.433.012-6.555 2-8.03 5.116a2.52 2.52 0 0 0 .061 2.618c.507.792 1.413 1.232 2.346 1.14a2.5 2.5 0 0 0 2.079-1.579c.655-1.384 2.042-2.268 3.567-2.274h0c2.152.03 3.91 1.733 4.023 3.893.07 1.775-1.034 3.384-2.71 3.948-2.228.737-3.746 2.814-3.78 5.172v2.14c.074 1.33 1.17 2.37 2.494 2.37s2.42-1.04 2.494-2.37V32.03c.016-.284.36-.41.41-.426zM44.43 53.127H32.566c-.346.006-.672.164-.892.434a1.19 1.19 0 0 0-.248.964c.662 3.416 3.64 5.88 7.102 5.88s6.44-2.465 7.102-5.88a1.19 1.19 0 0 0-.268-.988c-.234-.272-.577-.422-.935-.41h0zM31.64 42.42c-1.367 0-2.475 1.114-2.475 2.487s1.108 2.487 2.475 2.487a2.47 2.47 0 0 0 1.75-.728c.464-.466.725-1.1.725-1.76 0-1.374-1.108-2.487-2.475-2.487zm13.93-.032c-1.358.017-2.45 1.132-2.443 2.498s1.106 2.47 2.464 2.477a2.48 2.48 0 0 0 2.485-2.455c.01-.67-.253-1.316-.725-1.8a2.47 2.47 0 0 0-1.782-.728h0z"/></g><path d="M47.5 68.24c-1.198.794-2.485 1.444-3.834 1.934a15.42 15.42 0 0 1-10.339 0 17.79 17.79 0 0 1-3.85-1.927c-.445 1.27-1.336-.665-2.506-.008 2.684 3.69 6.978 5.846 11.526 5.788 4.54.063 8.83-2.08 11.518-5.756-1.18-.665-2.076 1.255-2.514-.032z" class="B"/><circle cx="24.371" cy="5.5" r="2.5" class="B"/><circle cx="50.995" cy="9" r="1" class="B"/><circle cx="39.5" cy="8.5" r="1.5" class="B"/><ellipse cx="13.5" cy="18.507" rx="1.5" ry="1.507" class="B"/><circle cx="43" cy="1" r="1" class="B"/></g></svg>