<?xml version="1.0" encoding="UTF-8"?>
<svg width="95px" height="84px" viewBox="0 0 95 84" version="1.1" xmlns="http://www.w3.org/2000/svg" xmlns:xlink="http://www.w3.org/1999/xlink">
    <!-- Generator: Sketch 52.6 (67491) - http://www.bohemiancoding.com/sketch -->
    <title>discount_tag</title>
    <desc>Created with Sketch.</desc>
    <g id="Appcademos" stroke="none" stroke-width="1" fill="none" fill-rule="evenodd">
        <g id="Home" transform="translate(-146.000000, -1387.000000)" fill="#E14660">
            <g id="3-steps" transform="translate(76.000000, 1239.000000)">
                <g id="1" transform="translate(0.000000, 136.000000)">
                    <g id="discount_tag" transform="translate(70.000000, 12.000000)">
                        <circle id="Oval-2" fill-opacity="0.4" cx="3" cy="23" r="3"></circle>
                        <circle id="Oval-2" fill-opacity="0.4" transform="translate(20.000000, 21.000000) scale(-1, 1) translate(-20.000000, -21.000000) " cx="20" cy="21" r="3"></circle>
                        <circle id="Oval-2" fill-opacity="0.4" cx="22.5" cy="10.5" r="1.5"></circle>
                        <circle id="Oval-2" fill-opacity="0.4" cx="32" cy="27" r="2"></circle>
                        <circle id="Oval-2" fill-opacity="0.4" cx="33" cy="13" r="1"></circle>
                        <circle id="Oval-2" fill-opacity="0.4" cx="26" cy="37" r="1"></circle>
                        <g id="etiqueta" transform="translate(11.000000, 0.000000)">
                            <path d="M83.2791094,0.720890625 C82.3181953,-0.2401875 80.7597656,-0.2401875 79.7986875,0.720890625 L72.6307969,7.88878125 C72.190125,7.67878125 71.7251719,7.50963281 71.2397109,7.38839062 L48.9647812,1.88524219 C46.4634844,1.26 43.7767969,2.00402344 41.9535703,3.82725 L2.1590625,43.5562969 C-0.719414062,46.4349375 -0.719414062,51.1189219 2.1590625,53.9977266 L30.0026016,81.8411016 C32.8812422,84.7197422 37.5652266,84.7199063 40.4440313,81.8411016 L80.1730781,42.0464297 C81.9963047,40.2232031 82.7404922,37.5365156 82.1149219,35.0350547 L76.6119375,12.7602891 C76.4905312,12.2749922 76.3215469,11.809875 76.1115469,11.3692031 L83.2794375,4.2013125 C84.2401875,3.24023437 84.2401875,1.68196875 83.2791094,0.720890625 Z M77.3395547,36.2291016 C77.5480781,37.0628672 77.3000156,37.9583203 76.6923281,38.5661719 L36.9632813,78.3606797 C36.0036797,79.3202812 34.4422969,79.3202812 33.4826953,78.3606797 L5.63932031,50.5171406 C4.67971875,49.5575391 4.67971875,47.9961562 5.63932031,47.0365547 L45.4339922,7.30767187 C45.8994375,6.84222656 46.5337031,6.58776562 47.1797812,6.58776562 C47.3773125,6.58776562 47.5759922,6.61155469 47.7710625,6.66028125 L68.6939531,11.8254609 L62.7671953,17.7522188 C60.02325,16.4452969 56.6338828,16.9246875 54.3655547,19.1930156 C51.48675,22.0718203 51.48675,26.7556406 54.3655547,29.6344453 C55.8047109,31.0737656 57.6955313,31.7935078 59.5861875,31.7935078 C61.4766797,31.7935078 63.3675,31.0739297 64.8066563,29.6344453 C67.0754766,27.3657891 67.5547031,23.9765859 66.2474531,21.2326406 L72.1742109,15.3058828 L77.3395547,36.2291016 Z M61.3263984,26.1541875 C60.3669609,27.113625 58.8055781,27.1137891 57.8459766,26.1541875 C56.8865391,25.19475 56.8865391,23.6332031 57.8459766,22.6737656 C58.3258594,22.1938828 58.9558594,21.9541875 59.5861875,21.9541875 C60.2161875,21.9541875 60.8465156,22.1940469 61.3260703,22.6736016 L61.3262344,22.6737656 L61.3263984,22.6739297 C62.286,23.6333672 62.2858359,25.19475 61.3263984,26.1541875 Z" id="Shape" fill-rule="nonzero"></path>
                            <path d="M40.4437031,29.6346094 C37.5650625,26.7559687 32.8810781,26.7559687 30.0022734,29.6346094 C27.1237969,32.51325 27.1237969,37.1972344 30.0022734,40.0760391 C32.8809141,42.9546797 37.5650625,42.9546797 40.4437031,40.0760391 C43.3225078,37.1972344 43.3225078,32.5134141 40.4437031,29.6346094 Z M36.9634453,36.5954531 C36.0038437,37.5550547 34.4424609,37.5550547 33.4830234,36.5954531 C32.5235859,35.6358516 32.5232578,34.0744688 33.4828594,33.1150312 C34.4424609,32.1555937 36.0036797,32.1554297 36.9634453,33.1150312 C37.9228828,34.0744688 37.9228828,35.6358516 36.9634453,36.5954531 Z" id="Shape" fill-rule="nonzero"></path>
                            <path d="M43.924125,53.9975625 C41.0387578,51.1121953 36.3687187,51.1118672 33.4828594,53.9975625 C30.6040547,56.8763672 30.6040547,61.5601875 33.4828594,64.4389922 C36.3683906,67.3243594 41.0384297,67.3248516 43.924125,64.4389922 C46.8029297,61.5601875 46.8029297,56.8763672 43.924125,53.9975625 Z M40.4437031,60.9585703 C39.4821328,61.9203047 37.9250156,61.9204688 36.9632813,60.9585703 C36.0038438,59.9991328 36.0038438,58.4375859 36.9632813,57.4781484 C37.9250156,56.5164141 39.4819688,56.51625 40.4437031,57.4781484 C41.4031406,58.4375859 41.4031406,59.9988047 40.4437031,60.9585703 Z" id="Shape" fill-rule="nonzero"></path>
                            <path d="M55.0713516,45.0248203 C54.9212344,43.6739297 53.7042187,42.7003828 52.3534922,42.8505 L21.0296953,46.3309219 C19.6788047,46.4810391 18.7052578,47.6977266 18.855375,49.0487812 C18.9953203,50.3073047 20.0607422,51.2383594 21.2984297,51.2383594 C21.3891563,51.2383594 21.4810313,51.2332734 21.5732344,51.2231016 L52.8971953,47.7426797 C54.2480859,47.5923984 55.2216328,46.3757109 55.0713516,45.0248203 Z" id="Path"></path>
                        </g>
                    </g>
                </g>
            </g>
        </g>
    </g>
</svg>