<?xml version="1.0" encoding="UTF-8"?>
<svg width="86px" height="23px" viewBox="0 0 86 23" version="1.1" xmlns="http://www.w3.org/2000/svg" xmlns:xlink="http://www.w3.org/1999/xlink">
    <!-- Generator: Sketch 52.6 (67491) - http://www.bohemiancoding.com/sketch -->
    <title>universidad-pontificia-de-comillas</title>
    <desc>Created with Sketch.</desc>
    <g id="universidad-pontificia-de-comillas" stroke="none" stroke-width="1" fill="none" fill-rule="evenodd">
        <path d="M5.221,12.385 C5.276,12.575 5.47,12.687 5.667,12.667 C6.811,12.549 7.203,13.528 7.897,13.096 C8.804,12.53 9.326,11.207 9.326,11.207 C9.326,11.207 8.929,11.118 8.395,11.583 C7.861,12.049 6.525,11.841 6.442,10.963 C6.334,9.818 5.67,9.754 5.67,9.754 C5.951,10.523 5.753,10.714 5.753,10.714 C5.639,10.561 5.419,10.59 5.419,10.59 C5.582,10.866 5.562,11.571 5.562,11.571 C5.448,11.41 5.257,11.343 5.257,11.343 C5.257,11.343 5.477,11.743 5.267,12.058 C5.192,12.17 5.192,12.284 5.221,12.385" id="Fill-1" fill="#F1AB3D"></path>
        <path d="M10.502,15.418 C7.565,15.082 7.862,17.534 8.09,17.989 C8.318,18.443 7.911,18.821 7.911,18.821 L7.848,18.813 C7.647,18.788 7.45,18.741 7.261,18.667 C5.952,18.153 5.43,18.982 5.43,18.982 C5.43,18.982 6.027,18.951 6.433,19.191 C6.433,19.191 6.218,19.254 6.1,19.577 C6.1,19.577 6.715,19.33 7.18,19.594 C7.18,19.594 7.012,19.794 7.121,20.104 C7.121,20.104 7.299,19.679 8.467,20.34 C9.127,20.712 9.099,19.952 9.099,19.952 C9.127,19.125 9.366,18.78 9.498,18.653 C9.614,18.542 9.725,18.427 9.82,18.299 C10.888,16.865 10.502,15.418 10.502,15.418" id="Fill-2" fill="#F1AB3D"></path>
        <path d="M15.86,13.309 C15.738,12.773 15.423,12.305 15.001,11.953 C14.797,11.783 14.614,11.572 14.538,11.408 C14.341,10.98 14.426,10.416 14.722,10.297 C15.186,10.112 15.261,10.718 15.261,10.718 L15.26,10.72 C15.172,10.681 14.977,10.585 14.936,10.469 C14.936,10.469 14.865,10.907 15.134,11.143 C15.134,11.143 15.076,11.217 14.934,11.118 C14.934,11.118 14.948,11.354 15.168,11.577 C15.389,11.799 15.92,12.149 15.92,12.149 C15.92,12.149 15.721,11.858 15.779,11.244 C15.84,10.59 15.489,9.857 14.829,9.906 C14.32,9.945 14.096,10.422 14.083,10.85 C14.071,11.202 14.223,11.596 14.462,11.854 C14.676,12.083 15.082,12.381 15.043,12.478 C15.043,12.478 14.772,12.231 14.385,12.374 C14.385,12.374 14.972,12.659 15.042,13.028 C15.042,13.028 14.82,12.973 14.727,13.111 C14.727,13.111 15.411,13.296 15.436,13.944 C15.471,14.817 14.612,15.387 14.134,15.532 C13.34,15.772 12.618,15.18 12.767,12.402 L12.28,13.041 L11.752,12.13 C11.329,12.565 10.585,12.986 10.161,13.137 L10.005,12.179 C9.256,11.956 8.315,13.338 7.599,13.907 C7.148,14.266 6.41,14.379 5.926,14.413 C5.756,14.425 5.618,14.427 5.534,14.427 C5.483,14.427 5.44,14.391 5.432,14.341 L5.306,13.582 C5.286,13.459 5.252,13.338 5.195,13.226 C4.928,12.698 4.485,12.779 4.485,12.779 C4.711,13.026 4.638,13.477 4.638,13.477 C4.466,13.316 4.247,13.362 4.247,13.362 C4.466,13.546 4.524,14.201 4.524,14.201 C4.443,14.052 4.144,14.029 4.144,14.029 C4.34,14.236 4.398,14.846 4.398,14.846 C4.282,14.673 4.064,14.627 4.064,14.627 C4.16,14.766 4.126,15.156 4.121,15.209 C4.117,15.205 4.117,15.209 4.121,15.216 C4.121,15.216 4.121,15.214 4.121,15.209 C4.143,15.227 4.26,15.378 4.583,15.983 C4.945,16.662 5.388,16.268 5.67,15.96 C5.718,15.909 5.807,15.86 5.926,15.813 C6.516,15.581 7.853,15.403 8.637,15.228 C9.579,15.016 9.747,14.375 9.747,14.375 C9.747,14.375 11.099,14.818 10.955,16.31 C10.955,16.31 11.814,15.032 12.509,15.235 C11.651,15.269 9.731,18.695 12.244,18.131 C12.499,18.073 12.401,18.245 12.358,18.419 C12.117,19.182 12.231,19.53 10.732,20.13 C10.315,20.298 10.45,21.051 10.439,21.115 C10.439,21.115 10.867,20.578 11.261,20.509 C11.261,20.509 11.18,20.784 11.443,20.986 C11.443,20.986 11.706,20.339 12.09,20.309 C12.09,20.309 12.16,20.535 12.509,20.715 C12.509,20.715 12.464,20.126 12.829,20.096 C13.192,20.066 13.46,20.122 13.582,19.481 C13.598,19.398 13.817,17.858 14.423,16.947 C14.617,16.656 14.308,16.664 14.308,16.664 C14.308,16.664 13.92,16.666 14.137,16.293 C14.198,16.189 14.336,16.056 14.439,15.994 C14.93,15.698 16.246,15.005 15.86,13.309" id="Fill-3" fill="#F1AB3D"></path>
        <path d="M8.043,8.975 L8.471,8.975 C8.751,8.975 9.269,9.035 9.204,9.614 C9.187,9.763 9.029,9.731 8.342,9.733 L8.176,9.733 L8.177,10.046 C8.177,10.208 8.318,10.336 8.479,10.319 C8.673,10.299 8.907,10.272 9.01,10.249 C10.275,9.96 9.502,11.479 9.299,11.799 C9.268,11.846 9.124,12.092 9.101,12.132 C9.101,12.132 9.83,11.921 10.176,11.883 L10.34,12.771 C10.34,12.771 11.22,12.402 11.8,11.825 L12.317,12.561 L12.686,11.721 C12.82,11.779 13.226,11.721 13.226,11.721 C12.662,11.293 12.688,10.826 12.688,10.826 C12.97,10.936 13.317,10.786 13.317,10.786 C12.874,10.335 12.839,10.115 12.78,9.801 C12.96,9.733 13.065,9.677 13.065,9.677 C12.746,9.501 12.661,9.415 12.603,9.266 C12.581,9.211 12.566,9.154 12.555,9.097 L12.523,8.922 C12.513,8.87 12.506,8.818 12.498,8.766 C12.444,8.39 12.301,8.14 12.131,7.974 C11.532,7.342 10.29,7.458 9.566,7.91 C9.045,8.236 8.649,8.335 8.416,8.362 L7.913,8.363 C7.849,8.363 7.805,8.429 7.831,8.488 L8.043,8.975 Z M9.981,8.406 L10.814,8.406 C10.254,8.94 10.005,8.77 9.981,8.406 Z" id="Fill-4" fill="#F1AB3D"></path>
        <path d="" id="Fill-5" fill="#F1AB3D"></path>
        <path d="" id="Fill-6" fill="#F1AB3D"></path>
        <path d="" id="Fill-7" fill="#F1AB3D"></path>
        <path d="M1.931,3.374 L1.38,3.944 L2.098,4.64 L1.751,4.999 L1.392,4.651 L0.134,5.951 L1.245,7.025 L1.832,6.417 L1.212,5.818 L1.561,5.459 L2.18,6.057 L2.475,5.752 L2.502,5.725 L2.861,6.072 L2.835,6.1 L2.539,6.406 L3.158,7.004 L2.81,7.363 L2.191,6.765 L1.604,7.372 L2.714,8.446 L3.945,7.174 L3.971,7.147 L4.319,6.787 L6.102,8.532 C6.307,8.362 6.568,8.235 6.763,8.191 L1.931,3.374" id="Fill-8" fill="#F1AB3D"></path>
        <path d="M19.971,7.025 L21.081,5.951 L19.824,4.651 L19.465,4.999 L19.117,4.64 L19.835,3.943 L19.284,3.374 L13.342,9.106 C13.342,9.106 13.596,9.602 13.661,9.905 L16.897,6.788 L17.244,7.147 L17.27,7.174 L18.502,8.447 L19.612,7.372 L19.024,6.765 L18.405,7.364 L18.057,7.005 L18.675,6.405 L18.38,6.1 L18.355,6.073 L18.713,5.725 L18.74,5.752 L19.036,6.057 L19.654,5.459 L20.002,5.818 L19.383,6.417 L19.971,7.025" id="Fill-9" fill="#F1AB3D"></path>
        <path d="M6.203,16.271 L3.965,18.473 C3.996,17.622 3.382,16.864 2.523,16.737 C1.599,16.601 0.74,17.242 0.604,18.165 C0.527,18.686 0.697,19.187 1.025,19.549 C0.965,19.686 0.923,19.832 0.901,19.983 C0.835,20.43 0.948,20.877 1.217,21.239 C1.486,21.602 1.881,21.839 2.327,21.905 C2.46,21.924 2.591,21.928 2.722,21.917 C2.769,21.913 2.816,21.906 2.862,21.898 C3.118,22.289 3.532,22.572 4.029,22.646 C4.162,22.666 4.294,22.669 4.423,22.658 C5.184,22.591 5.832,22.008 5.947,21.217 C6.083,20.294 5.443,19.432 4.521,19.296 C4.424,19.282 4.328,19.277 4.233,19.279 L7.603,16.017 L6.203,16.271 Z M3.322,18.567 C3.237,19.144 2.699,19.544 2.123,19.46 C1.546,19.374 1.146,18.835 1.23,18.258 C1.303,17.764 1.708,17.399 2.185,17.357 C2.265,17.351 2.347,17.353 2.43,17.365 C3.007,17.45 3.407,17.99 3.322,18.567 Z M2.603,20.724 C2.575,20.916 2.58,21.106 2.615,21.287 C2.551,21.29 2.485,21.286 2.42,21.276 C2.14,21.236 1.894,21.088 1.726,20.861 C1.557,20.634 1.487,20.355 1.528,20.075 C1.535,20.03 1.545,19.986 1.557,19.944 C1.704,20.013 1.862,20.062 2.03,20.087 C2.163,20.106 2.295,20.11 2.424,20.098 C2.59,20.084 2.751,20.045 2.902,19.985 C2.749,20.197 2.643,20.448 2.603,20.724 Z M4.429,19.924 C5.005,20.008 5.406,20.547 5.321,21.125 C5.236,21.703 4.698,22.103 4.122,22.018 C3.544,21.933 3.145,21.394 3.229,20.817 C3.302,20.323 3.707,19.958 4.182,19.917 C4.264,19.91 4.346,19.911 4.429,19.924 Z" id="Fill-10" fill="#F1AB3D"></path>
        <path d="M14.836,17.318 L16.845,19.29 C16.75,19.288 16.653,19.294 16.556,19.308 C15.634,19.444 14.994,20.306 15.13,21.229 C15.246,22.02 15.893,22.602 16.655,22.669 C16.784,22.681 16.915,22.677 17.049,22.657 C17.545,22.585 17.959,22.3 18.215,21.909 C18.262,21.918 18.309,21.925 18.356,21.929 C18.485,21.939 18.618,21.936 18.75,21.917 C19.196,21.85 19.591,21.615 19.86,21.251 C20.13,20.888 20.242,20.442 20.176,19.995 C20.154,19.843 20.113,19.698 20.052,19.561 C20.38,19.198 20.55,18.697 20.474,18.177 C20.338,17.254 19.477,16.613 18.555,16.749 C17.696,16.876 17.081,17.634 17.112,18.485 L15.186,16.585 C15.186,16.585 15.053,17.052 14.836,17.318 M18.647,17.377 C18.731,17.365 18.813,17.362 18.893,17.369 C19.37,17.411 19.774,17.775 19.847,18.269 C19.932,18.847 19.531,19.385 18.955,19.471 C18.379,19.556 17.84,19.155 17.756,18.578 C17.671,18.001 18.071,17.462 18.647,17.377 M16.649,19.935 C16.732,19.923 16.814,19.921 16.894,19.928 C17.371,19.97 17.776,20.334 17.848,20.828 C17.933,21.405 17.533,21.945 16.956,22.03 C16.38,22.115 15.841,21.715 15.757,21.136 C15.672,20.559 16.072,20.02 16.649,19.935 M18.176,19.996 C18.326,20.057 18.487,20.096 18.654,20.11 C18.782,20.121 18.914,20.118 19.047,20.098 C19.215,20.074 19.374,20.024 19.521,19.956 C19.533,19.998 19.542,20.042 19.55,20.087 C19.59,20.367 19.521,20.646 19.352,20.872 C19.183,21.1 18.936,21.247 18.657,21.289 C18.592,21.299 18.527,21.302 18.462,21.3 C18.497,21.118 18.503,20.928 18.475,20.736 C18.434,20.46 18.328,20.209 18.176,19.996" id="Fill-11" fill="#F1AB3D"></path>
        <path d="M8.641,9.342 C8.641,9.326 8.628,9.312 8.611,9.312 C8.608,9.312 8.607,9.313 8.605,9.314 L8.604,9.312 C8.604,9.312 8.489,9.338 8.333,9.317 C8.254,9.305 8.159,9.282 8.044,9.241 C8.022,9.232 7.999,9.224 7.976,9.215 C7.969,9.212 7.963,9.21 7.956,9.207 C7.889,9.182 7.815,9.153 7.729,9.121 C7.197,8.922 6.77,9.413 6.77,9.413 L6.771,9.413 C6.767,9.418 6.763,9.425 6.763,9.433 C6.763,9.449 6.776,9.463 6.793,9.463 C6.802,9.463 6.81,9.459 6.815,9.453 C6.815,9.453 6.815,9.453 6.816,9.453 C6.846,9.424 6.883,9.402 6.904,9.392 C6.989,9.351 7.143,9.308 7.393,9.335 C7.397,9.335 7.401,9.335 7.405,9.335 C7.428,9.338 7.452,9.342 7.478,9.345 C7.565,9.359 7.66,9.38 7.76,9.413 C8.291,9.588 8.589,9.415 8.632,9.364 C8.637,9.358 8.641,9.351 8.641,9.342" id="Fill-12" fill="#F1AB3D"></path>
        <path d="M11.511,1.354 C11.379,1.327 11.252,1.3 11.141,1.264 C11.142,1.254 11.144,1.245 11.144,1.235 C11.144,1.105 10.987,0.995 10.771,0.954 L10.771,0.738 L11.015,0.738 L11.015,0.479 L10.765,0.479 L10.765,0.273 L10.439,0.273 L10.439,0.479 L10.186,0.479 L10.186,0.738 L10.428,0.738 L10.428,0.95 C10.2,0.986 10.032,1.1 10.032,1.235 C10.032,1.242 10.033,1.248 10.034,1.256 C9.911,1.296 9.769,1.325 9.63,1.354 C9.25,1.429 6.262,1.596 8.527,6.545 L8.625,6.759 C9.24,6.534 9.904,6.412 10.597,6.412 C11.29,6.412 11.92,6.512 12.536,6.737 L12.613,6.545 C14.878,1.596 11.89,1.429 11.511,1.354 M10.572,1.61 C13.102,1.613 13.028,2.832 13.028,2.832 C12.97,3.255 11.869,2.884 11.93,2.28 L11.856,2.27 C11.68,3.012 10.56,2.818 10.632,2.093 L10.527,2.093 C10.599,2.818 9.479,3.012 9.303,2.27 L9.229,2.28 C9.291,2.884 8.188,3.255 8.13,2.832 C8.13,2.832 8.042,1.613 10.572,1.61 M12.108,6.13 C11.84,6.13 11.627,5.9 11.653,5.625 L11.595,5.617 C11.457,6.196 10.583,6.043 10.639,5.477 L10.543,5.477 C10.598,6.045 9.723,6.196 9.585,5.615 L9.528,5.624 C9.583,6.162 8.755,6.372 8.565,5.763 L8.35,5.204 L8.417,5.174 C9.775,4.542 11.426,4.599 12.784,5.189 C12.68,5.53 12.586,6.13 12.108,6.13 M12.448,4.598 C12.125,4.593 11.83,4.311 11.863,3.98 L11.793,3.967 C11.627,4.669 10.569,4.485 10.636,3.801 L10.519,3.801 C10.588,4.485 9.529,4.669 9.365,3.967 L9.294,3.979 C9.36,4.629 8.359,4.881 8.13,4.146 L8.059,3.583 C9.698,2.82 11.464,2.884 13.107,3.596 C13.012,4.001 13.091,4.61 12.448,4.598" id="Fill-13" fill="#F1AB3D"></path>
        <path d="M31.296,14.952 C31.296,15.254 31.305,15.314 31.372,15.426 C31.448,15.553 31.591,15.629 31.755,15.629 C31.935,15.629 32.09,15.545 32.161,15.414 C32.221,15.311 32.234,15.23 32.234,14.952 L32.234,13.512 L32.923,13.512 L32.923,15.047 C32.923,15.438 32.855,15.65 32.664,15.865 C32.441,16.115 32.138,16.239 31.735,16.239 C31.341,16.239 30.982,16.084 30.798,15.84 C30.659,15.657 30.607,15.438 30.607,15.047 L30.607,13.512 L31.296,13.512 L31.296,14.952" id="Fill-14" fill="#464C4D"></path>
        <polyline id="Fill-15" fill="#464C4D" points="33.481 13.512 34.171 13.512 35.443 15.139 35.443 13.512 36.132 13.512 36.132 16.172 35.443 16.172 34.171 14.545 34.171 16.172 33.481 16.172 33.481 13.512"></polyline>
        <polygon id="Fill-16" fill="#464C4D" points="36.69 16.172 37.38 16.172 37.38 13.512 36.69 13.512"></polygon>
        <polyline id="Fill-17" fill="#464C4D" points="39.052 15.131 39.698 13.512 40.447 13.512 39.315 16.171 38.776 16.171 37.66 13.512 38.413 13.512 39.052 15.131"></polyline>
        <polyline id="Fill-18" fill="#464C4D" points="41.416 14.098 41.416 14.54 42.193 14.54 42.193 15.126 41.416 15.126 41.416 15.585 42.237 15.585 42.237 16.171 40.726 16.171 40.726 13.512 42.237 13.512 42.237 14.098 41.416 14.098"></polyline>
        <path d="M44.885,16.172 L44.024,16.172 L43.365,15.151 L43.365,16.172 L42.676,16.172 L42.676,13.512 L43.748,13.512 C44.052,13.512 44.247,13.583 44.402,13.748 C44.546,13.899 44.63,14.115 44.63,14.334 C44.63,14.733 44.426,14.996 44.048,15.083 L44.885,16.172 Z M43.493,14.705 C43.764,14.705 43.919,14.581 43.919,14.373 C43.919,14.166 43.761,14.043 43.493,14.043 L43.365,14.043 L43.365,14.705 L43.493,14.705 Z" id="Fill-19" fill="#464C4D"></path>
        <path d="M46.635,14.202 C46.48,14.079 46.34,14.023 46.181,14.023 C46.017,14.023 45.886,14.122 45.886,14.25 C45.886,14.333 45.945,14.402 46.065,14.457 C46.101,14.473 46.129,14.481 46.364,14.553 C46.827,14.688 47.018,14.908 47.018,15.29 C47.018,15.889 46.635,16.24 45.981,16.24 C45.658,16.24 45.335,16.136 45.056,15.941 L45.351,15.382 C45.563,15.566 45.758,15.654 45.961,15.654 C46.165,15.654 46.296,15.55 46.296,15.394 C46.296,15.251 46.204,15.183 45.881,15.087 C45.579,15 45.463,14.948 45.363,14.864 C45.232,14.748 45.164,14.577 45.164,14.346 C45.164,13.811 45.53,13.448 46.069,13.448 C46.348,13.448 46.643,13.524 46.91,13.664 L46.635,14.202" id="Fill-20" fill="#464C4D"></path>
        <polygon id="Fill-21" fill="#464C4D" points="47.452 16.172 48.142 16.172 48.142 13.512 47.452 13.512"></polygon>
        <path d="M48.701,13.512 L49.721,13.512 C50.423,13.512 51.029,14.126 51.029,14.84 C51.029,15.557 50.423,16.171 49.721,16.171 L48.701,16.171 L48.701,13.512 Z M49.55,15.585 C50.008,15.585 50.307,15.291 50.307,14.84 C50.307,14.393 50.008,14.098 49.55,14.098 L49.39,14.098 L49.39,15.585 L49.55,15.585 Z" id="Fill-22" fill="#464C4D"></path>
        <path d="M52.021,15.71 L51.837,16.172 L51.109,16.172 L52.129,13.512 L52.882,13.512 L53.883,16.172 L53.145,16.172 L52.974,15.71 L52.021,15.71 Z M52.504,14.333 L52.212,15.183 L52.787,15.183 L52.504,14.333 Z" id="Fill-23" fill="#464C4D"></path>
        <path d="M54.191,13.512 L55.211,13.512 C55.913,13.512 56.519,14.126 56.519,14.84 C56.519,15.557 55.913,16.171 55.211,16.171 L54.191,16.171 L54.191,13.512 Z M55.04,15.585 C55.498,15.585 55.797,15.291 55.797,14.84 C55.797,14.393 55.498,14.098 55.04,14.098 L54.88,14.098 L54.88,15.585 L55.04,15.585 Z" id="Fill-24" fill="#464C4D"></path>
        <path d="M59.091,16.172 L58.401,16.172 L58.401,13.512 L59.498,13.512 C59.809,13.512 59.992,13.572 60.163,13.735 C60.335,13.895 60.423,14.114 60.423,14.385 C60.423,14.975 60.111,15.286 59.521,15.286 L59.091,15.286 L59.091,16.172 Z M59.318,14.732 C59.585,14.732 59.701,14.629 59.701,14.393 C59.701,14.178 59.573,14.066 59.322,14.066 L59.091,14.066 L59.091,14.732 L59.318,14.732 Z" id="Fill-25" fill="#464C4D"></path>
        <path d="M63.685,14.848 C63.685,15.657 63.055,16.268 62.213,16.268 C61.372,16.268 60.742,15.657 60.742,14.848 C60.742,14.042 61.372,13.432 62.213,13.432 C63.055,13.432 63.685,14.038 63.685,14.848 M61.464,14.848 C61.464,15.263 61.799,15.597 62.213,15.597 C62.628,15.597 62.963,15.263 62.963,14.848 C62.963,14.437 62.628,14.102 62.213,14.102 C61.799,14.102 61.464,14.437 61.464,14.848" id="Fill-26" fill="#464C4D"></path>
        <polyline id="Fill-27" fill="#464C4D" points="64.051 13.512 64.741 13.512 66.013 15.139 66.013 13.512 66.703 13.512 66.703 16.172 66.013 16.172 64.741 14.545 64.741 16.172 64.051 16.172 64.051 13.512"></polyline>
        <polyline id="Fill-28" fill="#464C4D" points="68.261 16.172 67.571 16.172 67.571 14.098 67.009 14.098 67.009 13.512 68.836 13.512 68.836 14.098 68.261 14.098 68.261 16.172"></polyline>
        <polygon id="Fill-29" fill="#464C4D" points="69.138 16.172 69.828 16.172 69.828 13.512 69.138 13.512"></polygon>
        <polyline id="Fill-30" fill="#464C4D" points="71.077 14.098 71.077 14.54 71.834 14.54 71.834 15.126 71.077 15.126 71.077 16.171 70.386 16.171 70.386 13.512 71.909 13.512 71.909 14.098 71.077 14.098"></polyline>
        <polygon id="Fill-31" fill="#464C4D" points="72.392 16.172 73.082 16.172 73.082 13.512 72.392 13.512"></polygon>
        <path d="M75.482,14.417 C75.319,14.222 75.123,14.126 74.884,14.126 C74.469,14.126 74.17,14.433 74.17,14.86 C74.17,15.27 74.473,15.573 74.884,15.573 C75.111,15.573 75.303,15.486 75.482,15.294 L75.482,16.112 C75.159,16.219 75.052,16.243 74.872,16.243 C74.07,16.243 73.449,15.637 73.449,14.856 C73.449,14.078 74.074,13.456 74.857,13.456 C75.063,13.456 75.231,13.492 75.482,13.592 L75.482,14.417" id="Fill-32" fill="#464C4D"></path>
        <polygon id="Fill-33" fill="#464C4D" points="75.92 16.172 76.61 16.172 76.61 13.512 75.92 13.512"></polygon>
        <path d="M77.83,15.71 L77.647,16.172 L76.917,16.172 L77.938,13.512 L78.691,13.512 L79.692,16.172 L78.954,16.172 L78.783,15.71 L77.83,15.71 Z M78.313,14.333 L78.022,15.183 L78.596,15.183 L78.313,14.333 Z" id="Fill-34" fill="#464C4D"></path>
        <path d="M31.676,4.818 C31.18,4.292 30.428,3.976 29.664,3.976 C27.954,3.976 26.972,5.344 26.972,6.712 C26.972,8.048 27.99,9.385 29.652,9.385 C30.416,9.385 31.18,9.037 31.676,8.543 L31.676,10.384 C31.009,10.657 30.343,10.857 29.603,10.857 C27.032,10.857 25.129,8.932 25.129,6.743 C25.129,4.491 26.96,2.503 29.64,2.503 C30.355,2.503 31.058,2.672 31.676,2.966 L31.676,4.818" id="Fill-35" fill="#464C4D"></path>
        <path d="M32.936,6.618 C32.936,4.397 34.791,2.45 37.459,2.45 C40.125,2.45 41.981,4.397 41.981,6.618 C41.981,8.89 40.125,10.805 37.459,10.805 C34.791,10.805 32.936,8.89 32.936,6.618 M34.778,6.554 C34.778,7.753 35.942,9.279 37.459,9.279 C38.974,9.279 40.138,7.753 40.138,6.554 C40.138,5.27 39.022,3.976 37.459,3.976 C35.894,3.976 34.778,5.27 34.778,6.554" id="Fill-36" fill="#464C4D"></path>
        <polyline id="Fill-37" fill="#464C4D" points="50.374 5.775 50.35 5.775 48.276 10.805 47.658 10.805 45.657 5.775 45.633 5.775 44.821 10.7 43.026 10.7 44.566 2.555 45.827 2.555 48.082 7.785 50.241 2.555 51.527 2.555 52.896 10.7 51.102 10.7 50.374 5.775"></polyline>
        <polygon id="Fill-38" fill="#464C4D" points="54.7 10.7 56.483 10.7 56.483 2.555 54.7 2.555"></polygon>
        <polyline id="Fill-39" fill="#464C4D" points="60.354 9.353 62.876 9.353 62.876 10.7 58.571 10.7 58.571 2.556 60.354 2.556 60.354 9.353"></polyline>
        <polyline id="Fill-40" fill="#464C4D" points="66.03 9.353 68.553 9.353 68.553 10.7 64.248 10.7 64.248 2.556 66.03 2.556 66.03 9.353"></polyline>
        <path d="M72.357,9.027 L71.606,10.7 L69.726,10.7 L73.291,2.555 L74.673,2.555 L78.141,10.7 L76.238,10.7 L75.534,9.027 L72.357,9.027 Z M73.897,4.881 L73.873,4.881 L72.866,7.764 L75.037,7.764 L73.897,4.881 Z" id="Fill-41" fill="#464C4D"></path>
        <path d="M83.98,4.407 C83.625,4.008 83.169,3.755 82.548,3.755 C81.953,3.755 81.383,4.134 81.383,4.649 C81.383,5.986 85.17,5.428 85.17,8.09 C85.17,9.68 83.98,10.805 82.029,10.805 C80.713,10.805 79.75,10.174 79.091,9.259 L80.294,8.28 C80.548,8.89 81.219,9.437 82.017,9.437 C82.777,9.437 83.245,8.9 83.245,8.29 C83.245,7.47 82.334,7.237 81.586,6.996 C80.358,6.575 79.459,6.059 79.459,4.828 C79.459,3.514 80.637,2.45 82.245,2.45 C83.093,2.45 84.271,2.798 84.853,3.335 L83.98,4.407" id="Fill-42" fill="#464C4D"></path>
        <polygon id="Fill-43" fill="#234174" points="25.132 22.676 45.146 22.676 45.146 18.934 25.132 18.934"></polygon>
        <polygon id="Fill-44" fill="#5B98C5" points="65.16 22.676 85.174 22.676 85.174 18.934 65.16 18.934"></polygon>
        <polygon id="Fill-45" fill="#FFFFFE" points="32.301 21.664 32.747 21.664 32.747 19.943 32.301 19.943"></polygon>
        <path d="M34.556,20.528 C34.451,20.402 34.324,20.339 34.169,20.339 C33.901,20.339 33.708,20.539 33.708,20.815 C33.708,21.08 33.903,21.276 34.169,21.276 C34.316,21.276 34.44,21.22 34.556,21.095 L34.556,21.625 C34.347,21.695 34.278,21.71 34.162,21.71 C33.643,21.71 33.241,21.318 33.241,20.812 C33.241,20.308 33.646,19.906 34.151,19.906 C34.286,19.906 34.394,19.93 34.556,19.994 L34.556,20.528" id="Fill-46" fill="#FFFFFE"></path>
        <path d="M35.695,21.364 L35.576,21.663 L35.103,21.663 L35.764,19.942 L36.252,19.942 L36.9,21.663 L36.423,21.663 L36.311,21.364 L35.695,21.364 Z M36.007,20.474 L35.818,21.024 L36.191,21.024 L36.007,20.474 Z" id="Fill-47" fill="#FFFFFE"></path>
        <polygon id="Fill-48" fill="#FFFFFE" points="37.53 21.664 37.977 21.664 37.977 19.943 37.53 19.943"></polygon>
        <path d="M73.377,20.522 C73.271,20.396 73.145,20.334 72.99,20.334 C72.722,20.334 72.528,20.532 72.528,20.809 C72.528,21.074 72.724,21.27 72.99,21.27 C73.137,21.27 73.262,21.214 73.377,21.089 L73.377,21.619 C73.168,21.688 73.099,21.703 72.982,21.703 C72.464,21.703 72.062,21.312 72.062,20.806 C72.062,20.302 72.467,19.899 72.972,19.899 C73.106,19.899 73.215,19.923 73.377,19.988 L73.377,20.522" id="Fill-49" fill="#FFFFFE"></path>
        <polygon id="Fill-50" fill="#FFFFFE" points="73.969 21.665 74.415 21.665 74.415 19.944 73.969 19.944"></polygon>
        <polyline id="Fill-51" fill="#FFFFFE" points="76.032 20.611 76.032 19.945 76.479 19.945 76.479 21.666 76.032 21.666 76.032 20.959 75.385 20.959 75.385 21.666 74.938 21.666 74.938 19.945 75.385 19.945 75.385 20.611 76.032 20.611"></polyline>
        <path d="M78.024,20.391 C77.923,20.311 77.833,20.275 77.73,20.275 C77.624,20.275 77.538,20.34 77.538,20.422 C77.538,20.477 77.577,20.52 77.655,20.556 C77.678,20.567 77.696,20.572 77.848,20.618 C78.147,20.706 78.272,20.848 78.272,21.095 C78.272,21.483 78.024,21.71 77.6,21.71 C77.392,21.71 77.183,21.642 77.002,21.516 L77.192,21.155 C77.329,21.274 77.456,21.331 77.588,21.331 C77.719,21.331 77.804,21.264 77.804,21.162 C77.804,21.07 77.745,21.026 77.536,20.964 C77.34,20.907 77.265,20.874 77.2,20.82 C77.115,20.745 77.071,20.634 77.071,20.484 C77.071,20.139 77.309,19.904 77.658,19.904 C77.837,19.904 78.029,19.952 78.202,20.043 L78.024,20.391" id="Fill-52" fill="#FFFFFE"></path>
        <polygon id="Fill-53" fill="#AD2446" points="45.142 22.676 65.156 22.676 65.156 18.934 45.142 18.934"></polygon>
        <polygon id="Fill-54" fill="#FFFFFE" points="51.159 21.664 51.606 21.664 51.606 19.943 51.159 19.943"></polygon>
        <path d="M53.415,20.528 C53.309,20.402 53.183,20.339 53.027,20.339 C52.759,20.339 52.566,20.539 52.566,20.815 C52.566,21.08 52.762,21.276 53.027,21.276 C53.175,21.276 53.298,21.22 53.415,21.095 L53.415,21.625 C53.205,21.695 53.136,21.71 53.019,21.71 C52.501,21.71 52.099,21.318 52.099,20.812 C52.099,20.308 52.504,19.906 53.01,19.906 C53.144,19.906 53.252,19.93 53.415,19.994 L53.415,20.528" id="Fill-55" fill="#FFFFFE"></path>
        <path d="M54.553,21.364 L54.435,21.663 L53.963,21.663 L54.623,19.942 L55.111,19.942 L55.758,21.663 L55.281,21.663 L55.17,21.364 L54.553,21.364 Z M54.865,20.474 L54.676,21.024 L55.049,21.024 L54.865,20.474 Z" id="Fill-56" fill="#FFFFFE"></path>
        <path d="M56.2,19.942 L56.861,19.942 C57.315,19.942 57.708,20.34 57.708,20.802 C57.708,21.266 57.315,21.664 56.861,21.664 L56.2,21.664 L56.2,19.942 Z M56.75,21.284 C57.046,21.284 57.24,21.094 57.24,20.802 C57.24,20.513 57.046,20.321 56.75,20.321 L56.647,20.321 L56.647,21.284 L56.75,21.284 Z" id="Fill-57" fill="#FFFFFE"></path>
        <polyline id="Fill-58" fill="#FFFFFE" points="58.609 20.322 58.609 20.608 59.111 20.608 59.111 20.988 58.609 20.988 58.609 21.284 59.14 21.284 59.14 21.664 58.162 21.664 58.162 19.942 59.14 19.942 59.14 20.322 58.609 20.322"></polyline>
    </g>
</svg>