<svg xmlns="http://www.w3.org/2000/svg" xmlns:xlink="http://www.w3.org/1999/xlink" width="351" height="198" xmlns:v="https://vecta.io/nano"><defs><linearGradient x1="0.0519497931%" y1="49.9841488%" x2="100.037985%" y2="49.9841488%" id="A"><stop stop-color="#ff4e00" offset="0%"/><stop stop-color="#ff5200" offset="2%"/><stop stop-color="#ff8104" offset="25%"/><stop stop-color="#ffa608" offset="47%"/><stop stop-color="#ffc00a" offset="68%"/><stop stop-color="#ffd00c" offset="86%"/><stop stop-color="#ffd60c" offset="100%"/></linearGradient><path d="M1.53 69.45L12.86 56a11.34 11.34 0 0 0 0-14.62L0 26.17 19.32.37l.12.12 34.1 36.7a17.9 17.9 0 0 1 0 23.06L41.15 75l-18.9 20a1.53 1.53 0 0 0 .06-.67 1.8 1.8 0 0 0-.25-.5L1.53 69.45z" id="B"/><linearGradient x1="-0.000681186614%" y1="49.9735701%" x2="100%" y2="49.9735701%" id="C"><stop stop-color="#ff4e00" offset="0%"/><stop stop-color="#ff5200" offset="2%"/><stop stop-color="#ff8104" offset="25%"/><stop stop-color="#ffa608" offset="47%"/><stop stop-color="#ffc00a" offset="68%"/><stop stop-color="#ffd00c" offset="86%"/><stop stop-color="#ffd60c" offset="100%"/></linearGradient><path d="M15.32 75l-10-11.87c-7-8.31-7-20.45 0-28.76L34.32.5 56.4 26.2l-15.6 18a6.3 6.3 0 0 0 0 8.09l14.14 17.18-21.2 25.62L15.32 75z" id="D"/><linearGradient x1="0%" y1="50%" x2="100.007928%" y2="50%" id="E"><stop stop-color="#ff4e00" offset="0%"/><stop stop-color="#ff5200" offset="2%"/><stop stop-color="#ff8104" offset="25%"/><stop stop-color="#ffa608" offset="47%"/><stop stop-color="#ffc00a" offset="68%"/><stop stop-color="#ffd00c" offset="86%"/><stop stop-color="#ffd60c" offset="100%"/></linearGradient><linearGradient x1="17.7346699%" y1="30.4011188%" x2="56.5426997%" y2="54.0430343%" id="F"><stop stop-color="#ff5d2f" offset="0%"/><stop stop-color="#ff632d" offset="15%"/><stop stop-color="#ff7528" offset="35%"/><stop stop-color="#ff9220" offset="59%"/><stop stop-color="#ffbb14" offset="85%"/><stop stop-color="#ffd60c" offset="100%"/></linearGradient><path d="M118.13.93A1.86 1.86 0 0 1 120 2.79a1.89 1.89 0 0 1-.44 1.2L100 27.18 82.5 47.9 60.42 74.2 43.3 94.5a6.2 6.2 0 0 1-4.74 2.21H2a1.58 1.58 0 0 1-1.24-2.57l18.54-23.7 18.15-21.5a1.57 1.57 0 0 0 0-2L1.25 4a1.86 1.86 0 0 1 .2-2.62A1.9 1.9 0 0 1 2.68.93H41a4.35 4.35 0 0 1 3.31 1.52l15 17.77a1.55 1.55 0 0 0 2.17.2l.2-.2 15-17.77A4.34 4.34 0 0 1 80 .9l38.13.03z" id="G"/><linearGradient x1="52.7498604%" y1="53.0734748%" x2="41.5619765%" y2="45.2776991%" id="H"><stop stop-color="#ff8900" offset="0%"/><stop stop-color="#ff8300" offset="24%"/><stop stop-color="#ff7100" offset="57%"/><stop stop-color="#ff5400" offset="95%"/><stop stop-color="#ff5000" offset="100%"/></linearGradient></defs><g fill="none" fill-rule="evenodd"><g fill-rule="nonzero"><path d="M69.83 113.37L42.28 178.1c-2.787 7.033-6.243 12-10.37 14.9A25.47 25.47 0 0 1 17 197.26a31 31 0 0 1-9.41-1.48A20.69 20.69 0 0 1 0 191.7l6.46-12.58a15.17 15.17 0 0 0 4.71 2.88 14.63 14.63 0 0 0 5.27 1 9.34 9.34 0 0 0 5.89-1.75 14.94 14.94 0 0 0 4.08-5.84l.23-.57-26.4-61.5h18.25l17.12 41.38 17.23-41.38 17 .02zm7.25 0h17.7v61h-17.7v-61zm89.5 5.9c4.667 4.527 7 11.253 7 20.18v34.9h-17.72v-32.2c0-4.84-1.057-8.45-3.17-10.83s-5.173-3.57-9.18-3.57c-4.46 0-8.013 1.38-10.66 4.14s-3.98 6.86-4 12.3v30.15H111.2v-61h16.9v7.15a23.27 23.27 0 0 1 8.73-5.95 30.31 30.31 0 0 1 11.45-2.1c7.547 0 13.65 2.27 18.3 6.8h0zm23-5.9h17.68v61h-17.73l.05-61zm95.56 0v61H268.3v-7.26a23.5 23.5 0 0 1-8.39 6.07 26.31 26.31 0 0 1-10.54 2.1c-8 0-14.333-2.307-19-6.92s-7-11.453-7-20.52v-34.47h17.68v31.86c0 9.82 4.12 14.73 12.36 14.73a13.27 13.27 0 0 0 10.2-4.13c2.573-2.76 3.857-6.86 3.85-12.3v-30.16h17.67zm22.1 60a39 39 0 0 1-11.56-4.68l5.9-12.7a37 37 0 0 0 9.86 4.25 41.59 41.59 0 0 0 11.25 1.64c7.48 0 11.22-1.85 11.22-5.55 0-1.74-1.02-2.987-3.06-3.74a45.07 45.07 0 0 0-9.41-1.93 91.29 91.29 0 0 1-12.35-2.61 19.16 19.16 0 0 1-8.4-5.21c-2.38-2.5-3.57-6.053-3.57-10.66a16.69 16.69 0 0 1 3.35-10.26 21.47 21.47 0 0 1 9.74-7 41.94 41.94 0 0 1 15.13-2.48 59.75 59.75 0 0 1 12.86 1.41 35.82 35.82 0 0 1 10.6 3.92l-5.9 12.58a35.22 35.22 0 0 0-17.57-4.54c-3.78 0-6.617.53-8.5 1.6s-2.84 2.42-2.83 4.08c0 1.887 1.02 3.22 3.06 4a55.11 55.11 0 0 0 9.75 2.15 104.27 104.27 0 0 1 12.2 2.67 18.43 18.43 0 0 1 8.28 5.15c2.34 2.5 3.5 5.977 3.5 10.43a16.09 16.09 0 0 1-3.4 10.09 21.64 21.64 0 0 1-9.92 6.86 44.24 44.24 0 0 1-15.47 2.44 59.45 59.45 0 0 1-14.85-1.83l.1-.08z" fill="#272244"/><path d="M214.53 70.45L225.86 57a11.34 11.34 0 0 0 0-14.62L213 27.17l19.32-25.8.12.12 34.1 36.7a17.9 17.9 0 0 1 0 23.06L254.15 76l-18.9 20a1.53 1.53 0 0 0 .06-.67 1.8 1.8 0 0 0-.25-.5l-20.53-24.38z" fill="url(#A)" opacity=".7"/></g><g transform="translate(213 1)"><mask id="I" fill="#fff"><use xlink:href="#B"/></mask><path stroke="#fff" stroke-width=".55" opacity=".5" mask="url(#I)" d="M13.83 48.08h44.25"/></g><path d="M95.32 76l-10-11.87c-7-8.31-7-20.45 0-28.76l29-33.87 22.08 25.7-15.6 18a6.3 6.3 0 0 0 0 8.09l14.14 17.18-21.2 25.62L95.32 76z" fill="url(#C)" fill-rule="nonzero" opacity=".7"/><g transform="translate(80 1)"><mask id="J" fill="#fff"><use xlink:href="#D"/></mask><path stroke="#fff" stroke-width=".55" opacity=".3" mask="url(#J)" d="M-2.45 47.82H41.8"/></g><g fill-rule="nonzero"><path d="M234.18 96.7h-38.93a6.22 6.22 0 0 1-4.75-2.21l-17.04-20.22v-.08l13.22-15.68 8.9-10.6 6.12 7.26 12.82 15.28 20.53 24.35a1.16 1.16 0 0 1-.88 1.91l.01-.01z" fill="url(#E)" opacity=".7"/><path fill="#000" opacity=".47" d="M201.66 55.17L179.62 81.6l-6.16-7.3 13.16-15.76 8.92-10.6 6.12 7.26z"/><path d="M231.13.93A1.86 1.86 0 0 1 233 2.79a1.89 1.89 0 0 1-.44 1.2L213 27.18 195.5 47.9l-22.08 26.3-17.13 20.3a6.2 6.2 0 0 1-4.74 2.21H115a1.58 1.58 0 0 1-1.24-2.57l18.54-23.7 18.15-21.5a1.57 1.57 0 0 0 0-2L114.25 4a1.86 1.86 0 0 1 .2-2.62 1.9 1.9 0 0 1 1.23-.45H154a4.35 4.35 0 0 1 3.31 1.52l15 17.77a1.55 1.55 0 0 0 2.17.2l.2-.2 15-17.77A4.34 4.34 0 0 1 193 .9l38.13.03z" fill="url(#F)"/></g><g transform="translate(113)"><mask id="K" fill="#fff"><use xlink:href="#G"/></mask><path d="M23.3 102.76L132.16-28.37l34.42 9.72S71.88 109.83 69 109s-45.7-6.24-45.7-6.24z" stroke="#f6df47" stroke-width="1.1" fill="url(#H)" fill-rule="nonzero" mask="url(#K)"/></g></g></svg>