<?xml version="1.0" encoding="UTF-8"?>
<svg width="776px" height="198px" viewBox="0 0 776 198" version="1.1" xmlns="http://www.w3.org/2000/svg" xmlns:xlink="http://www.w3.org/1999/xlink">
    <title>logo_tagline_horizontal_white</title>
    <defs>
        <linearGradient x1="0.0519497931%" y1="49.9841488%" x2="100.037985%" y2="49.9841488%" id="linearGradient-1">
            <stop stop-color="#FF4E00" offset="0%"></stop>
            <stop stop-color="#FF5200" offset="2%"></stop>
            <stop stop-color="#FF8104" offset="25%"></stop>
            <stop stop-color="#FFA608" offset="47%"></stop>
            <stop stop-color="#FFC00A" offset="68%"></stop>
            <stop stop-color="#FFD00C" offset="86%"></stop>
            <stop stop-color="#FFD60C" offset="100%"></stop>
        </linearGradient>
        <path d="M1.53,69.45 L12.86,56 C16.4207228,51.7770812 16.4207228,45.6029188 12.86,41.38 L0,26.17 L19.32,0.37 L19.44,0.49 L53.54,37.19 C59.1507526,43.8527981 59.1507526,53.5872019 53.54,60.25 L41.15,75 L22.25,95 C22.3194557,94.7838831 22.339951,94.555019 22.31,94.33 C22.2532135,94.1513312 22.1688632,93.9826305 22.06,93.83 L1.53,69.45 Z" id="path-2"></path>
        <linearGradient x1="-0.000681186614%" y1="49.9735701%" x2="100%" y2="49.9735701%" id="linearGradient-4">
            <stop stop-color="#FF4E00" offset="0%"></stop>
            <stop stop-color="#FF5200" offset="2%"></stop>
            <stop stop-color="#FF8104" offset="25%"></stop>
            <stop stop-color="#FFA608" offset="47%"></stop>
            <stop stop-color="#FFC00A" offset="68%"></stop>
            <stop stop-color="#FFD00C" offset="86%"></stop>
            <stop stop-color="#FFD60C" offset="100%"></stop>
        </linearGradient>
        <path d="M15.32,75 L5.32,63.13 C-1.68,54.82 -1.68,42.68 5.32,34.37 L34.32,0.5 L56.4,26.2 L40.8,44.2 C38.8398723,46.5404769 38.8398723,49.9495231 40.8,52.29 L54.94,69.47 L33.74,95.09 L15.32,75 Z" id="path-5"></path>
        <linearGradient x1="0%" y1="50%" x2="100.007928%" y2="50%" id="linearGradient-7">
            <stop stop-color="#FF4E00" offset="0%"></stop>
            <stop stop-color="#FF5200" offset="2%"></stop>
            <stop stop-color="#FF8104" offset="25%"></stop>
            <stop stop-color="#FFA608" offset="47%"></stop>
            <stop stop-color="#FFC00A" offset="68%"></stop>
            <stop stop-color="#FFD00C" offset="86%"></stop>
            <stop stop-color="#FFD60C" offset="100%"></stop>
        </linearGradient>
        <linearGradient x1="17.7346699%" y1="30.4011188%" x2="56.5426997%" y2="54.0430343%" id="linearGradient-8">
            <stop stop-color="#FF5D2F" offset="0%"></stop>
            <stop stop-color="#FF632D" offset="15%"></stop>
            <stop stop-color="#FF7528" offset="35%"></stop>
            <stop stop-color="#FF9220" offset="59%"></stop>
            <stop stop-color="#FFBB14" offset="85%"></stop>
            <stop stop-color="#FFD60C" offset="100%"></stop>
        </linearGradient>
        <path d="M118.13,0.93 C118.625033,0.927338494 119.100704,1.12212664 119.451688,1.47123319 C119.802671,1.82033974 120,2.29495982 120,2.79 C119.997139,3.22895948 119.841571,3.65323431 119.56,3.99 L100,27.18 L82.5,47.9 L60.42,74.2 L43.3,94.5 C42.1232118,95.8996166 40.3885935,96.7083732 38.56,96.7100237 L2,96.7100237 C1.39039358,96.7133327 0.833251587,96.3656654 0.568341298,95.8166174 C0.303431009,95.2675695 0.378016601,94.6150998 0.76,94.14 L19.3,70.44 L37.45,48.94 C37.9295593,48.3595748 37.9295593,47.5204252 37.45,46.94 L1.25,4 C0.582864049,3.2209092 0.672337967,2.04880088 1.45,1.38 C1.79370766,1.08896127 2.22962435,0.929479558 2.68,0.93 L41,0.93 C42.2725512,0.928121269 43.4821109,1.48356861 44.31,2.45 L59.31,20.22 C59.8564942,20.8697041 60.8239597,20.9588714 61.48,20.42 L61.68,20.22 L76.68,2.45 C77.5036306,1.46861487 78.7187965,0.901293455 80,0.9 L118.13,0.93 Z" id="path-9"></path>
        <linearGradient x1="52.7498604%" y1="53.0734748%" x2="41.5619765%" y2="45.2776991%" id="linearGradient-11">
            <stop stop-color="#FF8900" offset="0%"></stop>
            <stop stop-color="#FF8300" offset="24%"></stop>
            <stop stop-color="#FF7100" offset="57%"></stop>
            <stop stop-color="#FF5400" offset="95%"></stop>
            <stop stop-color="#FF5000" offset="100%"></stop>
        </linearGradient>
    </defs>
    <g id="Page-1" stroke="none" stroke-width="1" fill="none" fill-rule="evenodd">
        <g id="Yinius" transform="translate(-3517.000000, -908.000000)">
            <g id="Final-logos-tagline" transform="translate(2438.000000, 351.000000)">
                <g id="logo_tagline_horizontal_white" transform="translate(1079.000000, 557.000000)">
                    <g id="slogan" transform="translate(382.000000, 82.000000)" fill-rule="nonzero">
                        <g id="Group-2" transform="translate(0.000000, 49.000000)">
                            <rect id="Rectangle" fill="#FFFFFF" x="0" y="0" width="327" height="44" rx="8"></rect>
                            <path d="M19.105,32 L19.105,26.345 L23.426,26.345 L27.341,32 L32.387,32 L27.834,25.475 C29.168,24.895 30.1975,24.0588333 30.9225,22.9665 C31.6475,21.8741667 32.01,20.574 32.01,19.066 C32.01,17.558 31.6523333,16.253 30.937,15.151 C30.2216667,14.049 29.2018333,13.1983333 27.8775,12.599 C26.5531667,11.9996667 24.992,11.7 23.194,11.7 L23.194,11.7 L14.407,11.7 L14.407,32 L19.105,32 Z M22.933,22.604 L19.105,22.604 L19.105,15.528 L22.933,15.528 C24.3443333,15.528 25.4173333,15.8325 26.152,16.4415 C26.8866667,17.0505 27.254,17.9253333 27.254,19.066 C27.254,20.1873333 26.8866667,21.0573333 26.152,21.676 C25.4173333,22.2946667 24.3443333,22.604 22.933,22.604 L22.933,22.604 Z M51.44,32 L51.44,28.23 L40.391,28.23 L40.391,23.532 L49.816,23.532 L49.816,19.878 L40.391,19.878 L40.391,15.47 L51.063,15.47 L51.063,11.7 L35.722,11.7 L35.722,32 L51.44,32 Z M61.851,32.348 C63.707,32.348 65.2826667,32.0676667 66.578,31.507 C67.8733333,30.9463333 68.8448333,30.1875 69.4925,29.2305 C70.1401667,28.2735 70.464,27.215 70.464,26.055 C70.464,24.7016667 70.1111667,23.6286667 69.4055,22.836 C68.6998333,22.0433333 67.854,21.4633333 66.868,21.096 C65.882,20.7286667 64.6156667,20.3613333 63.069,19.994 C61.5803333,19.6653333 60.4735,19.3318333 59.7485,18.9935 C59.0235,18.6551667 58.661,18.138 58.661,17.442 C58.661,16.746 58.9751667,16.1853333 59.6035,15.76 C60.2318333,15.3346667 61.2033333,15.122 62.518,15.122 C64.3933333,15.122 66.2686667,15.6536667 68.144,16.717 L68.144,16.717 L69.594,13.15 C68.666,12.57 67.5833333,12.1253333 66.346,11.816 C65.1086667,11.5066667 63.8423333,11.352 62.547,11.352 C60.691,11.352 59.1201667,11.6323333 57.8345,12.193 C56.5488333,12.7536667 55.587,13.5125 54.949,14.4695 C54.311,15.4265 53.992,16.4946667 53.992,17.674 C53.992,19.0273333 54.3448333,20.11 55.0505,20.922 C55.7561667,21.734 56.602,22.3236667 57.588,22.691 C58.574,23.0583333 59.8403333,23.4256667 61.387,23.793 C62.3923333,24.025 63.1898333,24.2376667 63.7795,24.431 C64.3691667,24.6243333 64.8525,24.8805 65.2295,25.1995 C65.6065,25.5185 65.795,25.9196667 65.795,26.403 C65.795,27.0603333 65.476,27.5871667 64.838,27.9835 C64.2,28.3798333 63.214,28.578 61.88,28.578 C60.6813333,28.578 59.4826667,28.3846667 58.284,27.998 C57.0853333,27.6113333 56.051,27.099 55.181,26.461 L55.181,26.461 L53.586,29.999 C54.4946667,30.695 55.6981667,31.2605 57.1965,31.6955 C58.6948333,32.1305 60.2463333,32.348 61.851,32.348 Z M89.401,32 L89.401,28.23 L78.352,28.23 L78.352,23.532 L87.777,23.532 L87.777,19.878 L78.352,19.878 L78.352,15.47 L89.024,15.47 L89.024,11.7 L73.683,11.7 L73.683,32 L89.401,32 Z M97.84,32 L97.84,26.345 L102.161,26.345 L106.076,32 L111.122,32 L106.569,25.475 C107.903,24.895 108.9325,24.0588333 109.6575,22.9665 C110.3825,21.8741667 110.745,20.574 110.745,19.066 C110.745,17.558 110.387333,16.253 109.672,15.151 C108.956667,14.049 107.936833,13.1983333 106.6125,12.599 C105.288167,11.9996667 103.727,11.7 101.929,11.7 L101.929,11.7 L93.142,11.7 L93.142,32 L97.84,32 Z M101.668,22.604 L97.84,22.604 L97.84,15.528 L101.668,15.528 C103.079333,15.528 104.152333,15.8325 104.887,16.4415 C105.621667,17.0505 105.989,17.9253333 105.989,19.066 C105.989,20.1873333 105.621667,21.0573333 104.887,21.676 C104.152333,22.2946667 103.079333,22.604 101.668,22.604 L101.668,22.604 Z M125.187,32 L133.974,11.7 L129.305,11.7 L123.041,26.2 L116.864,11.7 L111.789,11.7 L120.547,32 L125.187,32 Z M137.135,32 L138.933,27.65 L148.358,27.65 L150.156,32 L155.086,32 L146.009,11.7 L141.369,11.7 L132.321,32 L137.135,32 Z M146.879,24.083 L140.441,24.083 L143.66,16.311 L146.879,24.083 Z M174.313,32 L174.313,15.528 L180.809,15.528 L180.809,11.7 L163.119,11.7 L163.119,15.528 L169.615,15.528 L169.615,32 L174.313,32 Z M192.003,32.348 C194.903,32.348 197.160167,31.5456667 198.7745,29.941 C200.388833,28.3363333 201.196,26.0453333 201.196,23.068 L201.196,23.068 L201.196,11.7 L196.556,11.7 L196.556,22.894 C196.556,24.7693333 196.169333,26.1468333 195.396,27.0265 C194.622667,27.9061667 193.501333,28.346 192.032,28.346 C189.016,28.346 187.508,26.5286667 187.508,22.894 L187.508,22.894 L187.508,11.7 L182.81,11.7 L182.81,23.068 C182.81,26.0453333 183.617167,28.3363333 185.2315,29.941 C186.845833,31.5456667 189.103,32.348 192.003,32.348 Z M218.741,32 L218.741,26.403 L222.83,26.403 C224.628,26.403 226.189167,26.1081667 227.5135,25.5185 C228.837833,24.9288333 229.857667,24.0781667 230.573,22.9665 C231.288333,21.8548333 231.646,20.5546667 231.646,19.066 C231.646,17.558 231.288333,16.253 230.573,15.151 C229.857667,14.049 228.837833,13.1983333 227.5135,12.599 C226.189167,11.9996667 224.628,11.7 222.83,11.7 L222.83,11.7 L214.043,11.7 L214.043,32 L218.741,32 Z M222.569,22.575 L218.741,22.575 L218.741,15.528 L222.569,15.528 C223.980333,15.528 225.053333,15.8325 225.788,16.4415 C226.522667,17.0505 226.89,17.9253333 226.89,19.066 C226.89,20.1873333 226.522667,21.0525 225.788,21.6615 C225.053333,22.2705 223.980333,22.575 222.569,22.575 L222.569,22.575 Z M249.858,32 L249.858,28.172 L239.679,28.172 L239.679,11.7 L234.981,11.7 L234.981,32 L249.858,32 Z M254.817,32 L256.615,27.65 L266.04,27.65 L267.838,32 L272.768,32 L263.691,11.7 L259.051,11.7 L250.003,32 L254.817,32 Z M264.561,24.083 L258.123,24.083 L261.342,16.311 L264.561,24.083 Z M291.328,32 L291.328,28.172 L279.786,28.172 L290.893,14.745 L290.893,11.7 L273.812,11.7 L273.812,15.528 L284.716,15.528 L273.58,28.955 L273.58,32 L291.328,32 Z M296.49,32 L298.288,27.65 L307.713,27.65 L309.511,32 L314.441,32 L305.364,11.7 L300.724,11.7 L291.676,32 L296.49,32 Z M306.234,24.083 L299.796,24.083 L303.015,16.311 L306.234,24.083 Z" id="RESERVATUPLAZA" fill="#272244"></path>
                        </g>
                        <path d="M20,31 L20,26.84 L7.808,26.84 L7.808,21.656 L18.208,21.656 L18.208,17.624 L7.808,17.624 L7.808,12.76 L19.584,12.76 L19.584,8.6 L2.656,8.6 L2.656,31 L20,31 Z M29.248,31 L29.248,17.4 L40.416,31 L44.672,31 L44.672,8.6 L39.552,8.6 L39.552,22.2 L28.416,8.6 L24.128,8.6 L24.128,31 L29.248,31 Z M60.704,31.384 C62.6453333,31.384 64.4053333,31.0426667 65.984,30.36 C67.5626667,29.6773333 68.8853333,28.6853333 69.952,27.384 L69.952,27.384 L66.624,24.312 C65.1093333,26.0826667 63.232,26.968 60.992,26.968 C59.6053333,26.968 58.368,26.664 57.28,26.056 C56.192,25.448 55.344,24.6 54.736,23.512 C54.128,22.424 53.824,21.1866667 53.824,19.8 C53.824,18.4133333 54.128,17.176 54.736,16.088 C55.344,15 56.192,14.152 57.28,13.544 C58.368,12.936 59.6053333,12.632 60.992,12.632 C63.232,12.632 65.1093333,13.5066667 66.624,15.256 L66.624,15.256 L69.952,12.184 C68.8853333,10.904 67.568,9.92266667 66,9.24 C64.432,8.55733333 62.6773333,8.216 60.736,8.216 C58.432,8.216 56.3573333,8.712 54.512,9.704 C52.6666667,10.696 51.216,12.072 50.16,13.832 C49.104,15.592 48.576,17.5813333 48.576,19.8 C48.576,22.0186667 49.104,24.008 50.16,25.768 C51.216,27.528 52.6666667,28.904 54.512,29.896 C56.3573333,30.888 58.4213333,31.384 60.704,31.384 Z M83.2,31.384 C86.4,31.384 88.8906667,30.4986667 90.672,28.728 C92.4533333,26.9573333 93.344,24.4293333 93.344,21.144 L93.344,21.144 L93.344,8.6 L88.224,8.6 L88.224,20.952 C88.224,23.0213333 87.7973333,24.5413333 86.944,25.512 C86.0906667,26.4826667 84.8533333,26.968 83.232,26.968 C79.904,26.968 78.24,24.9626667 78.24,20.952 L78.24,20.952 L78.24,8.6 L73.056,8.6 L73.056,21.144 C73.056,24.4293333 73.9466667,26.9573333 75.728,28.728 C77.5093333,30.4986667 80,31.384 83.2,31.384 Z M115.808,31 L115.808,26.84 L103.616,26.84 L103.616,21.656 L114.016,21.656 L114.016,17.624 L103.616,17.624 L103.616,12.76 L115.392,12.76 L115.392,8.6 L98.464,8.6 L98.464,31 L115.808,31 Z M125.056,31 L125.056,17.4 L136.224,31 L140.48,31 L140.48,8.6 L135.36,8.6 L135.36,22.2 L124.224,8.6 L119.936,8.6 L119.936,31 L125.056,31 Z M155.616,31 L155.616,12.824 L162.784,12.824 L162.784,8.6 L143.264,8.6 L143.264,12.824 L150.432,12.824 L150.432,31 L155.616,31 Z M170.752,31 L170.752,24.76 L175.52,24.76 L179.84,31 L185.408,31 L180.384,23.8 C181.856,23.16 182.992,22.2373333 183.792,21.032 C184.592,19.8266667 184.992,18.392 184.992,16.728 C184.992,15.064 184.597333,13.624 183.808,12.408 C183.018667,11.192 181.893333,10.2533333 180.432,9.592 C178.970667,8.93066667 177.248,8.6 175.264,8.6 L175.264,8.6 L165.568,8.6 L165.568,31 L170.752,31 Z M174.976,20.632 L170.752,20.632 L170.752,12.824 L174.976,12.824 C176.533333,12.824 177.717333,13.16 178.528,13.832 C179.338667,14.504 179.744,15.4693333 179.744,16.728 C179.744,17.9653333 179.338667,18.9253333 178.528,19.608 C177.717333,20.2906667 176.533333,20.632 174.976,20.632 L174.976,20.632 Z M191.456,31 L193.44,26.2 L203.84,26.2 L205.824,31 L211.264,31 L201.248,8.6 L196.128,8.6 L186.144,31 L191.456,31 Z M202.208,22.264 L195.104,22.264 L198.656,13.688 L202.208,22.264 Z M232.48,31 L232.48,12.824 L239.648,12.824 L239.648,8.6 L220.128,8.6 L220.128,12.824 L227.296,12.824 L227.296,31 L232.48,31 Z M252,31.384 C255.2,31.384 257.690667,30.4986667 259.472,28.728 C261.253333,26.9573333 262.144,24.4293333 262.144,21.144 L262.144,21.144 L262.144,8.6 L257.024,8.6 L257.024,20.952 C257.024,23.0213333 256.597333,24.5413333 255.744,25.512 C254.890667,26.4826667 253.653333,26.968 252.032,26.968 C248.704,26.968 247.04,24.9626667 247.04,20.952 L247.04,20.952 L247.04,8.6 L241.856,8.6 L241.856,21.144 C241.856,24.4293333 242.746667,26.9573333 244.528,28.728 C246.309333,30.4986667 248.8,31.384 252,31.384 Z M287.04,31.384 C288.981333,31.384 290.741333,31.0426667 292.32,30.36 C293.898667,29.6773333 295.221333,28.6853333 296.288,27.384 L296.288,27.384 L292.96,24.312 C291.445333,26.0826667 289.568,26.968 287.328,26.968 C285.941333,26.968 284.704,26.664 283.616,26.056 C282.528,25.448 281.68,24.6 281.072,23.512 C280.464,22.424 280.16,21.1866667 280.16,19.8 C280.16,18.4133333 280.464,17.176 281.072,16.088 C281.68,15 282.528,14.152 283.616,13.544 C284.704,12.936 285.941333,12.632 287.328,12.632 C289.568,12.632 291.445333,13.5066667 292.96,15.256 L292.96,15.256 L296.288,12.184 C295.221333,10.904 293.904,9.92266667 292.336,9.24 C290.768,8.55733333 289.013333,8.216 287.072,8.216 C284.768,8.216 282.693333,8.712 280.848,9.704 C279.002667,10.696 277.552,12.072 276.496,13.832 C275.44,15.592 274.912,17.5813333 274.912,19.8 C274.912,22.0186667 275.44,24.008 276.496,25.768 C277.552,27.528 279.002667,28.904 280.848,29.896 C282.693333,30.888 284.757333,31.384 287.04,31.384 Z M309.536,31.384 C312.736,31.384 315.226667,30.4986667 317.008,28.728 C318.789333,26.9573333 319.68,24.4293333 319.68,21.144 L319.68,21.144 L319.68,8.6 L314.56,8.6 L314.56,20.952 C314.56,23.0213333 314.133333,24.5413333 313.28,25.512 C312.426667,26.4826667 311.189333,26.968 309.568,26.968 C306.24,26.968 304.576,24.9626667 304.576,20.952 L304.576,20.952 L304.576,8.6 L299.392,8.6 L299.392,21.144 C299.392,24.4293333 300.282667,26.9573333 302.064,28.728 C303.845333,30.4986667 306.336,31.384 309.536,31.384 Z M329.984,31 L329.984,24.76 L334.752,24.76 L339.072,31 L344.64,31 L339.616,23.8 C341.088,23.16 342.224,22.2373333 343.024,21.032 C343.824,19.8266667 344.224,18.392 344.224,16.728 C344.224,15.064 343.829333,13.624 343.04,12.408 C342.250667,11.192 341.125333,10.2533333 339.664,9.592 C338.202667,8.93066667 336.48,8.6 334.496,8.6 L334.496,8.6 L324.8,8.6 L324.8,31 L329.984,31 Z M334.208,20.632 L329.984,20.632 L329.984,12.824 L334.208,12.824 C335.765333,12.824 336.949333,13.16 337.76,13.832 C338.570667,14.504 338.976,15.4693333 338.976,16.728 C338.976,17.9653333 338.570667,18.9253333 337.76,19.608 C336.949333,20.2906667 335.765333,20.632 334.208,20.632 L334.208,20.632 Z M355.68,31.384 C357.728,31.384 359.466667,31.0746667 360.896,30.456 C362.325333,29.8373333 363.397333,29 364.112,27.944 C364.826667,26.888 365.184,25.72 365.184,24.44 C365.184,22.9466667 364.794667,21.7626667 364.016,20.888 C363.237333,20.0133333 362.304,19.3733333 361.216,18.968 C360.128,18.5626667 358.730667,18.1573333 357.024,17.752 C355.381333,17.3893333 354.16,17.0213333 353.36,16.648 C352.56,16.2746667 352.16,15.704 352.16,14.936 C352.16,14.168 352.506667,13.5493333 353.2,13.08 C353.893333,12.6106667 354.965333,12.376 356.416,12.376 C358.485333,12.376 360.554667,12.9626667 362.624,14.136 L362.624,14.136 L364.224,10.2 C363.2,9.56 362.005333,9.06933333 360.64,8.728 C359.274667,8.38666667 357.877333,8.216 356.448,8.216 C354.4,8.216 352.666667,8.52533333 351.248,9.144 C349.829333,9.76266667 348.768,10.6 348.064,11.656 C347.36,12.712 347.008,13.8906667 347.008,15.192 C347.008,16.6853333 347.397333,17.88 348.176,18.776 C348.954667,19.672 349.888,20.3226667 350.976,20.728 C352.064,21.1333333 353.461333,21.5386667 355.168,21.944 C356.277333,22.2 357.157333,22.4346667 357.808,22.648 C358.458667,22.8613333 358.992,23.144 359.408,23.496 C359.824,23.848 360.032,24.2906667 360.032,24.824 C360.032,25.5493333 359.68,26.1306667 358.976,26.568 C358.272,27.0053333 357.184,27.224 355.712,27.224 C354.389333,27.224 353.066667,27.0106667 351.744,26.584 C350.421333,26.1573333 349.28,25.592 348.32,24.888 L348.32,24.888 L346.56,28.792 C347.562667,29.56 348.890667,30.184 350.544,30.664 C352.197333,31.144 353.909333,31.384 355.68,31.384 Z M379.584,31.384 C381.909333,31.384 384,30.8826667 385.856,29.88 C387.712,28.8773333 389.173333,27.496 390.24,25.736 C391.306667,23.976 391.84,21.9973333 391.84,19.8 C391.84,17.6026667 391.306667,15.624 390.24,13.864 C389.173333,12.104 387.712,10.7226667 385.856,9.72 C384,8.71733333 381.909333,8.216 379.584,8.216 C377.258667,8.216 375.162667,8.71733333 373.296,9.72 C371.429333,10.7226667 369.968,12.104 368.912,13.864 C367.856,15.624 367.328,17.6026667 367.328,19.8 C367.328,21.9973333 367.856,23.976 368.912,25.736 C369.968,27.496 371.429333,28.8773333 373.296,29.88 C375.162667,30.8826667 377.258667,31.384 379.584,31.384 Z M379.584,26.968 C378.261333,26.968 377.066667,26.664 376,26.056 C374.933333,25.448 374.096,24.6 373.488,23.512 C372.88,22.424 372.576,21.1866667 372.576,19.8 C372.576,18.4133333 372.88,17.176 373.488,16.088 C374.096,15 374.933333,14.152 376,13.544 C377.066667,12.936 378.261333,12.632 379.584,12.632 C380.906667,12.632 382.101333,12.936 383.168,13.544 C384.234667,14.152 385.072,15 385.68,16.088 C386.288,17.176 386.592,18.4133333 386.592,19.8 C386.592,21.1866667 386.288,22.424 385.68,23.512 C385.072,24.6 384.234667,25.448 383.168,26.056 C382.101333,26.664 380.906667,26.968 379.584,26.968 Z" id="ENCUENTRATUCURSO" fill="#FFFFFF"></path>
                    </g>
                    <g id="logo">
                        <g id="Group" transform="translate(0.000000, 1.000000)" fill-rule="nonzero">
                            <path d="M69.83,112.37 L42.28,177.1 C39.493,184.133 36.037,189.1 31.91,192 C27.5035703,194.935175 22.2919668,196.424205 17,196.26 C13.8058172,196.254408 10.6316861,195.755182 7.59,194.78 C4.80169025,193.967767 2.21561052,192.577622 0,190.7 L6.46,178.12 C7.84063039,179.360005 9.43706135,180.336166 11.17,181 C12.8500241,181.655275 14.636716,181.994305 16.44,182 C18.5445126,182.09765 20.6202261,181.480927 22.33,180.25 C24.1410211,178.660811 25.540815,176.657184 26.41,174.41 L26.64,173.84 L0.24,112.34 L18.49,112.34 L35.61,153.72 L52.84,112.34 L69.84,112.36 L69.83,112.37 Z M77.08,112.37 L94.78,112.37 L94.78,173.37 L77.08,173.37 L77.08,112.37 Z M166.58,118.27 C171.247,122.797 173.58,129.523 173.58,138.45 L173.58,173.35 L155.86,173.35 L155.86,141.15 C155.86,136.31 154.803,132.7 152.69,130.32 C150.577,127.94 147.517,126.75 143.51,126.75 C139.05,126.75 135.497,128.13 132.85,130.89 C130.203,133.65 128.87,137.75 128.85,143.19 L128.85,173.34 L111.2,173.34 L111.2,112.34 L128.1,112.34 L128.1,119.49 C130.515331,116.863576 133.502306,114.82778 136.83,113.54 C140.475131,112.106768 144.363499,111.393618 148.28,111.44 C155.827,111.44 161.93,113.71 166.58,118.24 L166.58,118.24 L166.58,118.27 Z M189.58,112.37 L207.26,112.37 L207.26,173.37 L189.53,173.37 L189.58,112.37 L189.58,112.37 Z M285.14,112.37 L285.14,173.37 L268.3,173.37 L268.3,166.11 C265.989472,168.732019 263.123223,170.805694 259.91,172.18 C256.578582,173.597754 252.990401,174.312667 249.37,174.28 C241.37,174.28 235.037,171.973 230.37,167.36 C225.703,162.747 223.37,155.907 223.37,146.84 L223.37,112.37 L241.05,112.37 L241.05,144.23 C241.05,154.05 245.17,158.96 253.41,158.96 C257.247483,159.124407 260.967946,157.617984 263.61,154.83 C266.183,152.07 267.467,147.97 267.46,142.53 L267.46,112.37 L285.13,112.37 L285.14,112.37 Z M307.24,172.37 C303.160571,171.440197 299.257343,169.859998 295.68,167.69 L301.58,154.99 C304.642541,156.878543 307.964173,158.310281 311.44,159.24 C315.097251,160.29905 318.882609,160.850871 322.69,160.88 C330.17,160.88 333.91,159.03 333.91,155.33 C333.91,153.59 332.89,152.343 330.85,151.59 C327.791043,150.613286 324.636464,149.966279 321.44,149.66 C317.268044,149.075991 313.141516,148.203907 309.09,147.05 C305.882514,146.077908 302.986128,144.281459 300.69,141.84 C298.31,139.34 297.12,135.787 297.12,131.18 C297.069507,127.483364 298.247813,123.874582 300.47,120.92 C302.985729,117.708738 306.364254,115.280639 310.21,113.92 C315.058105,112.170685 320.187125,111.329974 325.34,111.44 C329.665065,111.443173 333.977,111.915943 338.2,112.85 C341.918505,113.587519 345.496361,114.910651 348.8,116.77 L342.9,129.35 C337.540441,126.327922 331.482689,124.76263 325.33,124.81 C321.55,124.81 318.713,125.34 316.83,126.41 C314.947,127.48 313.99,128.83 314,130.49 C314,132.377 315.02,133.71 317.06,134.49 C320.238253,135.500197 323.501642,136.219816 326.81,136.64 C330.926361,137.285443 335.000333,138.177042 339.01,139.31 C342.182308,140.252162 345.042417,142.031095 347.29,144.46 C349.63,146.96 350.79,150.437 350.79,154.89 C350.834588,158.541724 349.63557,162.099984 347.39,164.98 C344.800258,168.160556 341.359955,170.539636 337.47,171.84 C332.499477,173.566871 327.26074,174.393149 322,174.28 C316.992685,174.297826 312.003178,173.682958 307.15,172.45 L307.25,172.37 L307.24,172.37 Z" id="Shape" fill="#FFFFFF"></path>
                            <path d="M214.53,69.45 L225.86,56 C229.420723,51.7770812 229.420723,45.6029188 225.86,41.38 L213,26.17 L232.32,0.37 L232.44,0.49 L266.54,37.19 C272.150753,43.8527981 272.150753,53.5872019 266.54,60.25 L254.15,75 L235.25,95 C235.319456,94.7838831 235.339951,94.555019 235.31,94.33 C235.253214,94.1513312 235.168863,93.9826305 235.06,93.83 L214.53,69.45 L214.53,69.45 Z" id="Path" fill="url(#linearGradient-1)" opacity="0.7"></path>
                        </g>
                        <g id="Clipped" transform="translate(213.000000, 1.000000)">
                            <mask id="mask-3" fill="white">
                                <use xlink:href="#path-2"></use>
                            </mask>
                            <g id="B"></g>
                            <line x1="13.83" y1="48.08" x2="58.08" y2="48.08" id="Path" stroke="#FFFFFF" stroke-width="0.55" opacity="0.5" mask="url(#mask-3)"></line>
                        </g>
                        <path d="M95.32,76 L85.32,64.13 C78.32,55.82 78.32,43.68 85.32,35.37 L114.32,1.5 L136.4,27.2 L120.8,45.2 C118.839872,47.5404769 118.839872,50.9495231 120.8,53.29 L134.94,70.47 L113.74,96.09 L95.32,76 Z" id="Path" fill="url(#linearGradient-4)" fill-rule="nonzero" opacity="0.7"></path>
                        <g id="Clipped" transform="translate(80.000000, 1.000000)">
                            <mask id="mask-6" fill="white">
                                <use xlink:href="#path-5"></use>
                            </mask>
                            <g id="D"></g>
                            <line x1="-2.45" y1="47.82" x2="41.8" y2="47.82" id="Path" stroke="#FFFFFF" stroke-width="0.55" opacity="0.3" mask="url(#mask-6)"></line>
                        </g>
                        <g id="Group" transform="translate(113.000000, 0.000000)" fill-rule="nonzero">
                            <path d="M121.18,96.7 L82.25,96.7 C80.4185169,96.6985807 78.680747,95.8900604 77.5,94.49 L60.46,74.27 L60.46,74.19 L73.68,58.51 L82.58,47.91 L88.7,55.17 L101.52,70.45 L122.05,94.8 C122.341572,95.1440188 122.407341,95.6258415 122.218635,96.0354182 C122.029929,96.444995 121.620954,96.7080871 121.17,96.71 L121.18,96.7 Z" id="Path" fill="url(#linearGradient-7)" opacity="0.7"></path>
                            <polygon id="Path" fill="#000000" opacity="0.47" points="88.66 55.17 66.62 81.6 60.46 74.3 73.62 58.54 82.54 47.94 88.66 55.2"></polygon>
                            <path d="M118.13,0.93 C118.625033,0.927338494 119.100704,1.12212664 119.451688,1.47123319 C119.802671,1.82033974 120,2.29495982 120,2.79 C119.997139,3.22895948 119.841571,3.65323431 119.56,3.99 L100,27.18 L82.5,47.9 L60.42,74.2 L43.29,94.5 C42.1132118,95.8996166 40.3785935,96.7083732 38.55,96.7100237 L2,96.7100237 C1.39039358,96.7133327 0.833251587,96.3656654 0.568341298,95.8166174 C0.303431009,95.2675695 0.378016601,94.6150998 0.76,94.14 L19.3,70.44 L37.45,48.94 C37.9295593,48.3595748 37.9295593,47.5204252 37.45,46.94 L1.25,4 C0.582864049,3.2209092 0.672337967,2.04880088 1.45,1.38 C1.79370766,1.08896127 2.22962435,0.929479558 2.68,0.93 L41,0.93 C42.2725512,0.928121269 43.4821109,1.48356861 44.31,2.45 L59.31,20.22 C59.8564942,20.8697041 60.8239597,20.9588714 61.48,20.42 L61.68,20.22 L76.68,2.45 C77.5036306,1.46861487 78.7187965,0.901293455 80,0.9 L118.13,0.93 Z" id="Path" fill="url(#linearGradient-8)"></path>
                        </g>
                        <g id="Clipped" transform="translate(113.000000, 0.000000)">
                            <mask id="mask-10" fill="white">
                                <use xlink:href="#path-9"></use>
                            </mask>
                            <g id="G"></g>
                            <path d="M23.3,102.76 L132.16,-28.37 L166.58,-18.65 C166.58,-18.65 71.88,109.83 69,109 C66.12,108.17 23.3,102.76 23.3,102.76 Z" id="Path" stroke="#F6DF47" stroke-width="1.1" fill="url(#linearGradient-11)" fill-rule="nonzero" mask="url(#mask-10)"></path>
                        </g>
                    </g>
                </g>
            </g>
        </g>
    </g>
</svg>