<svg version="1" xmlns="http://www.w3.org/2000/svg" width="682.667" height="682.667" viewBox="0 0 512.000000 512.000000"><path d="M85.6 1.1C69.3 3.5 50.7 11.8 37 22.7 18.3 37.7 4.5 62.1 1 86.5c-1.3 9.6-1.3 329.4 0 339 6.4 44 41.5 79.1 85.5 85.5 9.6 1.3 329.4 1.3 339 0 17.3-2.5 35.4-10.5 49.5-21.7 18.7-15 32.5-39.4 36-63.8 1.3-9.6 1.3-329.4 0-339-6.4-44-41.5-79.1-85.5-85.5-8.7-1.2-331.3-1.1-339.9.1zM348.1 111c49.4 14.3 90.7 26.4 92 26.8 2.7 1 7-.2-60.6 17.1-25.8 6.6-63.2 16.1-83 21.2-19.8 5.1-36.7 9.2-37.6 9.1-2.5-.1-186.3-46.4-187.1-47.2-.5-.3 39.8-12.2 89.5-26.4 49.6-14.3 91.1-26.2 92.2-26.7 1.1-.4 2.7-.6 3.5-.4.8.3 41.8 12.2 91.1 26.5zm43.3 69.7c-1.3 52-2.4 97.7-2.4 103.6v6.7h-15.7l-.6-37.3c-.4-20.4-1-48.2-1.4-61.7l-.6-24.5 8.4-2.2c4.6-1.1 9.4-2.1 10.6-2.2l2.2-.1-.5 17.7zM279 191.4l20-5 2.5 6.5c11.9 31.5 88.5 235.5 88.5 235.8 0 .2-13.8.2-30.6.1l-30.6-.3-8.3-23.5-8.3-23.5-56.5-.3-56.5-.2-1.6 4.2c-.9 2.4-4.7 13.1-8.5 23.8l-6.8 19.5-29.8.3c-28 .2-29.7.1-29.3-1.5.4-1.3 85.4-227.7 90.3-240.4.5-1.4 3.4-.9 23.1 4l22.5 5.6 19.9-5.1zm110.4 116.7c8.1 6.4 7.1 19.1-1.8 23.3-11.6 5.5-23.6-5.1-19.1-17 2.1-5.7 6.4-8.4 13.1-8.4 3.7 0 5.9.6 7.8 2.1z"/><path d="M252.7 230.2c-1.4 4-9.7 27.7-18.6 52.7-8.9 25-16.1 45.8-16.1 46.3 0 .4 16.9.8 37.5.8 22.3 0 37.5-.4 37.5-.9 0-1.1-36.7-105.2-37.4-105.8-.2-.2-1.5 2.9-2.9 6.9z"/></svg>