<svg xmlns="http://www.w3.org/2000/svg" xmlns:xlink="http://www.w3.org/1999/xlink" width="351" height="202" xmlns:v="https://vecta.io/nano"><defs><path d="M1.53 69.56l11.33-13.42a11.34 11.34 0 0 0 0-14.62L0 26.28 20.08.76l.18.1 33.3 36.45a17.9 17.9 0 0 1 0 23.06L23.68 95.83 1.53 69.56z" id="A"/><path d="M15.32 75.1l-10-11.87c-7-8.31-7-20.45 0-28.76L33.76.56l22.67 25.7-15.6 18a6.3 6.3 0 0 0 0 8.09l14.1 17.2-21.2 25.62-18.4-20.07z" id="B"/></defs><g fill="none" fill-rule="evenodd"><path d="M214.53 69.56l11.33-13.42a11.34 11.34 0 0 0 0-14.62L213 26.28 233.08.76l.18.1 33.3 36.45a17.9 17.9 0 0 1 0 23.06l-29.88 35.46-22.15-26.27z" fill="#fff" fill-rule="nonzero" opacity=".7"/><g transform="translate(213)"><mask id="C" fill="#fff"><use xlink:href="#A"/></mask><g opacity=".7" mask="url(#C)" stroke="#fff"><g opacity=".5"><path d="M13.83 48.2h44.25" stroke-width=".55"/></g></g></g><path d="M95.32 75.1l-10-11.87c-7-8.31-7-20.45 0-28.76L113.76.56l22.67 25.7-15.6 18a6.3 6.3 0 0 0 0 8.09l14.1 17.2-21.2 25.62-18.4-20.07z" fill="#fff" fill-rule="nonzero" opacity=".7"/><g transform="translate(80)"><mask id="D" fill="#fff"><use xlink:href="#B"/></mask><path stroke="#fff" stroke-width=".55" opacity=".3" mask="url(#D)" d="M-2.45 47.93H41.8"/></g><g fill="#fff" fill-rule="nonzero"><path opacity=".7" d="M236.66 95.82h-44.3l-18.9-22.43-.04-.08L195.54 47l6.12 7.26 35 41.54z"/><path opacity=".47" d="M201.66 54.28L179.62 80.7l-6.16-7.3 13.16-15.76 8.92-10.6 6.12 7.26z"/><path d="M231.8 0a1.55 1.55 0 0 1 1.09.468c.287.294.445.69.44 1.102.012.364-.11.72-.34 1l-78.08 92.7a1.57 1.57 0 0 1-1.19.56H115a1.58 1.58 0 0 1-1.24-2.57l18.54-23.7 18.15-21.5a1.57 1.57 0 0 0 0-2L113.8 2.56a1.55 1.55 0 0 1 .2-2.19 1.5 1.5 0 0 1 1-.37h40.24a1.56 1.56 0 0 1 1.19.55l15.8 18.77a1.55 1.55 0 0 0 2.17.2l.2-.2L190.4.56a1.53 1.53 0 0 1 1.18-.56h40.22zM69.83 117.42l-27.55 64.72c-2.787 7.04-6.247 11.993-10.38 14.86a25.47 25.47 0 0 1-14.9 4.3 31 31 0 0 1-9.41-1.47A21 21 0 0 1 0 195.75l6.46-12.6a15 15 0 0 0 4.71 2.84 14.63 14.63 0 0 0 5.27 1 9.39 9.39 0 0 0 5.89-1.76 14.94 14.94 0 0 0 4.08-5.84l.23-.56L.23 117.4h18.25l17.12 41.37 17.23-41.37 17 .02zm7.25 0h17.7v61h-17.7v-61zm89.5 5.9c4.667 4.533 7 11.26 7 20.18v34.9h-17.72v-32.2c0-4.84-1.057-8.447-3.17-10.82s-5.173-3.567-9.18-3.58c-4.467 0-8.02 1.38-10.66 4.14-2.647 2.76-3.98 6.86-4 12.3v30.15H111.2v-61h16.9v7.16a23.39 23.39 0 0 1 8.73-6 30.31 30.31 0 0 1 11.45-2.1c7.547.067 13.647 2.35 18.3 6.85v.02zm23-5.9h17.68v61h-17.73l.05-61zm95.56 0v61H268.3v-7.25a23.47 23.47 0 0 1-8.39 6.06 26.31 26.31 0 0 1-10.54 2.1c-8 0-14.333-2.3-19-6.9s-7-11.44-7-20.52v-34.48h17.68v31.85c0 9.827 4.12 14.74 12.36 14.74a13.28 13.28 0 0 0 10.2-4.14c2.573-2.76 3.857-6.86 3.85-12.3v-30.15l17.68-.01zm22.1 60a38.7 38.7 0 0 1-11.56-4.7l5.9-12.7a36.87 36.87 0 0 0 9.86 4.25 41.22 41.22 0 0 0 11.25 1.66c7.48 0 11.22-1.85 11.22-5.55 0-1.733-1.02-2.98-3.06-3.74a45.07 45.07 0 0 0-9.41-1.93 91.26 91.26 0 0 1-12.35-2.6 19.25 19.25 0 0 1-8.45-5.22c-2.38-2.487-3.57-6.037-3.57-10.65A16.7 16.7 0 0 1 300.4 126a21.5 21.5 0 0 1 9.75-7 41.55 41.55 0 0 1 15.14-2.5 59.14 59.14 0 0 1 12.86 1.42 36.18 36.18 0 0 1 10.6 3.91l-5.9 12.58a35.21 35.21 0 0 0-17.57-4.53c-3.78 0-6.613.527-8.5 1.58-1.9 1.05-2.82 2.43-2.8 4.12 0 1.88 1 3.2 3.06 4a54.26 54.26 0 0 0 9.75 2.16 104.23 104.23 0 0 1 12.2 2.64 18.45 18.45 0 0 1 8.28 5.16c2.333 2.493 3.5 5.97 3.5 10.43a16 16 0 0 1-3.4 10.08 21.64 21.64 0 0 1-9.92 6.86 44 44 0 0 1-15.47 2.44 59.07 59.07 0 0 1-14.85-1.91l.1-.02z"/></g></g></svg>