<svg xmlns="http://www.w3.org/2000/svg" width="90" height="62" fill="#fff" fill-rule="evenodd"><path d="M73.055 52.173V31.555L47.47 42.597c-1.582.647-3.356.648-4.938.001l-25.6-11.044v20.62c0 12.78 56.112 12.78 56.112 0zm16.58-32.893L45.885.4c-.57-.2-1.198-.2-1.77 0L.367 19.28c-.5.2-.5.553 0 .763l43.75 18.88c.57.2 1.198.2 1.77 0l43.75-18.88c.5-.2.5-.553 0-.763zm-6.5 7.926V48.14l-2.63 8.125a4.77 4.77 0 0 0-.23 1.578c.033.758.66 1.353 1.42 1.344h6.875c.758.008 1.387-.587 1.42-1.344a4.77 4.77 0 0 0-.23-1.578l-2.625-8.113V25.476l-4 1.73z"/></svg>