<svg xmlns="http://www.w3.org/2000/svg" width="28" height="22"><path d="M7.526.001a.76.76 0 0 0-.687.759v5.523l-.747.237-.593.2A2.64 2.64 0 0 0 5.7 5.69a2.67 2.67 0 0 0-2.655-2.655A2.67 2.67 0 0 0 .39 5.69c0 .94.502 1.768 1.245 2.24C.666 8.438.01 9.457.01 10.62v7.586a.76.76 0 0 0 1.141.666.76.76 0 0 0 .376-.666V10.62a1.5 1.5 0 0 1 1.233-1.493l.107-.024.332-.095.842-.26 2.5-.782 2.49-.782.83-.25.237-.083c.028-.01.045-.008.06-.012a.37.37 0 0 1 .095-.012c.218 0 .38.16.38.38 0 .107-.054.2-.13.273l-.166.095-.64.38L7.75 9.08l-2.81 1.648a.76.76 0 0 0-.379.652v9.103H.77a.76.76 0 0 0-.666.376.76.76 0 0 0 0 .765.76.76 0 0 0 .666.376H5.32a.76.76 0 0 0 .759-.759v-9.435l.76-.44v.77a.76.76 0 0 0 .759.759H26.56a.76.76 0 0 0 .759-.759V.76a.76.76 0 0 0-.759-.759H7.597a.76.76 0 0 0-.071 0zm.83 1.517h17.448v9.862H8.355v-.89l.166-.095 1.944-1.138.64-.367.2-.12c.022-.013.033-.015.047-.024.007-.004.016-.007.024-.012.02-.017.095-.07.095-.07.415-.344.687-.87.687-1.458 0-.053-.008-.102-.012-.154l3.757-1.814a.76.76 0 0 0-.391-1.446.76.76 0 0 0-.273.071l-3.83 1.85c-.32-.248-.718-.403-1.15-.403-.156 0-.31.022-.462.06-.08.02-.053.006-.07.012l-.07.024-.237.07-1.055.332v-4.29zm-5.3 3.034c.637 0 1.138.5 1.138 1.138s-.5 1.138-1.138 1.138-1.138-.5-1.138-1.138.5-1.138 1.138-1.138z" fill="#272244" fill-rule="nonzero"/></svg>