<svg xmlns="http://www.w3.org/2000/svg" width="64" height="48"><path d="M4.535 0C2.065 0 0 2.3 0 5.143v37.714C0 45.7 2.065 48 4.535 48h54.93C61.935 48 64 45.7 64 42.857V5.143C64 2.3 61.935 0 59.465 0H4.535zm.767 3.43h53.395L33.302 29.57c-.633.652-1.97.652-2.605 0L5.302 3.43zM2.977 5.625l18.58 19.125-18.58 17.732V5.625zm58.047 0v36.857L42.442 24.75l18.58-19.125zM23.814 27.08l4.907 5.036c1.86 1.916 4.697 1.916 6.558 0l4.907-5.036 18.35 17.49H5.465l18.35-17.49z" fill="#272244" fill-rule="nonzero"/></svg>