<?xml version="1.0" encoding="UTF-8"?>
<svg width="19px" height="14px" viewBox="0 0 19 14" version="1.1" xmlns="http://www.w3.org/2000/svg" xmlns:xlink="http://www.w3.org/1999/xlink">
    <!-- Generator: Sketch 48.2 (47327) - http://www.bohemiancoding.com/sketch -->
    <title>Shape</title>
    <desc>Created with Sketch.</desc>
    <defs></defs>
    <g id="Home-2" stroke="none" stroke-width="1" fill="none" fill-rule="evenodd" transform="translate(-215.000000, -1910.000000)">
        <g id="Verified" transform="translate(0.000000, 1712.000000)" fill="#48A9A6" fill-rule="nonzero">
            <g id="Tags-2" transform="translate(199.000000, 181.000000)">
                <g id="Tag">
                    <path d="M32.6913281,17.1018799 C32.6318981,17.03396 32.5385082,17 32.4536082,17 C32.3602183,17 32.2753184,17.03396 32.2158884,17.1018799 L21.8580958,27.5360825 L18.0885385,23.7665252 C18.0206186,23.6986052 17.9357186,23.6646452 17.8508187,23.6646452 C17.7659187,23.6646452 17.6810188,23.6986052 17.6130988,23.7665252 L16.1018799,25.2777441 C15.96604,25.413584 15.96604,25.6258338 16.1018799,25.7616737 L20.8562765,30.5160703 C21.1619163,30.8217101 21.535476,31 21.8496058,31 C22.2995755,31 22.6901152,30.6688902 22.8344451,30.5330503 L34.194057,19.1224985 C34.3129169,18.9781686 34.3129169,18.7659187 34.185567,18.6385688 L32.6913281,17.1018799 Z" id="Shape"></path>
                </g>
            </g>
        </g>
    </g>
</svg>