<svg xmlns="http://www.w3.org/2000/svg" width="22" height="24" fill="#48a9a6" fill-rule="nonzero"><path d="M21.3708 12.92L19.77 10.4983c.287-.3596.422-.8173.3754-1.275v-.2266a7.822 7.822 0 0 0-1.4746-4.3968 7.407 7.407 0 0 0-.8997-1.0147C15.8747 1.7317 13.0777.6697 10.1013.6697a11.951 11.951 0 0 0-3.5479.5276L5.63 1.468a7.617 7.617 0 0 0-3.7204 2.6855A6.924 6.924 0 0 0 .1915 8.6618a7.691 7.691 0 0 0 1.0552 4.0045l.77 1.31.4566.7475c.5453.8757.9483 1.8323 1.194 2.8343a8.276 8.276 0 0 1-.1894 4.1094l-.2063.6764-.318.9876H14.772l.0507-.4532c0-.1048.0203-.2063.0304-.3078a5.249 5.249 0 0 1 .071-.5682c.0643-.3145.2063-.3923.416-.416h.1184l.433-.0474.6088-.0474 1.4002-.132c.5-.0208.9322-.1883 1.2785-.477.2232-.2232.8997-.8997.734-4.8095v-.1082a.582.582 0 0 1 .3923-.602 1.945 1.945 0 0 0 1.1939-.5581 1.103 1.103 0 0 0 .1928-1.353c-.098-.186-.1928-.3585-.3213-.53zm-1.4082.9653a.845.845 0 0 1-.5307.2407 1.432 1.432 0 0 0-1.2342 1.4749v.1388c.1265 3.0084-.3085 3.604-.398 3.7026a1.268 1.268 0 0 1-.5955.1728l-1.26.1142-.5708.0432-.4227.0463h-.105c-.6046.0548-1.093.5164-1.1817 1.117a4.48 4.48 0 0 0-.0617.4752H4.9177l.0987-.3394a8.448 8.448 0 0 0 .1882-4.1994 9.784 9.784 0 0 0-1.1941-2.8664l-.4258-.7004-.6757-1.1447a6.109 6.109 0 0 1-.8423-3.2058 5.406 5.406 0 0 1 1.3514-3.5267c.7626-1.0332 1.8-1.78 2.9898-2.163.2283-.0802.4752-.1512.7837-.2283a10.015 10.015 0 0 1 2.9898-.4474c2.4684 0 4.7918.8732 6.353 2.4005.2627.245.5023.5135.7158.8022C18 6.812 18.3982 8.0344 18.42 9.294v.074a1.873 1.873 0 0 0 0 .1944c.02.1773-.0332.3548-.145.4937a.864.864 0 0 0-.0463 1.0861l1.4594 2.2092.2746.435c.0216.0294.0216.0694 0 .0987zm-2.9424-4.0858a2.054 2.054 0 0 0 .1154-.2514c0-.0237.0207-.0444.0266-.065a2.082 2.082 0 0 0 .074-.275c0-.0237 0-.0444.0177-.068a2.13 2.13 0 0 0 .0325-.3609V8.519c0-.0177 0-.0947-.0207-.142v-.0592c0-.0473-.0207-.0917-.0355-.136l-.0177-.0532-.0532-.142-.0177-.0385-.074-.1538v-.0177a2.106 2.106 0 0 0-.5029-.6093l-.0237-.0177-.1272-.0947-.0473-.0296-.1094-.068-.068-.0385-.0917-.0444-.0917-.0414-.1006-.0385c-.0963-.037-.195-.0666-.2958-.0887a2.115 2.115 0 0 0-1.9759-1.3725c-.108-.0005-.2157.0074-.3224.0237a2.547 2.547 0 0 0-3.9815-.3254H9.288l-.1213-.0385-.0887-.0237-.1183-.0266-.1154-.0177h-.3165A2.331 2.331 0 0 0 6.543 6.034a2.55 2.55 0 0 0-1.9375 4.224c0 .0237 0 .0473-.0237.068s-.0325.0947-.0473.145l-.0266.1035-.0355.148c-.0118.0503 0 .0858-.0207.1302s0 .0858-.0177.1272v.2662a2.797 2.797 0 0 0 .0266.361v.08a2.754 2.754 0 0 0 .0739.3313 2.745 2.745 0 0 0 .1331.355c.057.1168.1223.2295.1952.3372.1353.2112.2985.4033.485.57l.0266.0237c.185.1626.4.3.6123.4082h.0237l-.2958.91a.911.911 0 0 0 .3816 1.059l.837.5413a.914.914 0 0 0 1.2926-.349l.8874-1.6683h.0177a1.878 1.878 0 0 0 .275-.0444h.0473c.0908-.023.1798-.0525.2662-.0887h.0266c.0797-.036.1568-.0775.2307-.1242l.0325-.0562a1.899 1.899 0 0 0 .21-.1627l.0296-.0237a2.523 2.523 0 0 0 1.1595.281c.173-.0003.3454-.018.5147-.0532h.0207l.2248-.0592.133-.0473.1006-.0385.1745-.0828.0473-.0237c.062-.0325.1213-.07.1775-.1094l.0325-.0207.1627-.1213.0355-.0266.14-.1242.0473-.0444.0266-.0266a2.55 2.55 0 0 0 3.6265-3.1769c.0385-.0503.065-.1065.0976-.1568l.0503-.077zm-3.0295 2.5433c-.2347-.0004-.4658-.0584-.673-.17.2446-.555.2492-1.1864.0128-1.745a.384.384 0 1 0-.7062.2994 1.441 1.441 0 0 1-.133 1.3638c-.0293.0426-.06.0836-.0947.1228l-.0435.046-.0665.07-.0512.046-.0742.0588-.0512.0384c-.042.0287-.0856.0552-.1305.0793l-.0358.018-.1.0512-.0512.018-.105.0333-.0537.0128-.1126.0205h-.0486c-.0554.0032-.11.0032-.1663 0-.1986-.001-.3947-.0437-.5757-.1254.0634-.1747.0963-.36.0972-.545a.384.384 0 0 0-.3838-.3838.384.384 0 0 0-.3838.3838c.0033.2243-.0812.44-.2354.6038l-.0333.0333c-.0236.0218-.0483.0423-.0742.0614l-.0512.0384a.855.855 0 0 1-.1023.0563l-.0742.028-.0665.0205-.07.018a.879.879 0 0 1-.1356.0128H9.17a.865.865 0 0 1-.1868-.023.384.384 0 0 0-.4222.5655l-.6883 1.3075H7.842l-.7343-.4606a.023.023 0 0 1 0-.0256l.256-.8136c.0967.0127.194.0196.2917.0205a.384.384 0 0 0 .3838-.3838.384.384 0 0 0-.3838-.3838 1.635 1.635 0 0 1-.6908-.1561h-.0154a1.635 1.635 0 0 1-.591-.4836 1.64 1.64 0 0 1-.243-.4554c-.0255-.077-.045-.1556-.0588-.2354v-.0384a1.607 1.607 0 0 1-.0205-.2559c-.0034-.0614-.0034-.123 0-.1842v-.0614c0-.0205.0128-.0793.023-.1177l.018-.064c0-.0384.023-.0793.0358-.1177l.018-.0512.0665-.1484v-.0358a1.633 1.633 0 0 1 1.4303-.8495.384.384 0 0 0 .3838-.3838.384.384 0 0 0-.3838-.3838c-.696.0005-1.3574.304-1.8115.8316-.287-.472-.2764-1.0672.027-1.5288s.8458-.707 1.393-.6307l.284.0358.115-.256c.226-.5323.7935-.834 1.3612-.724h.0588a1.242 1.242 0 0 1 .197.0614l.0435.0205c.3427.1554.5966.4576.6906.822a1.243 1.243 0 0 1-.207 1.0535.384.384 0 1 0 .6166.458c.147-.2.2555-.4255.3198-.6652.32.1386.683.1386 1.003 0a.384.384 0 1 0-.3019-.7062.512.512 0 0 1-.6678-.2559v-.0205a2.014 2.014 0 0 0-.5936-1.0235 1.436 1.436 0 0 1 1.234-.3164c.438.0928.808.385.9996.7897l.1612.3122.3224-.1a1.044 1.044 0 0 1 1.2128.3966c-.2584.068-.4987.192-.7036.3633a.384.384 0 0 0 .1216.6536.384.384 0 0 0 .3773-.0702 1.054 1.054 0 0 1 .678-.2559h.0998a1.072 1.072 0 0 1 .1484.0205l.0614.018c.0436.0126.0863.028.128.046l.0742.04a.683.683 0 0 1 .1817.1279l.064.0563c.0302.0323.0584.0665.0844.1023.0128.018.028.0333.04.0512a.866.866 0 0 1 .069.128c0 .018.018.0333.0256.0486a1.049 1.049 0 0 1 .0461.1484c0 .0154 0 .0307.0154.0486a1.019 1.019 0 0 1 0 .4043c0 .0256-.0128.0512-.0205.0768a.989.989 0 0 1-.0333.1075c0 .028-.0256.0563-.0384.0844a.77.77 0 0 1-.0486.0896l-.0486.0716a1.095 1.095 0 0 1-.0742.0896 1.045 1.045 0 0 1-.5603.3198.386.386 0 0 0-.3454.4222.386.386 0 0 0 .4222.3454.389.389 0 0 0 .0768 0 1.791 1.791 0 0 0 .4657-.1791 1.425 1.425 0 0 1 .0358.3019c.002.383-.1485.75-.4183 1.0227a1.44 1.44 0 0 1-1.0197.4255z"/></svg>