<?xml version="1.0" encoding="UTF-8"?>
<svg width="80px" height="90px" viewBox="0 0 80 90" version="1.1" xmlns="http://www.w3.org/2000/svg" xmlns:xlink="http://www.w3.org/1999/xlink">
    <title>Shape</title>
    <g id="Page-1" stroke="none" stroke-width="1" fill="none" fill-rule="evenodd">
        <g id="noun_Arrow-down-up_592515" transform="translate(-10.000000, -1.000000)" fill="#43A9A7" fill-rule="nonzero">
            <g id="Group" transform="translate(9.000000, 0.637820)">
                <path d="M60.59375,0.36218 C59.8632424,0.463787332 59.1957536,0.830906174 58.71875,1.39343 L41.71875,21.39343 C41.0209656,22.2084421 40.81099,23.3338079 41.167919,24.345613 C41.5248481,25.3574181 42.3944557,26.1019452 43.4491691,26.2987381 C44.5038825,26.495531 45.5834657,26.1146922 46.28125,25.29968 L58,11.51843 L58,77.36218 C57.97759,78.94708 59.414904,80.42468 61,80.42468 C62.585096,80.42468 64.022415,78.94708 64,77.36218 L64,11.51843 L75.71875,25.29968 C76.4165343,26.1146922 77.4961175,26.495531 78.5508309,26.2987381 C79.6055443,26.1019452 80.4751519,25.3574181 80.832081,24.345613 C81.18901,23.3338079 80.9790344,22.2084421 80.28125,21.39343 L63.28125,1.39343 C62.6195718,0.614322985 61.6067631,0.225687102 60.59375,0.36218 L60.59375,0.36218 Z M20.96875,10.2995369 C19.387393,10.31598 17.967131,11.78108 18,13.36218 L18,79.17468 L6.28125,65.39343 C5.63255915,64.6127531 4.63313953,64.2129852 3.625,64.33093 C2.51371807,64.4580535 1.5654154,65.1927938 1.16476716,66.2371064 C0.764118914,67.281419 0.977652932,68.4618954 1.71875,69.29968 L18.71875,89.29968 C19.2887791,89.9669624 20.1223902,90.3512115 21,90.3512115 C21.8776098,90.3512115 22.7112209,89.9669624 23.28125,89.29968 L40.28125,69.29968 C40.9832579,68.4851815 41.1962272,67.3575122 40.839626,66.3430869 C40.4830247,65.3286617 39.6112778,64.582303 38.554026,64.3862376 C37.4967742,64.1901722 36.4153762,64.5743238 35.71875,65.39343 L24,79.17468 L24,13.36218 C24.03331,11.76025 22.570938,10.28281 20.96875,10.2995369 Z" id="Shape"></path>
            </g>
        </g>
    </g>
</svg>