<svg xmlns="http://www.w3.org/2000/svg" width="93" height="76"><style><![CDATA[.B{fill-opacity:.4}]]></style><g fill="none" fill-rule="evenodd"><g stroke="#e14660" stroke-width="4"><rect x="42" y="2" width="32" height="18" rx="6"/><rect x="2" y="2" width="32" height="18" rx="6"/><rect x="2" y="42" width="32" height="18" rx="6"/></g><g fill="#e14660"><path d="M3 25h29a1 1 0 0 1 1 1v1a1 1 0 0 1-1 1H3a1 1 0 0 1-1-1v-1a1 1 0 0 1 1-1zm0 5h20a1 1 0 0 1 1 1v1a1 1 0 0 1-1 1H3a1 1 0 0 1-1-1v-1a1 1 0 0 1 1-1zm0 35h29a1 1 0 0 1 1 1v1a1 1 0 0 1-1 1H3a1 1 0 0 1-1-1v-1a1 1 0 0 1 1-1zm0 5h20a1 1 0 0 1 1 1v1a1 1 0 0 1-1 1H3a1 1 0 0 1-1-1v-1a1 1 0 0 1 1-1zm40-45h29a1 1 0 0 1 1 1v1a1 1 0 0 1-1 1H43a1 1 0 0 1-1-1v-1a1 1 0 0 1 1-1zm0 5h20a1 1 0 0 1 1 1v1a1 1 0 0 1-1 1H43a1 1 0 0 1-1-1v-1a1 1 0 0 1 1-1z" fill-opacity=".5"/><circle cx="62" cy="43" r="3" class="B"/><circle transform="matrix(-1 0 0 1 158 0)" cx="79" cy="41" r="3" class="B"/><circle cx="81.5" cy="30.5" r="1.5" class="B"/><circle cx="91" cy="47" r="2" class="B"/><circle cx="92" cy="33" r="1" class="B"/><circle cx="85" cy="57" r="1" class="B"/><path d="M66.588 46.882c-5.356 0-9.706 4.35-9.706 9.706s4.35 9.706 9.706 9.706 9.706-4.35 9.706-9.706-4.35-9.706-9.706-9.706zm10 18.902l6.902 6.902a1.94 1.94 0 1 1-2.745 2.745l-7.182-7.182a13.52 13.52 0 0 1-6.975 1.927C59.088 70.176 53 64.09 53 56.588S59.088 43 66.588 43s13.588 6.088 13.588 13.588a13.54 13.54 0 0 1-3.588 9.196z" fill-rule="nonzero"/></g></g></svg>