<svg xmlns="http://www.w3.org/2000/svg" width="20" height="46"><path d="M7.273 3.603C14 13.856 14.697 26.726 9.606 37.474c1.91-.778 3.89-1.344 5.87-1.91.212-.07 1.697 1.697 1.91 1.91s1.626 1.91 1.91 1.91C13.92 40.797 8.828 42.918 4.09 45.96 3.737 46.17.696 42 .343 42.21l.07-.07C.272 42 .2 41.787.2 41.787.696 37.05.838 32.24.414 27.574c0 .424 1.556 1.556 1.91 1.91s1.768 1.344 1.91 1.91a33.28 33.28 0 0 1 .212 5.303c6.505-11.314 6.293-25.527-1-36.628.92 1.202 2.9 2.05 3.818 3.536z" fill="#e43450" fill-rule="evenodd"/></svg>