<svg xmlns="http://www.w3.org/2000/svg" width="25" height="20"><path d="M24.578 2.37c-.906.4-1.875.672-2.896.797A5.06 5.06 0 0 0 23.901.375a10.02 10.02 0 0 1-3.203 1.224C19.776.615 18.464 0 17.016 0c-2.786 0-5.042 2.26-5.042 5.047 0 .396.042.78.13 1.15A14.29 14.29 0 0 1 1.708.922a5.05 5.05 0 0 0-.682 2.536c0 1.75.896 3.297 2.25 4.203-.833-.02-1.615-.25-2.292-.63v.063c0 2.448 1.74 4.484 4.047 4.948-.422.115-.87.177-1.328.177-.323 0-.64-.03-.948-.094a5.05 5.05 0 0 0 4.714 3.505 10.11 10.11 0 0 1-6.266 2.161A10.22 10.22 0 0 1 0 17.719C2.224 19.167 4.875 20 7.72 20c9.286 0 14.36-7.693 14.36-14.365 0-.22-.005-.437-.016-.65.984-.714 1.84-1.6 2.516-2.615z" fill="#484848" fill-rule="nonzero"/></svg>