<svg xmlns="http://www.w3.org/2000/svg" width="44" height="44" fill="#48a9a6" fill-rule="nonzero"><path d="M21.67 43.615C9.735 43.615 0 33.88 0 21.945S9.735.22 21.67.22 43.34 9.955 43.34 21.9s-9.68 21.725-21.67 21.725zm0-41.7c-11 0-19.965 8.965-19.965 19.965S10.67 41.855 21.67 41.855 41.635 32.9 41.635 21.9 32.725 1.925 21.67 1.925z"/><path d="M7.92 38.4c-.33 0-.66-.22-.77-.55-.165-.44.055-.935.495-1.1l7.6-3.08c.825-.33 1.375-1.155 1.375-2.1 0-.1 0-.165.055-.275a8.53 8.53 0 0 1-3.41-6.105c-.715-.55-1.1-1.32-1.1-2.255 0-.88.385-1.65 1.045-2.2V18.15c0-2.64 1.2-5.06 3.245-6.7s4.73-2.2 7.315-1.595c3.74.935 6.5 4.5 6.5 8.58V20.8c.66.55 1.1 1.32 1.1 2.2s-.44 1.705-1.1 2.255c-.22 2.42-1.485 4.62-3.4 6.05.055.1.055.165.055.275 0 .935.55 1.705 1.375 2.035l7.645 3.025c.44.165.66.66.495 1.1s-.66.66-1.1.495L27.665 35.2a3.93 3.93 0 0 1-2.365-2.805h-.66c-.385 0-.77-.275-.825-.66-.165-.385.055-.77.44-.935 2.475-1 4.18-3.4 4.3-6.105 0-.33.22-.605.495-.715.385-.165.605-.55.605-1s-.22-.77-.605-1c-.275-.165-.44-.44-.44-.77v-2.86c0-3.245-2.2-6.16-5.225-6.875a7 7 0 0 0-5.885 1.265 6.8 6.8 0 0 0-2.585 5.39v3.08c0 .33-.165.605-.44.77-.385.165-.605.55-.605 1s.22.77.605 1a1.08 1.08 0 0 1 .495.715c.1 2.695 1.76 5.06 4.3 6.105.385.165.605.55.495.935-.055.385-.44.66-.825.66h-.77a3.93 3.93 0 0 1-2.365 2.805l-7.6 3.08c-.055.1-.165.1-.275.1z"/></svg>