<?xml version="1.0" encoding="UTF-8"?>
<svg width="27px" height="20px" viewBox="0 0 27 20" version="1.1" xmlns="http://www.w3.org/2000/svg" xmlns:xlink="http://www.w3.org/1999/xlink">
    <!-- Generator: Sketch 48.2 (47327) - http://www.bohemiancoding.com/sketch -->
    <title>Shape</title>
    <desc>Created with Sketch.</desc>
    <defs></defs>
    <g id="Course-2" stroke="none" stroke-width="1" fill="none" fill-rule="evenodd" transform="translate(-90.000000, -1367.000000)">
        <g id="Accordions" transform="translate(48.000000, 1001.000000)" fill="#48A9A6" fill-rule="nonzero">
            <g id="Temario" transform="translate(0.000000, 365.000000)">
                <path d="M67.9833994,4.50325245 C67.2950682,3.81519743 66.5686191,3.25889762 65.8101289,2.82275194 L65.8101289,2.02006712 C65.8101289,1.61154308 65.5156822,1.26268178 65.1126825,1.19473255 C64.3467344,1.06546328 63.5838248,1 62.8446697,1 C58.7188255,1 56.1240488,2.98295745 55.0683497,3.99418565 C53.9792285,3.20033975 51.5253221,1.694408 48.5830652,1.694408 C46.2407502,1.694408 44.1086359,2.63934426 42.2452802,4.50270002 C42.088113,4.65986714 42,4.87255376 42,5.09463173 L42,19.7904484 C42,20.0799232 42.1505379,20.3484055 42.3963705,20.5003246 C42.6419269,20.6533484 42.9499082,20.6688166 43.2095516,20.5400997 C43.2308202,20.5296035 45.371221,19.4910299 48.4968857,19.4910299 C50.643087,19.4910299 52.749237,19.9716464 54.7567777,20.919621 C54.7578825,20.9201735 54.7595398,20.9204497 54.7606447,20.9210021 C54.8120209,20.9450329 54.8653307,20.9624346 54.9197453,20.9754167 C54.9291367,20.9776265 54.938528,20.97956 54.9481956,20.9814935 C55.0028865,20.9925422 55.058406,21 55.1142017,21 C55.1188973,21 55.1233168,20.9986189 55.1277363,20.9986189 C55.1697212,20.9977903 55.2114298,20.9933708 55.2531385,20.9867416 C55.4072673,20.9737594 55.5564241,20.9212783 55.6829312,20.8270885 C57.6272184,19.9434723 59.6604472,19.4913061 61.7317939,19.4913061 C64.8569061,19.4913061 66.9973069,20.5298797 67.0174707,20.5395473 C67.2771141,20.6696452 67.5850954,20.6552819 67.8317566,20.5025343 C68.0789703,20.3495104 68.2289558,20.0810281 68.2289558,19.7907247 L68.2289558,5.09490795 C68.2286795,4.87310619 68.1400141,4.66014336 67.9833994,4.50325245 Z M56.0212963,5.40786112 C56.6557653,4.74411314 58.9464278,2.67414753 62.8446697,2.67414753 C63.267557,2.67414753 63.6998357,2.69873079 64.13681,2.74762109 L64.13681,15.7532697 C63.8702612,15.73062 63.5595177,15.7148756 63.2131424,15.7148756 C61.6022484,15.7148756 58.7365034,16.075338 56.0212963,18.2317594 L56.0212963,5.40786112 Z M43.6744237,18.5673623 L43.6744237,5.44956979 C45.1505241,4.06904029 46.8003646,3.36910796 48.5830652,3.36910796 C51.2330852,3.36910796 53.5041363,4.90652837 54.277266,5.49569793 L54.277266,5.56364716 L54.277266,18.8949549 C52.4075573,18.179002 50.4687945,17.8166061 48.4968857,17.8166061 C46.4142141,17.8166061 44.7295703,18.2226442 43.6744237,18.5673623 Z M66.5550845,18.5676385 C65.4996616,18.2229204 63.8144655,17.8168823 61.7320701,17.8168823 C61.1586449,17.8168823 60.5885343,17.8511332 60.0217382,17.9124532 C61.1940006,17.5141492 62.2996948,17.3887469 63.2125899,17.3887469 C64.1622219,17.3887469 64.7748698,17.5290649 64.7787369,17.5296173 C65.0276078,17.5890038 65.2905658,17.5312746 65.4919276,17.3730026 C65.6927369,17.2141782 65.8101289,16.9719364 65.8101289,16.7156076 L65.8101289,4.76510558 C66.0620382,4.99243167 66.3117378,5.22279614 66.5550845,5.44984601 L66.5550845,18.5676385 Z" id="Shape"></path>
            </g>
        </g>
    </g>
</svg>