<svg xmlns="http://www.w3.org/2000/svg" width="27" height="20"><path d="M25.983 3.503c-.688-.688-1.415-1.244-2.173-1.68V1.02c0-.41-.294-.757-.697-.825C22.347.065 21.584 0 20.845 0c-4.126 0-6.72 1.983-7.776 2.994-1.09-.794-3.543-2.3-6.485-2.3C4.24.694 2.11 1.64.245 3.503.088 3.66 0 3.873 0 4.095V18.8c0 .29.15.558.396.7s.554.168.813.04c.02-.01 2.162-1.05 5.287-1.05 2.146 0 4.252.48 6.26 1.43.055.025.11.043.163.056l.028.006a.84.84 0 0 0 .166.019 1.13 1.13 0 0 0 .139-.013c.154-.013.303-.065.43-.16 1.944-.884 3.978-1.336 6.05-1.336 3.125 0 5.266 1.04 5.286 1.048.26.13.568.116.814-.037s.397-.422.397-.712V4.095a.84.84 0 0 0-.246-.592zm-11.962.905c.634-.664 2.925-2.734 6.823-2.734.423 0 .855.025 1.292.073v13.006l-.924-.038a11.57 11.57 0 0 0-7.192 2.517V4.408zM1.674 17.567V4.45C3.15 3.07 4.8 2.37 6.583 2.37c2.65 0 4.92 1.537 5.694 2.127v13.4c-1.87-.716-3.808-1.078-5.78-1.078-2.083 0-3.767.406-4.822.75zm22.88 0c-1.055-.345-2.74-.75-4.823-.75a15.89 15.89 0 0 0-1.71.096 9.94 9.94 0 0 1 3.191-.524c.95 0 1.562.14 1.566.14a.84.84 0 0 0 1.031-.814V3.765l.745.685v13.118z" fill="#48a9a6" fill-rule="nonzero"/></svg>