<?xml version="1.0" encoding="UTF-8"?>
<svg width="28px" height="22px" viewBox="0 0 28 22" version="1.1" xmlns="http://www.w3.org/2000/svg" xmlns:xlink="http://www.w3.org/1999/xlink">
    <!-- Generator: Sketch 48.2 (47327) - http://www.bohemiancoding.com/sketch -->
    <title>Shape</title>
    <desc>Created with Sketch.</desc>
    <defs></defs>
    <g id="Course-2" stroke="none" stroke-width="1" fill="none" fill-rule="evenodd" transform="translate(-90.000000, -1294.000000)">
        <g id="Accordions" transform="translate(48.000000, 1001.000000)" fill="#48A9A6" fill-rule="nonzero">
            <g id="Clases" transform="translate(0.000000, 293.000000)">
                <path d="M49.5255796,0.000833785948 C49.1346363,0.0376790631 48.8364148,0.366751068 48.838108,0.759423097 L48.838108,6.28290152 C48.5728077,6.36638731 48.3626974,6.43527404 48.0913716,6.51996068 C47.8765293,6.5870177 47.71126,6.64404162 47.4987237,6.70960801 C47.6301338,6.39606522 47.700224,6.04936411 47.700224,5.69025362 C47.700224,4.23288977 46.5025272,3.03519103 45.0451614,3.03519103 C43.5877961,3.03519103 42.3900989,4.23288977 42.3900989,5.69025362 C42.3900989,6.628885 42.8916239,7.45786799 43.6346594,7.93046268 C42.6655627,8.4381023 42.0108042,9.45739411 42.0108042,10.6210841 L42.0108042,18.2069773 C42.0069352,18.4805518 42.1506693,18.7350171 42.386968,18.8729335 C42.6232668,19.0108499 42.9155203,19.0108499 43.151819,18.8729335 C43.3881177,18.7350171 43.5318518,18.4805518 43.5279828,18.2069773 L43.5279828,10.6210841 C43.5279828,9.86370099 44.0532437,9.2572809 44.7606905,9.12761144 C44.8685012,9.10785019 44.8446268,9.11035353 44.8673671,9.10390552 C44.8901058,9.09745751 44.9188715,9.08956818 44.9503378,9.08019961 C45.0132707,9.06146245 45.0944356,9.04111329 45.1992499,9.00908186 C45.4088785,8.94502278 45.6964661,8.85506926 46.0408099,8.74831678 C46.7294975,8.53481182 47.6378335,8.24816368 48.5417841,7.96602155 C49.4457346,7.68387943 50.3492062,7.39649925 51.0309052,7.18372633 C51.3717546,7.07734176 51.6578463,6.99783022 51.8606123,6.93481421 C51.9619955,6.90329482 52.0418416,6.86903693 52.0976714,6.8518435 C52.1255875,6.84323351 52.1429304,6.84420072 52.1569362,6.83999055 C52.1851065,6.83304945 52.2130055,6.82813759 52.2517599,6.82813759 C52.4702234,6.82813759 52.6310546,6.9889699 52.6310546,7.20743224 C52.6310546,7.31407852 52.5768268,7.40852668 52.500672,7.48005028 C52.4601694,7.50394584 52.4030761,7.53481284 52.3347306,7.57487394 C52.1791064,7.6660981 51.9600478,7.79920397 51.6946709,7.9541686 C51.1639167,8.26409785 50.4555809,8.66943867 49.7507858,9.08019961 C48.3411956,9.90168735 46.9416347,10.7277608 46.9416347,10.7277608 C46.7084914,10.862376 46.5641493,11.1104639 46.5623401,11.3796735 L46.5623401,20.4827452 L42.7693935,20.4827452 C42.495819,20.4788762 42.2413536,20.6226103 42.1034373,20.858909 C41.9655209,21.0952077 41.9655209,21.3874613 42.1034373,21.62376 C42.2413536,21.8600587 42.495819,22.0037928 42.7693935,21.9999238 L47.3209294,21.9999238 C47.7398693,21.9998819 48.0794768,21.6602745 48.0795187,21.2413345 L48.0795187,11.8063799 C48.1748707,11.750855 48.6343479,11.4849012 48.838108,11.3678205 L48.838108,12.1382628 C48.8381499,12.5572027 49.1777574,12.8968102 49.5966973,12.8968521 L68.5614301,12.8968521 C68.9803701,12.8968102 69.3199775,12.5572027 69.3200194,12.1382628 L69.3200194,0.759423097 C69.3199775,0.340483141 68.9803701,0.000875673661 68.5614301,0.000833785948 L49.5966973,0.000833785948 C49.5730044,-0.000277928649 49.5492724,-0.000277928649 49.5255796,0.000833785948 Z M50.3552866,1.51801241 L67.8028408,1.51801241 L67.8028408,11.3796735 L50.3552866,11.3796735 L50.3552866,10.4907016 C50.435039,10.444326 50.4385911,10.4440412 50.521228,10.3958779 C51.2262086,9.98501839 51.9336258,9.56835183 52.4651131,9.25799398 C52.7308568,9.10281315 52.948113,8.98261468 53.1051729,8.89055228 C53.1837028,8.84452108 53.2507993,8.79801576 53.2948202,8.7720227 C53.3168307,8.75901289 53.3282816,8.75666126 53.342232,8.74831678 C53.3492073,8.74414454 53.3584886,8.74101536 53.365938,8.73646382 C53.369655,8.73418806 53.370315,8.72935205 53.3777909,8.72461087 C53.3852668,8.71983175 53.4605572,8.66551676 53.4607616,8.66534608 C53.8761837,8.32154202 54.1482332,7.79574101 54.1482332,7.20743224 C54.1482332,7.15465301 54.1407247,7.10510196 54.1363802,7.05334379 L57.8937679,5.23984122 C58.2332486,5.08666975 58.4113452,4.70972964 58.3140991,4.35021354 C58.2168529,3.99069743 57.8730249,3.75493365 57.5026203,3.79378034 C57.4081043,3.80025686 57.3156375,3.82437864 57.2300023,3.86489809 L53.4014968,5.71395954 C53.0807967,5.46595507 52.6835527,5.31095897 52.2517599,5.31095897 C52.0956858,5.31095897 51.9402877,5.33299598 51.7894945,5.37022375 C51.7090708,5.39006087 51.7365185,5.37661487 51.7183768,5.38207671 C51.7002351,5.38757649 51.6763858,5.39683128 51.647259,5.40578263 C51.5890055,5.42372327 51.5122127,5.44519514 51.4101999,5.47690038 C51.2061739,5.54030706 50.9215758,5.63120503 50.5804928,5.73766545 C50.5187463,5.75693779 50.4204934,5.7883506 50.3552866,5.8087832 L50.3552866,1.51801241 Z M45.0451614,4.55236965 C45.6825832,4.55236965 46.1830454,5.05283378 46.1830454,5.69025362 C46.1830454,6.32767346 45.6825832,6.82813759 45.0451614,6.82813759 C44.4077401,6.82813759 43.9072775,6.32767346 43.9072775,5.69025362 C43.9072775,5.05283378 44.4077401,4.55236965 45.0451614,4.55236965 Z" id="Shape"></path>
            </g>
        </g>
    </g>
</svg>