<?xml version="1.0" encoding="UTF-8"?>
<svg width="20px" height="20px" viewBox="0 0 20 20" version="1.1" xmlns="http://www.w3.org/2000/svg" xmlns:xlink="http://www.w3.org/1999/xlink">
    <!-- Generator: Sketch 48.2 (47327) - http://www.bohemiancoding.com/sketch -->
    <title>Shape</title>
    <desc>Created with Sketch.</desc>
    <defs></defs>
    <g id="Appcademos-Footer" stroke="none" stroke-width="1" fill="none" fill-rule="evenodd" transform="translate(-787.000000, -425.000000)">
        <g id="Footer" fill="#484848" fill-rule="nonzero">
            <g id="Content" transform="translate(48.000000, 271.000000)">
                <path d="M757.895833,154 L740.104167,154 C739.494792,154 739,154.494792 739,155.104167 L739,172.895833 C739,173.505208 739.494792,174 740.104167,174 L749,174 L749,166.083333 L746.609375,166.083333 L746.609375,163.166667 L749,163.166667 L749,161.010417 C749,158.427083 750.791667,157.020833 753.098958,157.020833 C754.203125,157.020833 755.390625,157.104167 755.666667,157.140625 L755.666667,159.838542 L753.828125,159.838542 C752.572917,159.838542 752.333333,160.432292 752.333333,161.307292 L752.333333,163.166667 L755.322917,163.166667 L754.932292,166.083333 L752.333333,166.083333 L752.333333,174 L757.895833,174 C758.505208,174 759,173.505208 759,172.895833 L759,155.104167 C759,154.494792 758.505208,154 757.895833,154 Z" id="Shape"></path>
            </g>
        </g>
    </g>
</svg>