<svg xmlns="http://www.w3.org/2000/svg" width="50" height="44" fill="#484848" fill-rule="nonzero"><path d="M26.5 3.674c2.866.678 5 3.256 5 6.326a6.51 6.51 0 0 1-5 6.326V42a1.5 1.5 0 1 1-3 0V16.326c-2.866-.678-5-3.256-5-6.326a6.51 6.51 0 0 1 5-6.326V2a1.5 1.5 0 1 1 3 0v1.674zM21.5 10c0 1.93 1.57 3.5 3.5 3.5s3.5-1.57 3.5-3.5-1.57-3.5-3.5-3.5-3.5 1.57-3.5 3.5zm-13 17.674c2.866.678 5 3.256 5 6.326a6.51 6.51 0 0 1-5 6.326V42a1.5 1.5 0 1 1-3 0v-1.674C2.634 39.648.5 37.07.5 34a6.51 6.51 0 0 1 5-6.326V2a1.5 1.5 0 1 1 3 0v25.674zM3.5 34c0 1.93 1.57 3.5 3.5 3.5s3.5-1.57 3.5-3.5-1.57-3.5-3.5-3.5-3.5 1.57-3.5 3.5zm41-15.326c2.866.678 5 3.256 5 6.326a6.51 6.51 0 0 1-5 6.326V42a1.5 1.5 0 1 1-3 0V31.326c-2.866-.678-5-3.256-5-6.326a6.51 6.51 0 0 1 5-6.326V2a1.5 1.5 0 1 1 3 0v16.674zM39.5 25c0 1.93 1.57 3.5 3.5 3.5s3.5-1.57 3.5-3.5-1.57-3.5-3.5-3.5-3.5 1.57-3.5 3.5z"/></svg>