<?xml version="1.0" encoding="UTF-8"?>
<svg width="26px" height="20px" viewBox="0 0 26 20" version="1.1" xmlns="http://www.w3.org/2000/svg" xmlns:xlink="http://www.w3.org/1999/xlink">
    <!-- Generator: Sketch 48.2 (47327) - http://www.bohemiancoding.com/sketch -->
    <title>Shape</title>
    <desc>Created with Sketch.</desc>
    <defs></defs>
    <g id="Course-2" stroke="none" stroke-width="1" fill="none" fill-rule="evenodd" transform="translate(-90.000000, -1439.000000)">
        <g id="Accordions" transform="translate(48.000000, 1001.000000)" fill="#48A9A6">
            <g id="Academia" transform="translate(0.000000, 437.000000)">
                <path d="M42.5989367,7.60358691 C42.7441811,7.4534609 42.9153057,7.32036049 43.1128406,7.21050533 L53.8017501,1.27223453 C54.4550833,0.909255157 55.2494672,0.909255157 55.9028004,1.27223453 L66.5918289,7.21050533 C68.0753495,8.03470028 68.0753495,10.1684821 66.5918289,10.9926771 L63.5056949,12.7072116 L63.5056949,17.2981752 C63.5056949,17.7519389 63.3636707,18.195643 63.0277016,18.5007842 C62.0859932,19.3564993 59.6527598,21 54.8522752,21 C50.0518448,21 47.6186005,19.3564993 46.6768813,18.5007842 C46.3409663,18.195643 46.1988988,17.7519389 46.1988988,17.2981752 L46.1988988,12.7072116 L44.1633549,11.5762962 L44.1633549,19.3885169 C44.1633549,19.9858192 43.6790338,20.4701944 43.0816775,20.4701944 C42.4843254,20.4701944 42,19.9858192 42,19.3885169 L42,8.57170987 C42,8.14785456 42.2440113,7.78104692 42.5989367,7.60358691 Z M54.8522752,3.16332258 L65.5413037,9.10159121 L54.8522752,15.039849 L45.1568324,9.65338733 L53.8984521,9.65338733 C54.4957543,9.65338733 54.9801295,9.16906625 54.9801295,8.57170987 C54.9801295,7.9743535 54.4957543,7.49003242 53.8984521,7.49003242 L47.0640245,7.49003242 L54.8522752,3.16332258 Z M48.3622537,13.9090634 L48.3622537,17.0940627 C49.1291414,17.6969897 51.0643273,18.8366451 54.8522752,18.8366451 C58.6403097,18.8366451 60.5755388,17.6969897 61.34234,17.0940627 L61.34234,13.9090634 L55.9028004,16.9310539 C55.2494672,17.2940649 54.4550833,17.2940649 53.8017501,16.9310539 L48.3622537,13.9090634 Z" id="Shape"></path>
            </g>
        </g>
    </g>
</svg>