<svg xmlns="http://www.w3.org/2000/svg" width="22" height="22" fill="none" fill-rule="evenodd"><circle stroke="#48a9a6" stroke-width="2" cx="11" cy="11" r="10"/><path d="M13.273 15.977l-.172.703-1.234.465c-.307.107-.664.16-1.07.16-.625 0-1.11-.152-1.457-.457s-.52-.69-.52-1.16c0-.182.013-.368.04-.56s.068-.405.125-.645l.64-2.28.145-.62c.04-.195.06-.374.06-.535 0-.292-.06-.495-.18-.61s-.35-.172-.687-.172c-.167 0-.337.026-.512.078l-.45.148.172-.703 1.21-.44c.385-.122.75-.184 1.094-.184.62 0 1.098.15 1.434.45a1.49 1.49 0 0 1 .504 1.168c0 .1-.012.273-.035.523s-.066.48-.13.688l-.64 2.273a6.32 6.32 0 0 0-.141.625c-.042.234-.062.41-.062.53 0 .302.068.508.203.617s.37.164.703.164a2.02 2.02 0 0 0 .531-.082c.198-.055.34-.103.43-.145zm.164-9.54a1.33 1.33 0 0 1-.449 1.012 1.53 1.53 0 0 1-1.082.418c-.422 0-.784-.14-1.086-.418s-.453-.616-.453-1.012.15-.734.453-1.016S11.484 5 11.906 5s.783.14 1.082.422.45.62.45 1.016z" fill="#48a9a6" fill-rule="nonzero"/></svg>