<svg xmlns="http://www.w3.org/2000/svg" width="20" height="20" fill="#484848" fill-rule="nonzero"><path d="M14.167 1.667a4.16 4.16 0 0 1 2.943 1.224 4.13 4.13 0 0 1 1.224 2.943v8.333a4.16 4.16 0 0 1-1.224 2.943 4.13 4.13 0 0 1-2.943 1.224H5.833A4.16 4.16 0 0 1 2.89 17.11a4.13 4.13 0 0 1-1.224-2.943V5.833A4.16 4.16 0 0 1 2.89 2.89a4.13 4.13 0 0 1 2.943-1.224h8.333zm0-1.667H5.833C2.625 0 0 2.625 0 5.833v8.333C0 17.375 2.625 20 5.833 20h8.333C17.375 20 20 17.375 20 14.167V5.833C20 2.625 17.375 0 14.167 0zm1.25 5.833c-.693 0-1.25-.557-1.25-1.25s.557-1.25 1.25-1.25a1.25 1.25 0 1 1 0 2.5zM10 6.667A3.34 3.34 0 0 1 13.333 10 3.34 3.34 0 0 1 10 13.333 3.34 3.34 0 0 1 6.667 10 3.34 3.34 0 0 1 10 6.667zM10 5c-2.76 0-5 2.24-5 5s2.24 5 5 5 5-2.24 5-5-2.24-5-5-5z"/></svg>