<?xml version="1.0" encoding="UTF-8"?>
<svg width="20px" height="20px" viewBox="0 0 20 20" version="1.1" xmlns="http://www.w3.org/2000/svg" xmlns:xlink="http://www.w3.org/1999/xlink">
    <!-- Generator: Sketch 48.2 (47327) - http://www.bohemiancoding.com/sketch -->
    <title>Shape</title>
    <desc>Created with Sketch.</desc>
    <defs></defs>
    <g id="Course-2" stroke="none" stroke-width="1" fill="none" fill-rule="evenodd" transform="translate(-90.000000, -1028.000000)">
        <g id="Accordions" transform="translate(48.000000, 1001.000000)" fill="#48A9A6" fill-rule="nonzero">
            <g id="Para-ti" transform="translate(0.000000, 26.000000)">
                <path d="M53,1 C52.045548,1 51.227895,1.67969 51.0390625,2.59375 C51.02017,2.685195 51.0311525,2.638765 51.0234375,2.6796875 C51.0157225,2.72061 51.0005075,2.78339 50.984375,2.859375 C50.952109,3.011345 50.9015447,3.2308975 50.828125,3.5 C50.6812855,4.038205 50.443478,4.7764075 50.078125,5.578125 C49.365544,7.1417875 48.1672652,8.9107725 46.2734375,10 L43.125,10 C42.7730592,9.99883714 42.467638,10.2425242 42.390625,10.5859375 C42.1392843,11.6993875 42,13.04175 42,14.5 C42,15.95825 42.1392843,17.3006375 42.390625,18.4140625 C42.467638,18.7574758 42.7730592,19.0011629 43.125,19 L46,19 C46.9027777,19 47.7988002,19.427625 48.9765625,19.9375 C50.1543248,20.447375 51.602329,21 53.5,21 L58.25,21 C59.5513122,21 60.5,19.813925 60.5,18.5 C60.5,18.36715 60.439963,18.2531 60.421875,18.125 C61.0907177,17.6755 61.5,16.875675 61.5,16 C61.5,15.750675 61.4604157,15.5094 61.3984375,15.28125 C61.7795098,14.792725 62,14.17395 62,13.5 C62,12.846775 61.7887853,12.2458 61.4296875,11.765625 C61.6169915,11.379525 61.75,10.962425 61.75,10.5 C61.75,9.0407625 60.6797327,7.75 59.25,7.75 L55,7.75 L55,3 C55,1.904315 54.095686,1 53,1 Z M52.9090909,3.54544345 C53.1682055,3.54544345 53.3636364,3.74087527 53.3636364,3.9999889 L53.3636364,8.9999889 C53.363674,9.37653109 53.6689124,9.68176944 54.0454545,9.68180708 L58.5909091,9.68180708 C59.0484216,9.68180708 59.5,10.1364344 59.5,10.8181707 C59.5,11.1441253 59.3837993,11.4327957 59.2159091,11.6349321 C58.9770781,11.9253298 59.0183817,12.3542519 59.3082386,12.5937389 C59.5432068,12.7862844 59.7272727,13.1337844 59.7272727,13.5454434 C59.7272727,13.9510116 59.550082,14.2972957 59.3224432,14.4900457 C59.0792858,14.6936845 59.0086386,15.0380893 59.1519886,15.3210116 C59.2248423,15.4642616 59.2727273,15.6311253 59.2727273,15.8181707 C59.2727273,16.303648 58.9802964,16.6364775 58.71875,16.7059548 C58.5254865,16.7572725 58.364488,16.8908336 58.278359,17.0712944 C58.19223,17.2517551 58.1896518,17.460926 58.2713068,17.6434548 C58.3283307,17.7733412 58.3636364,17.9237616 58.3636364,18.090898 C58.3636364,18.6536934 58.005038,18.9999889 57.6818182,18.9999889 L53.3636364,18.9999889 C51.8974459,18.9999889 50.8274934,18.5932844 49.7982955,18.1477162 C48.7690975,17.702148 47.770202,17.1818071 46.5454545,17.1818071 L44.5142045,17.1818071 C44.3729909,16.3831025 44.2727273,15.4708753 44.2727273,14.4545344 C44.2727273,13.4381934 44.3729909,12.5259662 44.5142045,11.7272616 L47,11.7272616 C47.1143242,11.7266895 47.2266696,11.697382 47.3267045,11.6420344 C49.4830884,10.4650344 50.755733,8.52866163 51.4957386,6.90481845 C51.8657414,6.09289799 52.1068952,5.35499118 52.2556818,4.80964799 C52.3300752,4.53697754 52.3778493,4.3167639 52.4119318,4.1562389 C52.4289727,4.07597527 52.445878,4.01044572 52.4545455,3.96447754 C52.4632136,3.91850936 52.4768955,3.82675254 52.4616477,3.90055708 C52.5035036,3.69795027 52.6799509,3.54544345 52.9090909,3.54544345 Z" id="Shape"></path>
            </g>
        </g>
    </g>
</svg>