<?xml version="1.0" encoding="UTF-8"?>
<svg width="20px" height="20px" viewBox="0 0 20 20" version="1.1" xmlns="http://www.w3.org/2000/svg" xmlns:xlink="http://www.w3.org/1999/xlink">
    <!-- Generator: Sketch 48.2 (47327) - http://www.bohemiancoding.com/sketch -->
    <title>Shape</title>
    <desc>Created with Sketch.</desc>
    <defs></defs>
    <g id="Appcademos-Footer" stroke="none" stroke-width="1" fill="none" fill-rule="evenodd" transform="translate(-924.000000, -425.000000)">
        <g id="Footer" fill="#484848" fill-rule="nonzero">
            <g id="Content" transform="translate(48.000000, 271.000000)">
                <path d="M894.400625,154 L877.708778,154 C876.797083,154 876,154.656421 876,155.557697 L876,172.286012 C876,173.192498 876.797083,174 877.708778,174 L894.395415,174 C895.312321,174 896,173.187288 896,172.286012 L896,155.557697 C896.00521,154.656421 895.312321,154 894.400625,154 Z M882.199531,170.671008 L879.334202,170.671008 L879.334202,161.762438 L882.199531,161.762438 L882.199531,170.671008 Z M880.86585,160.407919 L880.845012,160.407919 C879.928106,160.407919 879.334202,159.725449 879.334202,158.87106 C879.334202,158.001042 879.943735,157.334202 880.88148,157.334202 C881.819224,157.334202 882.39229,157.995832 882.413128,158.87106 C882.413128,159.725449 881.819224,160.407919 880.86585,160.407919 Z M892.671008,170.671008 L889.805679,170.671008 L889.805679,165.799948 C889.805679,164.632977 889.388903,163.835895 888.352175,163.835895 C887.560302,163.835895 887.09143,164.372493 886.883042,164.893462 C886.804897,165.081011 886.784058,165.336285 886.784058,165.59677 L886.784058,170.671008 L883.918729,170.671008 L883.918729,161.762438 L886.784058,161.762438 L886.784058,163.002344 C887.200834,162.40844 887.852045,161.554051 889.368065,161.554051 C891.248763,161.554051 892.671008,162.793957 892.671008,165.466528 L892.671008,170.671008 Z" id="Shape"></path>
            </g>
        </g>
    </g>
</svg>