<?xml version="1.0" encoding="UTF-8"?>
<svg width="20px" height="46px" viewBox="0 0 20 46" version="1.1" xmlns="http://www.w3.org/2000/svg" xmlns:xlink="http://www.w3.org/1999/xlink">
    <!-- Generator: Sketch 52.6 (67491) - http://www.bohemiancoding.com/sketch -->
    <title>red_arrow_curved</title>
    <desc>Created with Sketch.</desc>
    <g id="Page-1" stroke="none" stroke-width="1" fill="none" fill-rule="evenodd">
        <path d="M22.1,10.8 C19.6,22.8 11,32.4 -0.2,36.4 C1.7,37.2 3.5,38.2 5.3,39.2 C5.5,39.3 5.3,41.6 5.3,41.9 C5.3,42.2 5.1,44.4 5.3,44.6 C0.5,41.8 -4.6,39.7 -10.1,38.5 C-10.5,38.4 -9.7,33.3 -10.1,33.2 C-10.1,33.2 -10,33.2 -10,33.2 C-10,33 -9.9,32.8 -9.9,32.8 C-6.2,29.8 -2.7,26.5 0.3,22.9 C-7.10542736e-15,23.2 0.3,25.1 0.3,25.6 C0.3,26.1 0.6,27.8 0.3,28.3 C-0.8,29.7 -2,31 -3.3,32.2 C9.3,28.8 19.2,18.6 21.9,5.6 C21.7,7.1 22.5,9.1 22.1,10.8 Z" id="red_arrow_curved" fill="#E43450" transform="translate(5.999097, 25.100000) rotate(-45.000000) translate(-5.999097, -25.100000) "></path>
    </g>
</svg>