<?xml version="1.0" encoding="UTF-8"?>
<svg width="77px" height="90px" viewBox="0 0 77 90" version="1.1" xmlns="http://www.w3.org/2000/svg" xmlns:xlink="http://www.w3.org/1999/xlink">
    <!-- Generator: Sketch 52.6 (67491) - http://www.bohemiancoding.com/sketch -->
    <title>Icon</title>
    <desc>Created with Sketch.</desc>
    <g id="Appcademos" stroke="none" stroke-width="1" fill="none" fill-rule="evenodd">
        <g id="Home" transform="translate(-470.000000, -1377.000000)" fill="#E14660">
            <g id="3-steps" transform="translate(76.000000, 1239.000000)">
                <g id="2" transform="translate(318.000000, 138.000000)">
                    <g id="Icon" transform="translate(76.000000, 0.000000)">
                        <path d="M76.9952536,87.3312562 C76.9909389,88.8033629 75.8045321,89.9956639 74.339703,90 L2.63198061,90 C1.17636428,89.9827441 0.004192883,88.7942 0,87.3312562 C0,73.7506666 17.0410923,68.3342222 24.3556414,66.6287528 C24.4454398,66.6064839 24.5076115,66.5242725 24.5049179,66.4313605 L24.5049179,63.5573288 C22.8101232,61.3261558 21.546919,58.7952305 20.7808618,56.0959002 C18.8559805,54.2009342 18.0074613,51.2242585 17.5517751,49.5661632 C16.8053926,46.9290022 16.05901,43.0995918 18.1095979,40.3755782 C18.0703146,39.4675736 17.968178,38.6780045 17.9053248,37.8884353 C16.9782391,31.6982131 17.693195,27.0792335 20.0344792,24.1894103 C21.2933852,22.5872548 23.1265458,21.5442477 25.1413073,21.2837958 C26.3355194,17.1385577 32.16516,13.0959636 37.4526912,14.1776734 C42.5830892,15.2830702 53.2917148,14.0671337 53.425278,14.0513423 C53.5603916,14.0387211 53.6952214,14.0782419 53.8023976,14.161882 C53.9085813,14.2503908 53.9739165,14.3788555 53.9831007,14.5171881 C54.0224174,15.9565731 53.4779299,17.3502041 52.4746223,18.3781813 C61.0383801,24.1183491 59.8048847,35.4486666 58.8149457,40.2413514 C60.9519568,43.0916961 60.2055743,46.9132108 59.4670484,49.5503718 C59.0113622,51.1768843 58.1628431,54.1930385 56.2458184,56.0959002 C55.4754868,58.7766398 54.2123581,61.2886673 52.5217622,63.5020589 L52.5217622,66.4234648 C52.521903,66.5154392 52.5828983,66.5960949 52.6710388,66.6208571 C59.9777312,68.3342222 76.9952536,73.7585623 76.9952536,87.3312562 Z M50.0154882,71.2714195 C48.8347096,70.6061614 47.9395475,69.5266301 47.5013574,68.2394739 C46.3036054,69.0337793 45.0166696,69.6830943 43.6673081,70.1739183 C40.3225264,71.3637086 36.6727271,71.3637086 33.3279455,70.1739183 C31.9720314,69.6902184 30.6793729,69.0433293 29.4781828,68.2473696 C29.0336361,69.5185227 28.1423566,70.5827018 26.9719087,71.2398367 C29.6559264,74.9292614 33.9502985,77.0856441 38.4976268,77.0273787 C43.0365337,77.0904182 47.3263181,74.9466328 50.0154882,71.2714195 Z M52.3724857,52.9692063 C52.6474688,52.9692063 53.6295511,52.542839 54.8316199,48.2317913 C55.7744189,44.8840181 55.3737293,43.6680816 55.0594629,43.2417142 C54.7756628,42.9172929 54.3427024,42.7672544 53.9202475,42.8469296 C53.7487167,42.8637532 53.5803134,42.7924943 53.4724179,42.657433 C53.3657029,42.5210825 53.3360419,42.3392516 53.3938513,42.1757959 L53.3938513,42.0731519 C53.6295511,41.2835827 54.6194901,37.1936144 51.1782736,34.6354104 C48.1534601,35.3144398 43.1959086,35.4960407 36.5334621,32.6378004 C33.2808055,31.240263 30.5466883,31.1928888 28.4253905,32.4956779 C24.1670816,35.1012562 23.5856889,42.3100226 23.5778322,42.3810838 C23.5568893,42.6572724 23.3186096,42.8650423 23.0435795,42.8469296 L22.8157364,42.8469296 C22.4554802,42.8186626 22.1048884,42.9726235 21.880794,43.2575056 C21.558671,43.683873 21.1658381,44.8998095 22.1086371,48.2475827 C23.3185625,52.5349433 24.3006448,52.9376235 24.5677712,52.9849977 C24.8025076,53.0006457 24.9950718,53.1777664 25.0313141,53.411365 C25.7227,57.8882222 29.0932065,63.6757641 34.8835639,65.6891655 C37.1907426,66.5136979 39.710231,66.5136979 42.0174098,65.6891655 C47.5720674,63.6757641 51.193987,57.9987619 51.8932296,53.4192607 C51.9210624,53.1649504 52.1336317,52.9716702 52.3881991,52.9692063 L52.3724857,52.9692063 Z M44.429404,53.1271201 L32.5658496,53.1271201 C32.2196809,53.1330259 31.8936078,53.291608 31.6742043,53.5607621 C31.4548009,53.8299162 31.3642649,54.1824111 31.4266341,54.5246575 C32.0888792,57.9403878 35.0662928,60.4058491 38.5290534,60.4058491 C41.991814,60.4058491 44.9692277,57.9403878 45.6314727,54.5246575 C45.6960332,54.1714417 45.5976319,53.8078649 45.3639416,53.5361742 C45.1302513,53.2644834 44.7865164,53.1140281 44.429404,53.1271201 Z M31.6387639,42.4205623 C30.2719434,42.4205623 29.1639164,43.5340941 29.1639164,44.9077052 C29.1639164,46.2813162 30.2719434,47.394848 31.6387639,47.394848 C32.2951342,47.394848 32.9246214,47.1328105 33.3887453,46.6663807 C33.8528692,46.199951 34.1136113,45.5673365 34.1136113,44.9077052 C34.1136113,43.5340941 33.0055844,42.4205623 31.6387639,42.4205623 Z M45.5686195,42.3889795 C44.2101374,42.4064287 43.1196354,43.5211845 43.1254232,44.8865148 C43.131211,46.2518451 44.2311244,47.357223 45.589705,47.3630396 C46.9482857,47.3688561 48.0575306,46.2729363 48.0748935,44.9077052 C48.0834222,44.2371068 47.8221086,43.5914671 47.3502296,43.1172437 C46.8783506,42.6430203 46.2359027,42.3804085 45.5686195,42.3889795 Z" id="Shape-no-interrogation" fill-rule="nonzero"></path>
                        <path d="M47.5013574,68.2394739 C46.3036054,69.0337793 45.0166696,69.6830943 43.6673081,70.1739183 C40.3225264,71.3637086 36.6727271,71.3637086 33.3279455,70.1739183 C31.9720314,69.6902184 30.6793729,69.0433293 29.4781828,68.2473696 C29.0336361,69.5185227 28.1423566,67.5827018 26.9719087,68.2398367 C29.6559264,71.9292614 33.9502985,74.0856441 38.4976268,74.0273787 C43.0365337,74.0904182 47.3263181,71.9466328 50.0154882,68.2714195 C48.8347096,67.6061614 47.9395475,69.5266301 47.5013574,68.2394739 Z" id="Path" fill-opacity="0.5"></path>
                        <circle id="Oval-3" fill-opacity="0.5" cx="24.3714666" cy="5.5" r="2.5"></circle>
                        <ellipse id="Oval-3" fill-opacity="0.5" cx="50.9950564" cy="9" rx="1" ry="1"></ellipse>
                        <circle id="Oval-3" fill-opacity="0.5" cx="39.5" cy="8.5" r="1.5"></circle>
                        <ellipse id="Oval-3" fill-opacity="0.5" cx="13.5" cy="18.5074522" rx="1.5" ry="1.50745223"></ellipse>
                        <circle id="Oval-3" fill-opacity="0.5" cx="43" cy="1" r="1"></circle>
                    </g>
                </g>
            </g>
        </g>
    </g>
</svg>