<?xml version="1.0" encoding="UTF-8"?>
<svg width="52px" height="52px" viewBox="0 0 52 52" version="1.1" xmlns="http://www.w3.org/2000/svg" xmlns:xlink="http://www.w3.org/1999/xlink">
    <!-- Generator: Sketch 48.2 (47327) - http://www.bohemiancoding.com/sketch -->
    <title>Spinner-1s-200px</title>
    <desc>Created with Sketch.</desc>
    <defs></defs>
    <g id="Page-1" stroke="none" stroke-width="1" fill="none" fill-rule="evenodd">
        <g id="Spinner-1s-200px" fill="#E43450" fill-rule="nonzero">
            <g id="Group" transform="translate(24.000000, 0.000000)">
                <rect id="Rectangle-path" x="0" y="0" width="4" height="12" rx="2">
                    <animate attributeName="opacity" values="1;0" keyTimes="0;1" dur="1s" begin="-0.9166666666666666s" repeatCount="indefinite"></animate>
                </rect>
            </g>
            <g id="Group" transform="translate(36.000000, 8.679492) rotate(30.000000) translate(-36.000000, -8.679492) translate(34.000000, 2.679492)">
                <rect id="Rectangle-path" x="0" y="0" width="4" height="12" rx="2">
                    <animate attributeName="opacity" values="1;0" keyTimes="0;1" dur="1s" begin="-0.8333333333333334s" repeatCount="indefinite"></animate>
                </rect>
            </g>
            <g id="Group" transform="translate(43.320508, 16.000000) rotate(60.000000) translate(-43.320508, -16.000000) translate(41.320508, 10.000000)">
                <rect id="Rectangle-path" x="0" y="0" width="4" height="12" rx="2">
                    <animate attributeName="opacity" values="1;0" keyTimes="0;1" dur="1s" begin="-0.75s" repeatCount="indefinite"></animate>
                </rect>
            </g>
            <g id="Group" transform="translate(46.000000, 26.000000) rotate(90.000000) translate(-46.000000, -26.000000) translate(44.000000, 20.000000)">
                <rect id="Rectangle-path" x="0" y="0" width="4" height="12" rx="2">
                    <animate attributeName="opacity" values="1;0" keyTimes="0;1" dur="1s" begin="-0.6666666666666666s" repeatCount="indefinite"></animate>
                </rect>
            </g>
            <g id="Group" transform="translate(43.320508, 36.000000) rotate(120.000000) translate(-43.320508, -36.000000) translate(41.320508, 30.000000)">
                <rect id="Rectangle-path" x="0" y="0" width="4" height="12" rx="2">
                    <animate attributeName="opacity" values="1;0" keyTimes="0;1" dur="1s" begin="-0.5833333333333334s" repeatCount="indefinite"></animate>
                </rect>
            </g>
            <g id="Group" transform="translate(36.000000, 43.320508) rotate(150.000000) translate(-36.000000, -43.320508) translate(34.000000, 37.320508)">
                <rect id="Rectangle-path" x="0" y="0" width="4" height="12" rx="2">
                    <animate attributeName="opacity" values="1;0" keyTimes="0;1" dur="1s" begin="-0.5s" repeatCount="indefinite"></animate>
                </rect>
            </g>
            <g id="Group" transform="translate(26.000000, 46.000000) rotate(180.000000) translate(-26.000000, -46.000000) translate(24.000000, 40.000000)">
                <rect id="Rectangle-path" x="0" y="0" width="4" height="12" rx="2">
                    <animate attributeName="opacity" values="1;0" keyTimes="0;1" dur="1s" begin="-0.4166666666666667s" repeatCount="indefinite"></animate>
                </rect>
            </g>
            <g id="Group" transform="translate(16.000000, 43.320508) rotate(-150.000000) translate(-16.000000, -43.320508) translate(14.000000, 37.320508)">
                <rect id="Rectangle-path" x="0" y="0" width="4" height="12" rx="2">
                    <animate attributeName="opacity" values="1;0" keyTimes="0;1" dur="1s" begin="-0.3333333333333333s" repeatCount="indefinite"></animate>
                </rect>
            </g>
            <g id="Group" transform="translate(8.679492, 36.000000) rotate(-120.000000) translate(-8.679492, -36.000000) translate(6.679492, 30.000000)">
                <rect id="Rectangle-path" x="0" y="0" width="4" height="12" rx="2">
                    <animate attributeName="opacity" values="1;0" keyTimes="0;1" dur="1s" begin="-0.25s" repeatCount="indefinite"></animate>
                </rect>
            </g>
            <g id="Group" transform="translate(6.000000, 26.000000) rotate(-90.000000) translate(-6.000000, -26.000000) translate(4.000000, 20.000000)">
                <rect id="Rectangle-path" x="0" y="0" width="4" height="12" rx="2">
                    <animate attributeName="opacity" values="1;0" keyTimes="0;1" dur="1s" begin="-0.16666666666666666s" repeatCount="indefinite"></animate>
                </rect>
            </g>
            <g id="Group" transform="translate(8.679492, 16.000000) rotate(-60.000000) translate(-8.679492, -16.000000) translate(6.679492, 10.000000)">
                <rect id="Rectangle-path" x="0" y="0" width="4" height="12" rx="2">
                    <animate attributeName="opacity" values="1;0" keyTimes="0;1" dur="1s" begin="-0.08333333333333333s" repeatCount="indefinite"></animate>
                </rect>
            </g>
            <g id="Group" transform="translate(16.000000, 8.679492) rotate(-30.000000) translate(-16.000000, -8.679492) translate(14.000000, 2.679492)">
                <rect id="Rectangle-path" x="0" y="0" width="4" height="12" rx="2">
                    <animate attributeName="opacity" values="1;0" keyTimes="0;1" dur="1s" begin="0s" repeatCount="indefinite"></animate>
                </rect>
            </g>
        </g>
    </g>
</svg>
