<?xml version="1.0" encoding="UTF-8"?>
<svg width="25px" height="20px" viewBox="0 0 25 20" version="1.1" xmlns="http://www.w3.org/2000/svg" xmlns:xlink="http://www.w3.org/1999/xlink">
    <!-- Generator: Sketch 48.2 (47327) - http://www.bohemiancoding.com/sketch -->
    <title>Shape</title>
    <desc>Created with Sketch.</desc>
    <defs></defs>
    <g id="Appcademos-Footer" stroke="none" stroke-width="1" fill="none" fill-rule="evenodd" transform="translate(-875.000000, -425.000000)">
        <g id="Footer" fill="#484848" fill-rule="nonzero">
            <g id="Content" transform="translate(48.000000, 271.000000)">
                <path d="M851.578125,156.369792 C850.671875,156.770833 849.703125,157.041667 848.682292,157.166667 C849.723958,156.541667 850.526042,155.552083 850.901042,154.375 C849.927083,154.953125 848.848958,155.375 847.697917,155.598958 C846.776042,154.614583 845.463542,154 844.015625,154 C841.229167,154 838.973958,156.260417 838.973958,159.046875 C838.973958,159.442708 839.015625,159.828125 839.104167,160.197917 C834.911458,159.989583 831.192708,157.979167 828.708333,154.921875 C828.276042,155.666667 828.026042,156.536458 828.026042,157.458333 C828.026042,159.208333 828.921875,160.755208 830.276042,161.661458 C829.442708,161.640625 828.661458,161.411458 827.984375,161.03125 L827.984375,161.09375 C827.984375,163.541667 829.723958,165.578125 832.03125,166.041667 C831.609375,166.15625 831.161458,166.21875 830.703125,166.21875 C830.380208,166.21875 830.0625,166.1875 829.755208,166.125 C830.395833,168.130208 832.260417,169.588542 834.46875,169.630208 C832.744792,170.984375 830.567708,171.791667 828.203125,171.791667 C827.796875,171.791667 827.395833,171.765625 827,171.71875 C829.223958,173.166667 831.875,174 834.71875,174 C844.005208,174 849.078125,166.307292 849.078125,159.635417 C849.078125,159.416667 849.072917,159.197917 849.0625,158.984375 C850.046875,158.270833 850.901042,157.385417 851.578125,156.369792 Z" id="Shape"></path>
            </g>
        </g>
    </g>
</svg>