<?xml version="1.0" encoding="UTF-8"?>
<svg width="48px" height="48px" viewBox="0 0 48 48" version="1.1" xmlns="http://www.w3.org/2000/svg" xmlns:xlink="http://www.w3.org/1999/xlink">
    <!-- Generator: Sketch 48.2 (47327) - http://www.bohemiancoding.com/sketch -->
    <title>Shape</title>
    <desc>Created with Sketch.</desc>
    <defs></defs>
    <g id="Appcademos-Footer" stroke="none" stroke-width="1" fill="none" fill-rule="evenodd" transform="translate(-76.000000, -136.000000)">
        <g id="Footer" fill="#01E675" fill-rule="nonzero">
            <g id="Email" transform="translate(48.000000, 48.000000)">
                <g id="Banner" transform="translate(0.000000, 54.000000)">
                    <path d="M52.4352143,34 C39.4219643,34 28.8715,44.4679643 28.8715,57.382 C28.8715,61.7995 30.1070714,65.9309286 32.2528214,69.4556071 L28,82 L41.0461429,77.8555 C44.422,79.7074643 48.3045357,80.764 52.4352143,80.764 C65.4501786,80.764 76,70.2945357 76,57.382 C76,44.4679643 65.4501786,34 52.4352143,34 Z M64.1525714,66.2617857 C63.5982143,67.6361071 61.0910714,68.8903214 59.9848214,68.9480714 C58.87975,69.0066786 58.84825,69.8045714 52.8233929,67.1872857 C46.7992857,64.5693571 43.1749643,58.204 42.8892143,57.7940714 C42.60325,57.3856429 40.5556429,54.4676071 40.6661071,51.5310357 C40.7773214,48.5939286 42.3854286,47.20825 42.9593929,46.6319286 C43.5327143,46.05475 44.1900357,45.9513571 44.5913929,45.9448214 C45.0658214,45.9371071 45.3731071,45.9306786 45.7242143,45.9436429 C46.075,45.9569286 46.6019286,45.87025 47.0581429,47.0835357 C47.5141429,48.2967143 48.6056071,51.2785 48.7452143,51.5823571 C48.8847143,51.8865357 48.9710714,52.2387143 48.7561429,52.62925 C48.5405714,53.0206429 48.4302143,53.2651429 48.1174643,53.6024286 C47.803,53.9397143 47.4559643,54.3569286 47.1754643,54.6148214 C46.8626071,54.9003571 46.5358214,55.2118214 46.86475,55.8222143 C47.1934643,56.4321786 48.3275714,58.4317857 50.0553571,60.0796429 C52.2758929,62.1979643 54.1908571,62.9006071 54.7801429,63.22075 C55.3710357,63.5426071 55.7236429,63.5068214 56.0900714,63.1212143 C56.4547857,62.7356071 57.6585357,61.4341429 58.0825,60.8531071 C58.50625,60.2704643 58.9033214,60.3845714 59.4477143,60.6035714 C59.9917857,60.8234286 62.8931071,62.3774286 63.4841071,62.6983214 C64.0744643,63.0185714 64.4690714,63.1835714 64.6101786,63.4376071 C64.7512857,63.6926071 64.7067143,64.8873571 64.1525714,66.2617857 Z" id="Shape"></path>
                </g>
            </g>
        </g>
    </g>
</svg>