<svg xmlns="http://www.w3.org/2000/svg" width="16" height="16"><path d="M8.145 0C3.807 0 .29 3.49.29 7.794c0 1.473.412 2.85 1.127 4.025L0 16l4.35-1.382a7.87 7.87 0 0 0 3.796.97c4.338 0 7.855-3.5 7.855-7.794S12.483 0 8.145 0zm3.906 10.754c-.185.458-1.02.876-1.39.895s-.38.286-2.387-.587-3.216-2.994-3.31-3.13-.778-1.11-.74-2.088.573-1.44.764-1.633a.77.77 0 0 1 .544-.229c.158-.003.26-.005.378 0s.293-.024.445.38l.562 1.5c.046.1.075.22.004.35s-.11.212-.213.324-.22.252-.314.337c-.104.095-.213.2-.104.402s.488.87 1.064 1.42c.74.706 1.38.94 1.575 1.047s.315.095.437-.033a11.97 11.97 0 0 0 .664-.756c.14-.194.274-.156.455-.083s1.148.59 1.345.698.328.162.375.246.032.483-.153.94z" fill="#484848" fill-rule="nonzero"/></svg>