<svg xmlns="http://www.w3.org/2000/svg" xmlns:xlink="http://www.w3.org/1999/xlink" width="1024" height="1024"><defs><path id="A" d="M.06.04H1024v1017.74H.06z"/></defs><g fill-rule="evenodd"><mask id="B" fill="#fff"><use xlink:href="#A"/></mask><path d="M1024 512C1024 229.23 794.77 0 512 0S0 229.23 0 512c0 255.554 187.23 467.37 432 505.78V660H302V512h130V399.2C432 270.88 508.438 200 625.4 200c56.017 0 114.6 10 114.6 10v126h-64.562C611.835 336 592 375.467 592 415.957V512h142l-22.7 148H592v357.78c244.77-38.4 432-250.226 432-505.78" fill="#fffffe" mask="url(#B)"/></g></svg>