<svg xmlns="http://www.w3.org/2000/svg" xmlns:xlink="http://www.w3.org/1999/xlink" width="48" height="40"><defs><path d="M33.4 7.524C37.212 7.2 38 6 38 6l-1 3s.615-1.26 2.523-.353S43 12 43 12l-.858 1.412L44 16l-1.075.725.216.72c.573.37 2.012.826 2.86 1.554-.047 1.438-1.514 1.7-2.427 1.795-.01 2.2-.59 4.37-1.642 6.398-.093 1.95.21 4.22.21 4.22H40.57s-.14-.524-1.572 1.06-2.62 1.588-2.62 1.588.036 1.17-1.048 2.647-3.143 1.06-3.143 1.06l-1.572 1.588s-1.25.22-3.667 0c-2.906 1.015-7.334.53-7.334.53s-4.415-1.835-4.715 0c-1.045-1.482-3.143-2.118-3.143-2.118s.028 1.237-.524 1.06C8.92 36.972 8.697 34.9 8.1 35.647 6.31 34.62 5.73 32.54 5.55 31.5l-.34-.48-1.836.92c.202-2.112-.26-4.172-2.62-6.353s1.572-6.353 1.572-6.353-.373.245-2.096-2.118c4.603-.365 4.715-1.588 4.715-1.588s.294-.208-2.62-.53c.848-1.643 4.715-2.647 4.715-2.647s-1.575-.306-1.572-1.588c.352.76 3.197.64 4.3.563 2.796-2.212 6.32-3.887 10.3-4.707 4.777-.984 9.436-.575 13.33.903z" id="A"/><path d="M33.786.382c-.342-.434-.97-.506-1.404-.168L30.37 1.682 31 2c.24.456-3.14 2.13-3.885 2.043l1.813.735c-.623.5-2.373.782-3.04.626-.48-.112-.938-.26-1.543-.33-.133.025 1.416 1.7 1.348 1.72C23.353 7.47 22 6 22 6v3s-2.732-.23-3.928-1.904l-.08.018C18.01 8.537 16.46 10.707 16 11c.098-.768-.22-2.256-.85-3.048-.378 1.015-.88 2.123-2.128 3.048-.116-.09-.02-2-.02-2s-.835 1.082-1.985 1.565l-.02-2.544-.065.002C10.655 8.12 9.6 8.572 9 10c-.62-.48-.855-1.62-.997-1.992C7.846 8.015 7.578 9.29 6 10c-.19-.162-.13-1.856-2.003-2.37.003-.004.016-.01.02-.016l-2.724-.57c-.527-.156-1.087.135-1.25.662a1 1 0 0 0 .661 1.249C.873 9.007 2.23 9.71 4 10c1.78 3.46 7 11 17 10C31.478 18.952 31.344 7.843 31 4c.807-.545 1.814-1.58 2.618-2.214a1 1 0 0 0 .168-1.404z" id="B"/><path d="M27.115 4.043L27 4c.024.024.064.037.115.043z" id="C"/></defs><g transform="translate(1 -1)" fill="none" fill-rule="evenodd"><use fill="#1493f6" xlink:href="#A"/><use stroke="#1d1d26" fill="#5cb2f1" xlink:href="#A" stroke-linecap="round" stroke-linejoin="round"/><g stroke="#1d1d26" fill="#fff" stroke-linejoin="round"><circle cx="15.5" cy="8.5" r="5.5"/><circle cx="26.5" cy="7.5" r="5.5"/></g><g fill="#1d1d26"><circle cx="25" cy="7" r="2"/><circle cx="17" cy="10" r="2"/></g><g transform="translate(5 13)"><use fill="#0d43a4" xlink:href="#B"/><use fill-opacity=".73" fill="#1d1d26" xlink:href="#B"/><use fill="#0d43a4" xlink:href="#C"/><use fill-opacity=".73" fill="#1d1d26" xlink:href="#C"/></g></g></svg>