<svg xmlns="http://www.w3.org/2000/svg" width="90" height="84" fill="#FF6E00" fill-rule="evenodd" xmlns:v="https://vecta.io/nano"><g fill-rule="nonzero"><circle cx="80.004" cy="21.135" r="6.196"/><path d="M83.143 30.47H75.13L64.98 20.32a2 2 0 0 0-2.828 0l-1.545 1.545a2 2 0 0 0 0 2.828l10.146 10.073v34.1a2 2 0 0 0 2 2h2.196a2 2 0 0 0 2-2v-16.67h3.14v16.67a2 2 0 0 0 2 2h2.196a2 2 0 0 0 2-2v-15.1a1.57 1.57 0 0 1 1.57-1.57 1.57 1.57 0 0 0 1.57-1.57v-13.96c-.083-3.47-2.9-6.196-6.278-6.196zM33.33 77.06a6.19 6.19 0 0 0-6.196-6.196H20.94a6.19 6.19 0 0 0-6.196 6.196v4.196a2 2 0 0 0 2 2h14.67a2 2 0 0 0 2-2V77.06h-.083z"/><circle cx="23.996" cy="61.53" r="6.196"/><path d="M36.47 77.06v4.196a2 2 0 0 0 2 2h14.67a2 2 0 0 0 2-2V77.06c0-3.47-2.81-6.196-6.196-6.196h-6.196c-3.552 0-6.278 2.81-6.278 6.196z"/><circle cx="45.804" cy="61.53" r="6.196"/><path d="M58.196 74.004h31.06V80.2h-31.06zM63.474 46H20.94V14.94h45.6a1 1 0 0 0 1-1V9.66a1 1 0 0 0-1-1H15.66a1 1 0 0 0-1 1v41.535a1 1 0 0 0 1 1h47.813a1 1 0 0 0 1-1V47a1 1 0 0 0-1-1z"/></g><path d="M25r 19h30a1 1 0 0 1 1 1v1a1 1 0 0 1-1 1H25a1 1 0 0 1-1-1v-1a1 1 0 0 1 1-1zm0 7h26a1 1 0 0 1 1 1v1a1 1 0 0 1-1 1H25a1 1 0 0 1-1-1v-1a1 1 0 0 1 1-1zm0 7h18a1 1 0 0 1 1 1v1a1 1 0 0 1-1 1H25a1 1 0 0 1-1-1v-1a1 1 0 0 1 1-1z" fill-opacity=".5"/><circle fill-opacity=".5" cx="10" cy="3" r="3"/><circle fill-opacity=".5" cx="2" cy="12" r="2"/><circle fill-opacity=".5" cx="9" cy="17" r="1"/><circle fill-opacity=".5" cx="24" cy="3" r="1"/></svg>