<svg xmlns="http://www.w3.org/2000/svg" width="48" height="48"><path d="M24.435 0C11.422 0 .872 10.468.872 23.382a23.14 23.14 0 0 0 3.381 12.074L0 48l13.046-4.144c3.376 1.852 7.258 2.908 11.39 2.908C37.45 46.764 48 36.295 48 23.382S37.45 0 24.435 0zm11.717 32.262c-.554 1.374-3.062 2.63-4.168 2.686s-1.137.856-7.16-1.76-9.648-8.983-9.934-9.393-2.334-3.326-2.223-6.263 1.72-4.323 2.293-4.9 1.23-.68 1.632-.687c.474-.008.782-.014 1.133-.001s.878-.073 1.334 1.14l1.687 4.5c.14.304.226.656.01 1.047s-.326.636-.64.973-.662.755-.942 1.012c-.313.286-.64.597-.31 1.207s1.463 2.6 3.19 4.257c2.22 2.118 4.136 2.82 4.725 3.14s.944.286 1.3-.1 1.568-1.687 1.992-2.268.82-.47 1.365-.25 3.445 1.774 4.036 2.095.985.485 1.126.74.097 1.45-.458 2.824z" fill="#01e675" fill-rule="nonzero"/></svg>